Picaflor-48 pt.ufo
<glyph name="exclam" format="2">
	<advance width="172"/>
	<unicode hex="0021"/>
	<outline>
		<contour>
			<point x="82" y="123" type="line"/>
			<point x="90" y="123" type="line"/>
			<point x="137" y="672" type="line"/>
			<point x="35" y="672" type="line"/>
		</contour>
		<contour>
			<point x="86" y="621" type="curve" smooth="yes"/>
			<point x="114" y="621"/>
			<point x="137" y="644"/>
			<point x="137" y="672" type="curve" smooth="yes"/>
			<point x="137" y="700"/>
			<point x="114" y="723"/>
			<point x="86" y="723" type="curve" smooth="yes"/>
			<point x="58" y="723"/>
			<point x="35" y="700"/>
			<point x="35" y="672" type="curve" smooth="yes"/>
			<point x="35" y="644"/>
			<point x="58" y="621"/>
		</contour>
		<component base="period" xOffset="20"/>
	</outline>
</glyph>
<glyph name="numbersign" format="2">
	<advance width="317.5"/>
	<unicode hex="0023"/>
	<outline>
		<contour>
			<point x="153.5" y="0" type="line"/>
			<point x="162" y="0" type="line"/>
			<point x="262" y="700" type="line"/>
			<point x="253.5" y="700" type="line"/>
		</contour>
		<contour>
			<point x="25" y="220" type="line"/>
			<point x="253.5" y="220" type="line"/>
			<point x="253.5" y="228" type="line"/>
			<point x="25" y="228" type="line"/>
		</contour>
		<contour>
			<point x="52.5" y="0" type="line"/>
			<point x="61" y="0" type="line"/>
			<point x="161" y="700" type="line"/>
			<point x="152.5" y="700" type="line"/>
		</contour>
		<contour>
			<point x="64" y="492" type="line"/>
			<point x="292.5" y="492" type="line"/>
			<point x="292.5" y="500" type="line"/>
			<point x="64" y="500" type="line"/>
		</contour>
	</outline>
</glyph>
<glyph name="ampersand" format="2">
	<advance width="777"/>
	<unicode hex="0026"/>
	<guideline x="231" y="615.5" angle="0"/>
	<outline>
		<contour>
			<point x="591.5" y="-8" type="curve" smooth="yes"/>
			<point x="680" y="-7.5"/>
			<point x="762" y="45.5"/>
			<point x="762" y="125" type="curve" smooth="yes"/>
			<point x="762" y="169"/>
			<point x="728.5" y="207"/>
			<point x="655.5" y="207" type="curve"/>
			<point x="654.5" y="200" type="line"/>
			<point x="684.5" y="197.5"/>
			<point x="697" y="171.5"/>
			<point x="697" y="139" type="curve" smooth="yes"/>
			<point x="697" y="55.5"/>
			<point x="645" y="0"/>
			<point x="591.5" y="0" type="curve" smooth="yes"/>
			<point x="495.5" y="0"/>
			<point x="411" y="178.5"/>
			<point x="290.5" y="421" type="curve" smooth="yes"/>
			<point x="257" y="489"/>
			<point x="231" y="561.5"/>
			<point x="231" y="615.5" type="curve" smooth="yes"/>
			<point x="231" y="670.5"/>
			<point x="275" y="700"/>
			<point x="320.5" y="700" type="curve"/>
			<point x="327" y="708" type="line"/>
			<point x="236" y="708"/>
			<point x="144.5" y="661"/>
			<point x="144.5" y="567.5" type="curve" smooth="yes"/>
			<point x="144.5" y="517"/>
			<point x="158" y="452"/>
			<point x="193.5" y="386.5" type="curve" smooth="yes"/>
			<point x="243.5" y="294.5"/>
			<point x="298" y="197"/>
			<point x="361.5" y="122.5" type="curve" smooth="yes"/>
			<point x="426.5" y="46"/>
			<point x="501.5" y="-8.5"/>
		</contour>
		<contour>
			<point x="241" y="414.5" type="curve"/>
			<point x="215" y="407.5" type="line"/>
			<point x="79.5" y="365"/>
			<point x="15" y="275"/>
			<point x="15" y="189" type="curve" smooth="yes"/>
			<point x="15" y="87.5"/>
			<point x="106.5" y="-8"/>
			<point x="280" y="-8" type="curve" smooth="yes"/>
			<point x="499.5" y="-8"/>
			<point x="652.5" y="162.5"/>
			<point x="652.5" y="286" type="curve" smooth="yes"/>
			<point x="652.5" y="356"/>
			<point x="603.5" y="411"/>
			<point x="489" y="411" type="curve"/>
			<point x="489" y="403" type="line"/>
			<point x="537" y="403"/>
			<point x="557.5" y="368.5"/>
			<point x="557.5" y="319" type="curve" smooth="yes"/>
			<point x="557.5" y="164"/>
			<point x="417.5" y="0"/>
			<point x="280" y="0" type="curve" smooth="yes"/>
			<point x="182" y="0"/>
			<point x="116.5" y="83.5"/>
			<point x="116.5" y="208.5" type="curve" smooth="yes"/>
			<point x="116.5" y="295"/>
			<point x="157" y="383"/>
		</contour>
		<contour>
			<point x="241" y="397.5" type="curve"/>
			<point x="283.5" y="399.5" type="line"/>
			<point x="412.5" y="413"/>
			<point x="496" y="487.5"/>
			<point x="496" y="570.5" type="curve" smooth="yes"/>
			<point x="496" y="642.5"/>
			<point x="433.5" y="708"/>
			<point x="327" y="708" type="curve"/>
			<point x="320.5" y="700" type="line"/>
			<point x="371.5" y="700"/>
			<point x="406" y="649"/>
			<point x="406" y="588.5" type="curve" smooth="yes"/>
			<point x="406" y="508.5"/>
			<point x="346" y="410"/>
		</contour>
	</outline>
</glyph>
<glyph name="quotesingle" format="2">
	<advance width="148.5"/>
	<unicode hex="0027"/>
	<outline>
		<contour>
			<point x="25" y="450" type="line"/>
			<point x="33" y="450" type="line"/>
			<point x="123.5" y="700" type="line"/>
			<point x="53.5" y="700" type="line"/>
		</contour>
	</outline>
</glyph>
<glyph name="parenleft" format="2">
	<advance width="205.5"/>
	<unicode hex="0028"/>
	<outline>
		<contour>
			<point x="15" y="350" type="curve" smooth="yes"/>
			<point x="15" y="177.5"/>
			<point x="85" y="-2"/>
			<point x="190" y="-53.5" type="curve"/>
			<point x="195.5" y="-48" type="line"/>
			<point x="141" y="1"/>
			<point x="105" y="178.5"/>
			<point x="105" y="350" type="curve" smooth="yes"/>
			<point x="105" y="521.5"/>
			<point x="141" y="699"/>
			<point x="195.5" y="748" type="curve"/>
			<point x="190" y="753.5" type="line"/>
			<point x="85" y="702"/>
			<point x="15" y="522.5"/>
		</contour>
	</outline>
</glyph>
<glyph name="asterisk" format="2">
	<advance width="274"/>
	<unicode hex="002A"/>
	<outline>
		<contour>
			<point x="187.5" y="465" type="line"/>
			<point x="236.5" y="515" type="line"/>
			<point x="141" y="575" type="line"/>
			<point x="137" y="575" type="line"/>
			<point x="135" y="575" type="line"/>
		</contour>
		<contour>
			<point x="86.5" y="465" type="line"/>
			<point x="139" y="575" type="line"/>
			<point x="137" y="575" type="line"/>
			<point x="133" y="575" type="line"/>
			<point x="37.5" y="515" type="line"/>
		</contour>
		<contour>
			<point x="134.5" y="572" type="line"/>
			<point x="137" y="575" type="line"/>
			<point x="50" y="655" type="line"/>
			<point x="20" y="594.5" type="line"/>
		</contour>
		<contour>
			<point x="135" y="575" type="line"/>
			<point x="137" y="575" type="line"/>
			<point x="137" y="700" type="line"/>
			<point x="102" y="700" type="line"/>
		</contour>
		<contour>
			<point x="137" y="575" type="line"/>
			<point x="139" y="575" type="line"/>
			<point x="172" y="700" type="line"/>
			<point x="137" y="700" type="line"/>
		</contour>
		<contour>
			<point x="139.5" y="572" type="line"/>
			<point x="254" y="594.5" type="line"/>
			<point x="224" y="655" type="line"/>
			<point x="137" y="575" type="line"/>
		</contour>
	</outline>
</glyph>
<glyph name="plus" format="2">
	<advance width="340"/>
	<unicode hex="002B"/>
	<outline>
		<contour>
			<point x="164" y="120" type="line"/>
			<point x="176" y="120" type="line"/>
			<point x="176" y="450" type="line"/>
			<point x="164" y="450" type="line"/>
		</contour>
		<contour>
			<point x="5" y="279" type="line"/>
			<point x="335" y="279" type="line"/>
			<point x="335" y="291" type="line"/>
			<point x="5" y="291" type="line"/>
		</contour>
	</outline>
</glyph>
<glyph name="comma" format="2">
	<advance width="160"/>
	<unicode hex="002C"/>
	<guideline x="210.5" y="96" angle="0"/>
	<outline>
		<contour>
			<point x="40" y="-119.5" type="curve"/>
			<point x="45.5" y="-125.5" type="line"/>
			<point x="99" y="-68.5"/>
			<point x="135" y="0"/>
			<point x="135" y="45.5" type="curve" smooth="yes"/>
			<point x="135" y="76"/>
			<point x="115.5" y="96"/>
			<point x="86" y="96" type="curve" smooth="yes"/>
			<point x="46.5" y="96"/>
			<point x="25" y="60"/>
			<point x="25" y="29.5" type="curve" smooth="yes"/>
			<point x="25" y="3.5"/>
			<point x="41.5" y="-14.5"/>
			<point x="61" y="-14.5" type="curve" smooth="yes"/>
			<point x="67.5" y="-14.5"/>
			<point x="74.5" y="-12.5"/>
			<point x="81" y="-8" type="curve" smooth="yes"/>
			<point x="86.5" y="-4.5"/>
			<point x="90.5" y="0"/>
			<point x="95" y="0" type="curve" smooth="yes"/>
			<point x="97.5" y="0"/>
			<point x="99.5" y="-2.5"/>
			<point x="99.5" y="-6.5" type="curve" smooth="yes"/>
			<point x="99.5" y="-30"/>
			<point x="59.5" y="-98"/>
		</contour>
	</outline>
</glyph>
<glyph name="slash" format="2">
	<advance width="158.5"/>
	<unicode hex="002F"/>
	<outline>
		<contour>
			<point x="25" y="-50" type="line"/>
			<point x="33.5" y="-50" type="line"/>
			<point x="133.5" y="750" type="line"/>
			<point x="125" y="750" type="line"/>
		</contour>
	</outline>
</glyph>
<glyph name="zero" format="2">
	<advance width="440"/>
	<unicode hex="0030"/>
	<outline>
		<contour>
			<point x="220" y="-8" type="curve" smooth="yes"/>
			<point x="343" y="-8"/>
			<point x="425" y="132"/>
			<point x="425" y="350" type="curve" smooth="yes"/>
			<point x="425" y="568"/>
			<point x="343" y="708"/>
			<point x="220" y="708" type="curve" smooth="yes"/>
			<point x="97" y="708"/>
			<point x="15" y="568"/>
			<point x="15" y="350" type="curve" smooth="yes"/>
			<point x="15" y="132"/>
			<point x="97" y="-8"/>
		</contour>
		<contour>
			<point x="220" y="0" type="curve" smooth="yes"/>
			<point x="163" y="0"/>
			<point x="125" y="137.5"/>
			<point x="125" y="350" type="curve" smooth="yes"/>
			<point x="125" y="562.5"/>
			<point x="163" y="700"/>
			<point x="220" y="700" type="curve" smooth="yes"/>
			<point x="277" y="700"/>
			<point x="315" y="562.5"/>
			<point x="315" y="350" type="curve" smooth="yes"/>
			<point x="315" y="137.5"/>
			<point x="277" y="0"/>
		</contour>
	</outline>
</glyph>
<glyph name="one" format="2">
	<advance width="302"/>
	<unicode hex="0031"/>
	<guideline x="333.5" y="540" angle="90"/>
	<guideline x="115.5" y="737" angle="0"/>
	<outline>
		<contour>
			<point x="127" y="0" type="line"/>
			<point x="227" y="0" type="line"/>
			<point x="227" y="737" type="line"/>
			<point x="201.5" y="688" type="line"/>
			<point x="127" y="579.5" type="line"/>
		</contour>
		<contour>
			<point x="5" y="500" type="curve"/>
			<point x="34.5" y="314.5" type="line"/>
			<point x="40.5" y="314.5" type="line"/>
			<point x="29" y="404"/>
			<point x="58.5" y="503"/>
			<point x="115.5" y="567.5" type="curve"/>
			<point x="162" y="613.5"/>
			<point x="202" y="673"/>
			<point x="227" y="737" type="curve"/>
			<point x="219" y="737" type="line"/>
			<point x="175" y="632"/>
			<point x="89.5" y="537"/>
		</contour>
		<component base="_part.longserif" xScale="-1" yScale="-1" xOffset="322" yOffset="700"/>
		<component base="_part.longserif" xScale="-1" yScale="-1" xOffset="297" yOffset="700"/>
	</outline>
</glyph>
<glyph name="two" format="2">
	<advance width="398"/>
	<unicode hex="0032"/>
	<outline>
		<contour>
			<point x="15" y="0" type="curve"/>
			<point x="63" y="0" type="line"/>
			<point x="236.5" y="189.5"/>
			<point x="370.5" y="408.5"/>
			<point x="370.5" y="561.5" type="curve" smooth="yes"/>
			<point x="370.5" y="653.5"/>
			<point x="300.5" y="715"/>
			<point x="217.5" y="715" type="curve" smooth="yes"/>
			<point x="163" y="715"/>
			<point x="124.5" y="698.5"/>
			<point x="87.5" y="673.5" type="curve" smooth="yes"/>
			<point x="76.5" y="666"/>
			<point x="62.5" y="658.5"/>
			<point x="53" y="658.5" type="curve" smooth="yes"/>
			<point x="39" y="658.5"/>
			<point x="32" y="668"/>
			<point x="18" y="705" type="curve"/>
			<point x="10" y="703" type="line"/>
			<point x="77" y="477" type="line"/>
			<point x="83" y="477" type="line"/>
			<point x="80" y="510" type="line" smooth="yes"/>
			<point x="71.5" y="606"/>
			<point x="85.5" y="700"/>
			<point x="179.5" y="700" type="curve" smooth="yes"/>
			<point x="236.5" y="700"/>
			<point x="266" y="647"/>
			<point x="266" y="571.5" type="curve" smooth="yes"/>
			<point x="266" y="445"/>
			<point x="162.5" y="217"/>
		</contour>
		<contour>
			<point x="40" y="0" type="line"/>
			<point x="326" y="0" type="line"/>
			<point x="326" y="8" type="line"/>
			<point x="40" y="8" type="line"/>
		</contour>
		<contour>
			<point x="309" y="0" type="line"/>
			<point x="361" y="0" type="line"/>
			<point x="383" y="233" type="line"/>
			<point x="373" y="233" type="line"/>
		</contour>
	</outline>
</glyph>
<glyph name="three" format="2">
	<advance width="418.5"/>
	<unicode hex="0033"/>
	<outline>
		<contour>
			<point x="57" y="325.5" type="line"/>
			<point x="69" y="325.5" type="line"/>
			<point x="140" y="425" type="line"/>
			<point x="403.5" y="700" type="line"/>
			<point x="261" y="700" type="line"/>
		</contour>
		<contour>
			<point x="192" y="-8" type="curve"/>
			<point x="192" y="0" type="line"/>
			<point x="111.5" y="0"/>
			<point x="74.5" y="76"/>
			<point x="85" y="190" type="curve" smooth="yes"/>
			<point x="88" y="223" type="line"/>
			<point x="82" y="223" type="line"/>
			<point x="15" y="-3" type="line"/>
			<point x="23" y="-5" type="line"/>
			<point x="33" y="21"/>
			<point x="42" y="33"/>
			<point x="58" y="33" type="curve" smooth="yes"/>
			<point x="81" y="33"/>
			<point x="131" y="-8"/>
		</contour>
		<contour>
			<point x="192" y="0" type="curve"/>
			<point x="192" y="-8" type="line"/>
			<point x="316" y="-8"/>
			<point x="399" y="89.5"/>
			<point x="399" y="236" type="curve"/>
			<point x="299" y="236" type="line"/>
			<point x="299" y="95.5"/>
			<point x="256" y="1.5"/>
		</contour>
		<contour>
			<point x="299" y="236" type="curve"/>
			<point x="399" y="236" type="line"/>
			<point x="399" y="389.5"/>
			<point x="329" y="473"/>
			<point x="245.5" y="473" type="curve" smooth="yes"/>
			<point x="182" y="473"/>
			<point x="144.5" y="443.5"/>
			<point x="57" y="325.5" type="curve"/>
			<point x="69" y="325.5" type="line"/>
			<point x="133" y="416"/>
			<point x="184.5" y="459.5"/>
			<point x="222.5" y="459.5" type="curve" smooth="yes"/>
			<point x="272.5" y="459.5"/>
			<point x="299" y="383"/>
		</contour>
		<contour>
			<point x="94" y="467" type="line"/>
			<point x="104" y="467" type="line"/>
			<point x="82" y="700" type="line"/>
			<point x="30" y="700" type="line"/>
		</contour>
		<contour>
			<point x="62" y="692" type="line"/>
			<point x="318" y="692" type="line"/>
			<point x="318" y="700" type="line"/>
			<point x="62" y="700" type="line"/>
		</contour>
	</outline>
</glyph>
<glyph name="four" format="2">
	<advance width="460"/>
	<unicode hex="0034"/>
	<outline>
		<contour>
			<point x="5" y="140" type="line"/>
			<point x="14" y="140" type="line"/>
			<point x="342.5" y="717.5" type="line"/>
			<point x="342.5" y="737" type="line"/>
		</contour>
		<contour>
			<point x="5" y="140" type="line"/>
			<point x="406" y="140" type="line"/>
			<point x="406" y="148" type="line"/>
			<point x="16.5" y="148" type="line"/>
		</contour>
		<contour>
			<point x="11" y="140" type="line"/>
			<point x="88" y="140" type="line"/>
			<point x="88" y="215"/>
			<point x="119.5" y="322.5"/>
			<point x="167" y="409" type="curve"/>
			<point x="160" y="413.5" type="line"/>
		</contour>
		<contour>
			<point x="242.5" y="0" type="line"/>
			<point x="342.5" y="0" type="line"/>
			<point x="342.5" y="737" type="line"/>
			<point x="242.5" y="551" type="line"/>
		</contour>
		<contour>
			<point x="371" y="140" type="line"/>
			<point x="423" y="140" type="line"/>
			<point x="445" y="373" type="line"/>
			<point x="435" y="373" type="line"/>
		</contour>
		<component base="_part.longserif" xScale="-1" yScale="-1" xOffset="437.500" yOffset="700"/>
	</outline>
</glyph>
<glyph name="five" format="2">
	<advance width="414"/>
	<unicode hex="0035"/>
	<outline>
		<contour>
			<point x="299" y="236" type="curve"/>
			<point x="399" y="236" type="line"/>
			<point x="399" y="378"/>
			<point x="325" y="472.5"/>
			<point x="213.5" y="472.5" type="curve" smooth="yes"/>
			<point x="170.5" y="472.5"/>
			<point x="137.5" y="453.5"/>
			<point x="120" y="425" type="curve"/>
			<point x="61" y="425" type="line"/>
			<point x="61" y="325.5" type="line"/>
			<point x="69" y="325.5" type="line"/>
			<point x="105" y="406.5"/>
			<point x="154.5" y="460.5"/>
			<point x="193" y="460.5" type="curve" smooth="yes"/>
			<point x="256.5" y="460.5"/>
			<point x="299" y="370.5"/>
		</contour>
		<contour>
			<point x="192" y="-8" type="curve"/>
			<point x="192" y="0" type="line"/>
			<point x="111.5" y="0"/>
			<point x="74.5" y="76"/>
			<point x="85" y="190" type="curve" smooth="yes"/>
			<point x="88" y="223" type="line"/>
			<point x="82" y="223" type="line"/>
			<point x="15" y="-3" type="line"/>
			<point x="23" y="-5" type="line"/>
			<point x="33" y="21"/>
			<point x="42" y="33"/>
			<point x="58" y="33" type="curve" smooth="yes"/>
			<point x="81" y="33"/>
			<point x="131" y="-8"/>
		</contour>
		<contour>
			<point x="192" y="0" type="curve"/>
			<point x="192" y="-8" type="line"/>
			<point x="316" y="-8"/>
			<point x="399" y="89.5"/>
			<point x="399" y="236" type="curve"/>
			<point x="299" y="236" type="line"/>
			<point x="299" y="96"/>
			<point x="256" y="1.5"/>
		</contour>
		<contour>
			<point x="61" y="400" type="line"/>
			<point x="95" y="400" type="line"/>
			<point x="160.5" y="453" type="line"/>
			<point x="161" y="700" type="line"/>
			<point x="61" y="700" type="line"/>
		</contour>
		<contour>
			<point x="111" y="692" type="line"/>
			<point x="357" y="692" type="line"/>
			<point x="357" y="700" type="line"/>
			<point x="111" y="700" type="line"/>
		</contour>
		<contour>
			<point x="315" y="467" type="line"/>
			<point x="325" y="467" type="line"/>
			<point x="389" y="700" type="line"/>
			<point x="337" y="700" type="line"/>
		</contour>
	</outline>
</glyph>
<glyph name="six" format="2">
	<advance width="465.5"/>
	<unicode hex="0036"/>
	<guideline x="255" y="-8" angle="90"/>
	<guideline x="230" y="15" angle="90"/>
	<guideline x="245" y="437" angle="90"/>
	<outline>
		<contour>
			<point x="245" y="-8" type="curve" smooth="yes"/>
			<point x="368.5" y="-8"/>
			<point x="450.5" y="83.5"/>
			<point x="450.5" y="221" type="curve"/>
			<point x="355" y="221" type="line"/>
			<point x="355" y="89"/>
			<point x="311" y="0.5"/>
			<point x="245" y="0" type="curve" smooth="yes"/>
			<point x="244" y="0"/>
			<point x="243" y="0"/>
			<point x="242.5" y="0" type="curve" smooth="yes"/>
			<point x="180.5" y="2.5"/>
			<point x="120" y="104.5"/>
			<point x="120" y="221" type="curve"/>
			<point x="115" y="350" type="line"/>
			<point x="15" y="350" type="line"/>
			<point x="15" y="135"/>
			<point x="107" y="-8"/>
		</contour>
		<contour>
			<point x="87.5" y="221" type="curve"/>
			<point x="120" y="221" type="line"/>
			<point x="120" y="350"/>
			<point x="170" y="436.5"/>
			<point x="245" y="437" type="curve"/>
			<point x="245" y="445" type="line"/>
			<point x="147.5" y="445"/>
			<point x="87.5" y="355.5"/>
		</contour>
		<contour>
			<point x="15" y="350" type="curve"/>
			<point x="115" y="350" type="line"/>
			<point x="115" y="558"/>
			<point x="168" y="700"/>
			<point x="275" y="700" type="curve"/>
			<point x="275" y="708" type="line"/>
			<point x="87" y="708"/>
			<point x="15" y="526"/>
		</contour>
		<contour>
			<point x="355" y="221" type="curve"/>
			<point x="450.5" y="221" type="line"/>
			<point x="450.5" y="355.5"/>
			<point x="368.5" y="445"/>
			<point x="245" y="445" type="curve"/>
			<point x="245" y="437" type="line"/>
			<point x="311" y="436.5"/>
			<point x="355" y="350"/>
		</contour>
		<contour>
			<point x="366" y="510" type="curve" smooth="yes"/>
			<point x="363" y="477" type="line"/>
			<point x="369" y="477" type="line"/>
			<point x="436" y="703" type="line"/>
			<point x="428" y="705" type="line"/>
			<point x="418" y="679"/>
			<point x="409" y="667"/>
			<point x="393" y="667" type="curve" smooth="yes"/>
			<point x="370" y="667"/>
			<point x="331" y="708"/>
			<point x="275" y="708" type="curve"/>
			<point x="275" y="700" type="line"/>
			<point x="360" y="700"/>
			<point x="375" y="609"/>
		</contour>
		<contour>
			<point x="275" y="700" type="line"/>
			<point x="275" y="708" type="line"/>
		</contour>
	</outline>
</glyph>
<glyph name="seven" format="2">
	<advance width="415"/>
	<unicode hex="0037"/>
	<outline>
		<contour>
			<point x="91" y="-110.5" type="line"/>
			<point x="99" y="-110.5" type="line"/>
			<point x="400" y="700" type="line"/>
			<point x="293.5" y="700" type="line"/>
			<point x="185" y="408" type="line"/>
		</contour>
		<contour>
			<point x="40" y="400" type="line"/>
			<point x="381" y="400" type="line"/>
			<point x="381" y="408" type="line"/>
			<point x="40" y="408" type="line"/>
		</contour>
		<contour>
			<point x="79" y="467" type="line"/>
			<point x="89" y="467" type="line"/>
			<point x="67" y="700" type="line"/>
			<point x="15" y="700" type="line"/>
		</contour>
		<contour>
			<point x="60" y="692" type="line"/>
			<point x="372" y="692" type="line"/>
			<point x="372" y="700" type="line"/>
			<point x="60" y="700" type="line"/>
		</contour>
	</outline>
</glyph>
<glyph name="eight" format="2">
	<advance width="503"/>
	<unicode hex="0038"/>
	<guideline x="222" y="393" angle="0"/>
	<guideline x="251.5" y="399.5" angle="90"/>
	<outline>
		<contour>
			<point x="15" y="195.5" type="curve"/>
			<point x="115" y="195.5" type="line"/>
			<point x="115" y="313.5"/>
			<point x="175.5" y="392"/>
			<point x="251.5" y="391.5" type="curve" smooth="yes"/>
			<point x="327.5" y="391"/>
			<point x="388" y="312.5"/>
			<point x="388" y="195.5" type="curve"/>
			<point x="488" y="195.5" type="line"/>
			<point x="488" y="321"/>
			<point x="384.5" y="399.5"/>
			<point x="251.5" y="399.5" type="curve" smooth="yes"/>
			<point x="118.5" y="399.5"/>
			<point x="15" y="321"/>
		</contour>
		<contour>
			<point x="251.5" y="-8" type="curve" smooth="yes"/>
			<point x="384.5" y="-8"/>
			<point x="488" y="70"/>
			<point x="488" y="195.5" type="curve"/>
			<point x="388" y="195.5" type="line"/>
			<point x="388" y="78.5"/>
			<point x="327.5" y="0.5"/>
			<point x="251.5" y="0" type="curve" smooth="yes"/>
			<point x="175.5" y="-0.5"/>
			<point x="115" y="77.5"/>
			<point x="115" y="195.5" type="curve"/>
			<point x="15" y="195.5" type="line"/>
			<point x="15" y="70"/>
			<point x="118.5" y="-8"/>
		</contour>
		<contour>
			<point x="251.5" y="393" type="curve"/>
			<point x="251.5" y="399.5" type="line"/>
			<point x="190" y="399.5"/>
			<point x="151.5" y="472.5"/>
			<point x="151.5" y="546" type="curve" smooth="yes"/>
			<point x="151.5" y="619"/>
			<point x="190" y="692"/>
			<point x="251.5" y="692" type="curve"/>
			<point x="251.5" y="700" type="line"/>
			<point x="124.5" y="700"/>
			<point x="56.5" y="623.5"/>
			<point x="56.5" y="546.5" type="curve" smooth="yes"/>
			<point x="56.5" y="470"/>
			<point x="124.5" y="393"/>
		</contour>
		<contour>
			<point x="251.5" y="399.5" type="curve"/>
			<point x="251.5" y="393" type="line"/>
			<point x="378.5" y="393"/>
			<point x="446.5" y="470"/>
			<point x="446.5" y="546.5" type="curve" smooth="yes"/>
			<point x="446.5" y="623.5"/>
			<point x="378.5" y="700"/>
			<point x="251.5" y="700" type="curve"/>
			<point x="251.5" y="692" type="line"/>
			<point x="313" y="692"/>
			<point x="351.5" y="619"/>
			<point x="351.5" y="546" type="curve" smooth="yes"/>
			<point x="351.5" y="472.5"/>
			<point x="313" y="399.5"/>
		</contour>
	</outline>
</glyph>
<glyph name="equal" format="2">
	<advance width="290"/>
	<unicode hex="003D"/>
	<outline>
		<contour>
			<point x="5" y="329" type="line"/>
			<point x="285" y="329" type="line"/>
			<point x="285" y="341" type="line"/>
			<point x="5" y="341" type="line"/>
		</contour>
		<contour>
			<point x="5" y="229" type="line"/>
			<point x="285" y="229" type="line"/>
			<point x="285" y="241" type="line"/>
			<point x="5" y="241" type="line"/>
		</contour>
	</outline>
</glyph>
<glyph name="question" format="2">
	<advance width="390"/>
	<unicode hex="003F"/>
	<outline>
		<contour>
			<point x="208" y="246.5" type="curve" smooth="yes"/>
			<point x="292.5" y="246.5"/>
			<point x="375" y="360"/>
			<point x="375" y="479" type="curve"/>
			<point x="275" y="479" type="line"/>
			<point x="275" y="349.5"/>
			<point x="240.5" y="269.5"/>
			<point x="193" y="269.5" type="curve" smooth="yes"/>
			<point x="141.5" y="269.5"/>
			<point x="95" y="323.5"/>
			<point x="77.5" y="404.5" type="curve"/>
			<point x="69.5" y="404.5" type="line"/>
			<point x="101.5" y="281.5" type="line"/>
			<point x="141.5" y="273" type="line"/>
			<point x="163" y="254.5"/>
			<point x="185.5" y="246.5"/>
		</contour>
		<contour>
			<point x="121" y="122.5" type="line"/>
			<point x="129" y="122.5" type="line"/>
			<point x="160.5" y="272.5" type="line"/>
			<point x="101" y="285" type="line"/>
			<point x="69.5" y="404.5" type="line"/>
		</contour>
		<contour>
			<point x="56.5" y="477" type="line"/>
			<point x="62.5" y="477" type="line"/>
			<point x="59.5" y="510" type="line" smooth="yes"/>
			<point x="49" y="624"/>
			<point x="111.5" y="700"/>
			<point x="192" y="700" type="curve"/>
			<point x="192" y="708" type="line"/>
			<point x="131" y="708"/>
			<point x="81" y="667"/>
			<point x="58" y="667" type="curve" smooth="yes"/>
			<point x="42" y="667"/>
			<point x="33" y="679"/>
			<point x="23" y="705" type="curve"/>
			<point x="15" y="703" type="line"/>
		</contour>
		<contour>
			<point x="275" y="479" type="curve"/>
			<point x="375" y="479" type="line"/>
			<point x="375" y="616.5"/>
			<point x="301" y="708"/>
			<point x="192" y="708" type="curve"/>
			<point x="192" y="700" type="line"/>
			<point x="265" y="698.5"/>
			<point x="275" y="610"/>
		</contour>
		<component base="period" xOffset="59"/>
	</outline>
</glyph>
<glyph name="A" format="2">
	<advance width="455"/>
	<unicode hex="0041"/>
	<unicode hex="0061"/>
	<anchor x="399" y="0" name="ogonek"/>
	<anchor x="228" y="0" name="bottom"/>
	<anchor x="224" y="702.5" name="top"/>
	<outline>
		<contour>
			<point x="57" y="99" type="line"/>
			<point x="307" y="99" type="line"/>
			<point x="307" y="107" type="line"/>
			<point x="57" y="107" type="line"/>
		</contour>
		<component base="V" xScale="-1" yScale="-1" xOffset="455" yOffset="700"/>
	</outline>
</glyph>
<glyph name="B" format="2">
	<advance width="468"/>
	<unicode hex="0042"/>
	<unicode hex="0062"/>
	<anchor x="227" y="700" name="top"/>
	<anchor x="227" y="0" name="bottom"/>
	<outline>
		<contour>
			<point x="172" y="396" type="curve"/>
			<point x="172" y="393" type="line"/>
			<point x="329" y="393"/>
			<point x="412" y="484"/>
			<point x="412" y="566.5" type="curve" smooth="yes"/>
			<point x="412" y="636"/>
			<point x="353.5" y="700"/>
			<point x="231" y="700" type="curve" smooth="yes"/>
			<point x="172" y="700" type="line"/>
			<point x="172" y="692" type="line"/>
			<point x="194" y="692" type="line" smooth="yes"/>
			<point x="276" y="692"/>
			<point x="317" y="624"/>
			<point x="317" y="553" type="curve" smooth="yes"/>
			<point x="317" y="476"/>
			<point x="268.5" y="396"/>
		</contour>
		<contour>
			<point x="172" y="0" type="line"/>
			<point x="231" y="0" type="line" smooth="yes"/>
			<point x="370" y="0"/>
			<point x="453" y="80.5"/>
			<point x="453" y="201" type="curve"/>
			<point x="353" y="201" type="line"/>
			<point x="353" y="85"/>
			<point x="289.5" y="8"/>
			<point x="194" y="8" type="curve" smooth="yes"/>
			<point x="172" y="8" type="line"/>
		</contour>
		<contour>
			<point x="353" y="201" type="curve"/>
			<point x="453" y="201" type="line"/>
			<point x="453" y="318"/>
			<point x="370" y="396"/>
			<point x="231" y="396" type="curve" smooth="yes"/>
			<point x="172" y="396" type="line"/>
			<point x="172" y="388" type="line"/>
			<point x="194" y="388" type="line" smooth="yes"/>
			<point x="289.5" y="388"/>
			<point x="353" y="313"/>
		</contour>
		<component base="_part.halfstemleft"/>
	</outline>
</glyph>
<glyph name="C" format="2">
	<advance width="415"/>
	<unicode hex="0043"/>
	<unicode hex="0063"/>
	<guideline x="395" y="307" angle="0"/>
	<guideline x="411" y="40" angle="0"/>
	<anchor x="240" y="708" name="top"/>
	<anchor x="240" y="-8" name="bottom"/>
	<outline>
		<contour>
			<point x="15" y="350" type="curve"/>
			<point x="125" y="350" type="line"/>
			<point x="125" y="558"/>
			<point x="163" y="700"/>
			<point x="240" y="700" type="curve"/>
			<point x="240" y="708" type="line"/>
			<point x="82" y="708"/>
			<point x="15" y="526"/>
		</contour>
		<contour>
			<point x="240" y="-8" type="curve"/>
			<point x="240" y="0" type="line"/>
			<point x="163" y="0"/>
			<point x="125" y="142"/>
			<point x="125" y="350" type="curve"/>
			<point x="15" y="350" type="line"/>
			<point x="15" y="174"/>
			<point x="82" y="-8"/>
		</contour>
		<contour>
			<point x="331" y="510" type="curve" smooth="yes"/>
			<point x="328" y="477" type="line"/>
			<point x="334" y="477" type="line"/>
			<point x="401" y="703" type="line"/>
			<point x="393" y="705" type="line"/>
			<point x="383" y="679"/>
			<point x="374" y="667"/>
			<point x="358" y="667" type="curve" smooth="yes"/>
			<point x="335" y="667"/>
			<point x="296" y="708"/>
			<point x="240" y="708" type="curve"/>
			<point x="240" y="700" type="line"/>
			<point x="325" y="700"/>
			<point x="340" y="609"/>
		</contour>
		<contour>
			<point x="240" y="0" type="curve"/>
			<point x="240" y="-8" type="line"/>
			<point x="268.5" y="-8"/>
			<point x="300.5" y="12.5"/>
			<point x="325.5" y="57.5" type="curve" smooth="yes"/>
			<point x="337.5" y="79"/>
			<point x="352.5" y="88.5"/>
			<point x="365" y="88.5" type="curve" smooth="yes"/>
			<point x="383" y="88.5"/>
			<point x="396" y="70"/>
			<point x="390" y="40" type="curve"/>
			<point x="398" y="40" type="line"/>
			<point x="402.5" y="60.5"/>
			<point x="405" y="85"/>
			<point x="405" y="112" type="curve" smooth="yes"/>
			<point x="405" y="177.5"/>
			<point x="391.5" y="258"/>
			<point x="366.5" y="332" type="curve"/>
			<point x="358.5" y="330" type="line"/>
			<point x="360.5" y="321"/>
			<point x="362" y="301"/>
			<point x="362" y="280" type="curve" smooth="yes"/>
			<point x="362" y="82"/>
			<point x="294" y="0"/>
		</contour>
	</outline>
</glyph>
<glyph name="D" format="2">
	<advance width="470"/>
	<unicode hex="0044"/>
	<unicode hex="0064"/>
	<anchor x="219" y="350" name="center"/>
	<anchor x="219" y="0" name="bottom"/>
	<anchor x="204" y="700" name="top"/>
	<outline>
		<contour>
			<point x="345" y="350" type="curve"/>
			<point x="455" y="350" type="line"/>
			<point x="455" y="526"/>
			<point x="362" y="700"/>
			<point x="204" y="700" type="curve" smooth="yes"/>
			<point x="153.5" y="700" type="line"/>
			<point x="153.5" y="692" type="line"/>
			<point x="204" y="692" type="line" smooth="yes"/>
			<point x="288.5" y="692"/>
			<point x="345" y="555"/>
		</contour>
		<contour>
			<point x="153.5" y="0" type="line"/>
			<point x="204" y="0" type="line" smooth="yes"/>
			<point x="362" y="0"/>
			<point x="455" y="184"/>
			<point x="455" y="350" type="curve"/>
			<point x="345" y="350" type="line"/>
			<point x="345" y="145"/>
			<point x="288.5" y="8"/>
			<point x="204" y="8" type="curve" smooth="yes"/>
			<point x="153.5" y="8" type="line"/>
		</contour>
		<component base="_part.stem" xOffset="-20"/>
		<component base="_part.shortserif" xOffset="-20"/>
		<component base="_part.shortserif" xOffset="-20" yOffset="-692"/>
	</outline>
</glyph>
<glyph name="E" format="2">
	<advance width="423"/>
	<unicode hex="0045"/>
	<unicode hex="0065"/>
	<anchor x="299" y="0" name="ogonek"/>
	<anchor x="212.5" y="700" name="top"/>
	<anchor x="0" y="700" name="topleft"/>
	<anchor x="199" y="0" name="bottom"/>
	<outline>
		<contour>
			<point x="317" y="0" type="line"/>
			<point x="358" y="0" type="line"/>
			<point x="413" y="168" type="line"/>
			<point x="404" y="168" type="line"/>
		</contour>
		<contour>
			<point x="205" y="0" type="line"/>
			<point x="341" y="0" type="line"/>
			<point x="341" y="8" type="line"/>
			<point x="205" y="8" type="line"/>
		</contour>
		<contour>
			<point x="265" y="309" type="line"/>
			<point x="275" y="309" type="line"/>
			<point x="275" y="427" type="line"/>
			<point x="247" y="427" type="line"/>
		</contour>
		<contour>
			<point x="165" y="419" type="line"/>
			<point x="275" y="419" type="line"/>
			<point x="275" y="427" type="line"/>
			<point x="165" y="427" type="line"/>
		</contour>
		<contour>
			<point x="247" y="419" type="line"/>
			<point x="275" y="419" type="line"/>
			<point x="275" y="537" type="line"/>
			<point x="265" y="537" type="line"/>
		</contour>
		<contour>
			<point x="374" y="532" type="line"/>
			<point x="383" y="532" type="line"/>
			<point x="358" y="700" type="line"/>
			<point x="317" y="700" type="line"/>
		</contour>
		<contour>
			<point x="225" y="692" type="line"/>
			<point x="351" y="692" type="line"/>
			<point x="351" y="700" type="line"/>
			<point x="225" y="700" type="line"/>
		</contour>
		<component base="_part.stemserifs" xOffset="-20"/>
	</outline>
</glyph>
<glyph name="F" format="2">
	<advance width="393"/>
	<unicode hex="0046"/>
	<unicode hex="0066"/>
	<anchor x="184" y="700" name="top"/>
	<anchor x="184" y="0" name="bottom"/>
	<outline>
		<contour>
			<point x="374" y="532" type="line"/>
			<point x="383" y="532" type="line"/>
			<point x="358" y="700" type="line"/>
			<point x="317" y="700" type="line"/>
		</contour>
		<contour>
			<point x="265" y="259" type="line"/>
			<point x="275" y="259" type="line"/>
			<point x="275" y="377" type="line"/>
			<point x="247" y="377" type="line"/>
		</contour>
		<contour>
			<point x="165" y="369" type="line"/>
			<point x="275" y="369" type="line"/>
			<point x="275" y="377" type="line"/>
			<point x="165" y="377" type="line"/>
		</contour>
		<contour>
			<point x="247" y="369" type="line"/>
			<point x="275" y="369" type="line"/>
			<point x="275" y="487" type="line"/>
			<point x="265" y="487" type="line"/>
		</contour>
		<contour>
			<point x="225" y="692" type="line"/>
			<point x="351" y="692" type="line"/>
			<point x="351" y="700" type="line"/>
			<point x="225" y="700" type="line"/>
		</contour>
		<component base="_part.stemserifs" xOffset="-20"/>
		<component base="_part.longserif" xScale="-1" yScale="-1" xOffset="280" yOffset="700"/>
	</outline>
</glyph>
<glyph name="H" format="2">
	<advance width="540"/>
	<unicode hex="0048"/>
	<unicode hex="0068"/>
	<anchor x="270" y="350" name="center"/>
	<anchor x="270" y="700" name="top"/>
	<anchor x="0" y="700" name="topleft"/>
	<anchor x="270" y="0" name="bottom"/>
	<outline>
		<contour>
			<point x="165" y="419" type="line"/>
			<point x="375" y="419" type="line"/>
			<point x="375" y="427" type="line"/>
			<point x="165" y="427" type="line"/>
		</contour>
		<component base="_part.stemserifs" xOffset="270"/>
		<component base="_part.stemserifs" xOffset="-20"/>
	</outline>
</glyph>
<glyph name="J" format="2">
	<advance width="393"/>
	<unicode hex="004A"/>
	<unicode hex="006A"/>
	<guideline x="34" y="390" angle="90"/>
	<anchor x="209" y="700" name="top"/>
	<anchor x="209" y="0" name="bottom"/>
	<outline>
		<contour>
			<point x="183" y="-8" type="curve" smooth="yes"/>
			<point x="271" y="-8"/>
			<point x="323" y="45"/>
			<point x="323" y="140" type="curve"/>
			<point x="223" y="152" type="line"/>
			<point x="223" y="77"/>
			<point x="187" y="34"/>
			<point x="132" y="34" type="curve" smooth="yes"/>
			<point x="57" y="34"/>
			<point x="42" y="130"/>
			<point x="42" y="257" type="curve"/>
			<point x="34" y="237" type="line"/>
			<point x="34" y="80"/>
			<point x="72" y="-8"/>
		</contour>
		<contour>
			<point x="34" y="237" type="line"/>
			<point x="42" y="237" type="line"/>
			<point x="42" y="500" type="line"/>
			<point x="34" y="500" type="line"/>
		</contour>
		<contour>
			<point x="25" y="532" type="line"/>
			<point x="34" y="532" type="line"/>
			<point x="91" y="700" type="line"/>
			<point x="50" y="700" type="line"/>
		</contour>
		<contour>
			<point x="323" y="140" type="line"/>
			<point x="323" y="700" type="line"/>
			<point x="223" y="700" type="line"/>
			<point x="223" y="152" type="line"/>
		</contour>
		<contour>
			<point x="74" y="692" type="line"/>
			<point x="383" y="692" type="line"/>
			<point x="383" y="700" type="line"/>
			<point x="74" y="700" type="line"/>
		</contour>
	</outline>
</glyph>
<glyph name="K" format="2">
	<advance width="496"/>
	<unicode hex="004B"/>
	<unicode hex="006B"/>
	<anchor x="238" y="700" name="top"/>
	<anchor x="238" y="0" name="bottom"/>
	<outline>
		<contour>
			<point x="340" y="0" type="line"/>
			<point x="441" y="0" type="line"/>
			<point x="253" y="516" type="line"/>
			<point x="191" y="410" type="line"/>
		</contour>
		<contour>
			<point x="142" y="333" type="line"/>
			<point x="152" y="333" type="line"/>
			<point x="362" y="697" type="line"/>
			<point x="352" y="697" type="line"/>
		</contour>
		<contour>
			<point x="271" y="692" type="line"/>
			<point x="431" y="692" type="line"/>
			<point x="431" y="700" type="line"/>
			<point x="271" y="700" type="line"/>
		</contour>
		<component base="_part.stemserifs" xOffset="-20"/>
		<component base="_part.longserif" xOffset="236" yOffset="-692"/>
	</outline>
</glyph>
<glyph name="L" format="2">
	<advance width="383"/>
	<unicode hex="004C"/>
	<unicode hex="006C"/>
	<anchor x="125" y="350" name="center"/>
	<anchor x="125" y="700" name="top"/>
	<anchor x="373" y="700" name="topright"/>
	<anchor x="225" y="0" name="bottom"/>
	<outline>
		<contour>
			<point x="294" y="0" type="line"/>
			<point x="346" y="0" type="line"/>
			<point x="368" y="233" type="line"/>
			<point x="358" y="233" type="line"/>
		</contour>
		<contour>
			<point x="225" y="0" type="line"/>
			<point x="311" y="0" type="line"/>
			<point x="311" y="8" type="line"/>
			<point x="225" y="8" type="line"/>
		</contour>
		<component base="_part.stemserifs" xOffset="-20"/>
		<component base="_part.longserif" xScale="-1" xOffset="280"/>
	</outline>
</glyph>
<glyph name="M" format="2">
	<advance width="552"/>
	<unicode hex="004D"/>
	<unicode hex="006D"/>
	<anchor x="276" y="700" name="top"/>
	<anchor x="276" y="0" name="bottom"/>
	<outline>
		<contour>
			<point x="230" y="-58" type="line"/>
			<point x="276" y="178.5" type="line"/>
			<point x="174" y="700" type="line"/>
			<point x="82" y="700" type="line"/>
		</contour>
		<contour>
			<point x="235" y="3" type="line"/>
			<point x="242" y="3" type="line"/>
			<point x="378" y="700" type="line"/>
			<point x="370" y="700" type="line"/>
		</contour>
		<component base="_part.shortserif" xOffset="337"/>
		<component base="_part.stemthin"/>
		<component base="_part.halfstemright" xOffset="282"/>
	</outline>
</glyph>
<glyph name="N" format="2">
	<advance width="480"/>
	<unicode hex="004E"/>
	<unicode hex="006E"/>
	<guideline x="405" y="201" angle="90"/>
	<guideline x="75" y="500" angle="90"/>
	<anchor x="255" y="700" name="top"/>
	<anchor x="240" y="0" name="bottom"/>
	<outline>
		<contour>
			<point x="405" y="-50" type="line"/>
			<point x="405" y="201" type="line"/>
			<point x="162" y="700" type="line"/>
			<point x="75" y="700" type="line"/>
			<point x="75" y="628" type="line"/>
		</contour>
		<component base="_part.shortserif" xOffset="302"/>
		<component base="_part.stemthin"/>
		<component base="_part.verticalstrokethin" xOffset="322"/>
	</outline>
</glyph>
<glyph name="O" format="2">
	<advance width="480"/>
	<unicode hex="004F"/>
	<unicode hex="006F"/>
	<guideline x="-69" y="-8" angle="0"/>
	<anchor x="240" y="350" name="center"/>
	<anchor x="456" y="10" name="ogonek"/>
	<anchor x="240" y="700" name="top"/>
	<anchor x="490" y="700" name="topright"/>
	<anchor x="-10" y="700" name="topleft"/>
	<anchor x="240" y="0" name="bottom"/>
	<outline>
		<contour>
			<point x="355" y="350" type="curve"/>
			<point x="465" y="350" type="line"/>
			<point x="465" y="526"/>
			<point x="398" y="708"/>
			<point x="240" y="708" type="curve"/>
			<point x="240" y="700" type="line"/>
			<point x="317" y="700"/>
			<point x="355" y="558"/>
		</contour>
		<contour>
			<point x="240" y="-8" type="curve"/>
			<point x="240" y="0" type="line"/>
			<point x="163" y="0"/>
			<point x="125" y="142"/>
			<point x="125" y="350" type="curve"/>
			<point x="15" y="350" type="line"/>
			<point x="15" y="174"/>
			<point x="82" y="-8"/>
		</contour>
		<contour>
			<point x="240" y="0" type="curve"/>
			<point x="240" y="-8" type="line"/>
			<point x="398" y="-8"/>
			<point x="465" y="174"/>
			<point x="465" y="350" type="curve"/>
			<point x="355" y="350" type="line"/>
			<point x="355" y="142"/>
			<point x="317" y="0"/>
		</contour>
		<contour>
			<point x="15" y="350" type="curve"/>
			<point x="125" y="350" type="line"/>
			<point x="125" y="558"/>
			<point x="163" y="700"/>
			<point x="240" y="700" type="curve"/>
			<point x="240" y="708" type="line"/>
			<point x="82" y="708"/>
			<point x="15" y="526"/>
		</contour>
	</outline>
</glyph>
<glyph name="P" format="2">
	<advance width="463"/>
	<unicode hex="0050"/>
	<unicode hex="0070"/>
	<outline>
		<contour>
			<point x="172" y="155" type="line"/>
			<point x="231" y="155" type="line" smooth="yes"/>
			<point x="361" y="155"/>
			<point x="438" y="273"/>
			<point x="438" y="450" type="curve"/>
			<point x="343" y="450" type="line"/>
			<point x="343" y="278"/>
			<point x="289.5" y="163"/>
			<point x="194" y="163" type="curve" smooth="yes"/>
			<point x="172" y="163" type="line"/>
		</contour>
		<contour>
			<point x="343" y="450" type="curve"/>
			<point x="438" y="450" type="line"/>
			<point x="438" y="600"/>
			<point x="361" y="700"/>
			<point x="231" y="700" type="curve" smooth="yes"/>
			<point x="172" y="700" type="line"/>
			<point x="172" y="692" type="line"/>
			<point x="194" y="692" type="line" smooth="yes"/>
			<point x="289.5" y="692"/>
			<point x="343" y="595"/>
		</contour>
		<component base="_part.halfstemleft"/>
		<component base="_part.longserif" xScale="-1" yScale="-1" xOffset="280" yOffset="700"/>
	</outline>
</glyph>
<glyph name="Q" format="2">
	<advance width="480"/>
	<unicode hex="0051"/>
	<unicode hex="0071"/>
	<anchor x="240" y="700" name="top"/>
	<anchor x="240" y="0" name="bottom"/>
	<outline>
		<contour>
			<point x="382" y="-96" type="curve" smooth="yes"/>
			<point x="421" y="-96"/>
			<point x="456" y="-73"/>
			<point x="495" y="-30" type="curve"/>
			<point x="489" y="-24" type="line"/>
			<point x="451" y="-64"/>
			<point x="418" y="-78"/>
			<point x="397" y="-78" type="curve" smooth="yes"/>
			<point x="349.5" y="-78"/>
			<point x="326.5" y="-37"/>
			<point x="282" y="126" type="curve" smooth="yes"/>
			<point x="272" y="163.5"/>
			<point x="250" y="189"/>
			<point x="223" y="189" type="curve" smooth="yes"/>
			<point x="201.5" y="189"/>
			<point x="165.5" y="164.5"/>
			<point x="132.5" y="128" type="curve"/>
			<point x="137.5" y="122" type="line"/>
			<point x="148.5" y="132"/>
			<point x="161.5" y="139"/>
			<point x="170" y="139" type="curve" smooth="yes"/>
			<point x="200" y="139"/>
			<point x="220" y="96"/>
			<point x="243" y="47" type="curve" smooth="yes"/>
			<point x="273.5" y="-19"/>
			<point x="310" y="-96"/>
		</contour>
		<component base="O"/>
	</outline>
</glyph>
<glyph name="R" format="2">
	<advance width="463"/>
	<unicode hex="0052"/>
	<unicode hex="0072"/>
	<anchor x="232" y="700" name="top"/>
	<anchor x="282" y="0" name="bottom"/>
	<outline>
		<contour>
			<point x="457" y="-8" type="curve" smooth="yes"/>
			<point x="480" y="-8"/>
			<point x="500" y="-4"/>
			<point x="508" y="1" type="curve"/>
			<point x="505" y="8" type="line"/>
			<point x="502" y="7"/>
			<point x="497" y="6"/>
			<point x="494" y="6" type="curve" smooth="yes"/>
			<point x="389" y="6"/>
			<point x="415" y="217"/>
			<point x="356" y="317" type="curve" smooth="yes"/>
			<point x="323" y="375"/>
			<point x="249" y="386"/>
			<point x="161" y="386" type="curve"/>
			<point x="161" y="379" type="line"/>
			<point x="377" y="379"/>
			<point x="214" y="-8"/>
		</contour>
		<contour>
			<point x="172" y="386" type="curve"/>
			<point x="172" y="382" type="line"/>
			<point x="347" y="382"/>
			<point x="429" y="468"/>
			<point x="429" y="551" type="curve" smooth="yes"/>
			<point x="429" y="627"/>
			<point x="360" y="700"/>
			<point x="231" y="700" type="curve" smooth="yes"/>
			<point x="172" y="700" type="line"/>
			<point x="172" y="692" type="line"/>
			<point x="194" y="692" type="line" smooth="yes"/>
			<point x="289" y="692"/>
			<point x="334" y="623"/>
			<point x="334" y="550" type="curve" smooth="yes"/>
			<point x="334" y="470"/>
			<point x="279" y="386"/>
		</contour>
		<component base="_part.stemserifs" xOffset="-20"/>
	</outline>
</glyph>
<glyph name="S" format="2">
	<advance width="412"/>
	<unicode hex="0053"/>
	<unicode hex="0073"/>
	<guideline x="-55.5" y="330" angle="0"/>
	<guideline x="204" y="-8" angle="0"/>
	<guideline x="573" y="705" angle="0"/>
	<anchor x="224" y="708" name="top"/>
	<anchor x="200" y="0" name="bottom"/>
	<outline>
		<contour>
			<point x="204" y="-8" type="curve" smooth="yes"/>
			<point x="315" y="-8"/>
			<point x="397" y="73"/>
			<point x="397" y="194" type="curve" smooth="yes"/>
			<point x="397" y="281"/>
			<point x="331" y="344"/>
			<point x="286" y="389" type="curve" smooth="yes"/>
			<point x="241" y="434"/>
			<point x="138" y="508"/>
			<point x="138" y="611" type="curve" smooth="yes"/>
			<point x="138" y="658"/>
			<point x="173" y="700"/>
			<point x="224" y="700" type="curve" smooth="yes"/>
			<point x="310" y="700"/>
			<point x="325" y="609"/>
			<point x="316" y="510" type="curve" smooth="yes"/>
			<point x="313" y="477" type="line"/>
			<point x="319" y="477" type="line"/>
			<point x="386" y="703" type="line"/>
			<point x="378" y="705" type="line"/>
			<point x="368" y="679"/>
			<point x="359" y="667"/>
			<point x="343" y="667" type="curve" smooth="yes"/>
			<point x="320" y="667"/>
			<point x="281" y="708"/>
			<point x="224" y="708" type="curve" smooth="yes"/>
			<point x="125" y="708"/>
			<point x="56" y="632"/>
			<point x="56" y="540" type="curve" smooth="yes"/>
			<point x="56" y="437"/>
			<point x="159" y="363"/>
			<point x="204" y="318" type="curve" smooth="yes"/>
			<point x="249" y="273"/>
			<point x="315" y="210"/>
			<point x="315" y="123" type="curve" smooth="yes"/>
			<point x="315" y="49"/>
			<point x="271" y="0"/>
			<point x="204" y="0" type="curve" smooth="yes"/>
			<point x="68" y="0"/>
			<point x="72.5" y="153.5"/>
			<point x="102.5" y="330" type="curve"/>
			<point x="94" y="331.5" type="line"/>
			<point x="10" y="23.5" type="line"/>
			<point x="18.5" y="23.5" type="line"/>
			<point x="22.5" y="37.5"/>
			<point x="30.5" y="47.5"/>
			<point x="43.5" y="48" type="curve" smooth="yes"/>
			<point x="56" y="48.5"/>
			<point x="71.5" y="37"/>
			<point x="97.5" y="23.5" type="curve" smooth="yes"/>
			<point x="126.5" y="8.5"/>
			<point x="167" y="-8"/>
		</contour>
	</outline>
</glyph>
<glyph name="T" format="2">
	<advance width="430"/>
	<unicode hex="0054"/>
	<unicode hex="0074"/>
	<anchor x="215" y="350" name="center"/>
	<anchor x="215" y="0" name="bottom"/>
	<anchor x="215" y="700" name="top"/>
	<outline>
		<contour>
			<point x="405" y="467" type="line"/>
			<point x="415" y="467" type="line"/>
			<point x="393" y="700" type="line"/>
			<point x="341" y="700" type="line"/>
		</contour>
		<contour>
			<point x="15" y="467" type="line"/>
			<point x="25" y="467" type="line"/>
			<point x="89" y="700" type="line"/>
			<point x="37" y="700" type="line"/>
		</contour>
		<contour>
			<point x="59" y="692" type="line"/>
			<point x="145" y="692" type="line"/>
			<point x="145" y="700" type="line"/>
			<point x="59" y="700" type="line"/>
		</contour>
		<contour>
			<point x="285" y="692" type="line"/>
			<point x="371" y="692" type="line"/>
			<point x="371" y="700" type="line"/>
			<point x="285" y="700" type="line"/>
		</contour>
		<component base="_part.stemserifs" xOffset="70"/>
	</outline>
</glyph>
<glyph name="U" format="2">
	<advance width="454"/>
	<unicode hex="0055"/>
	<unicode hex="0075"/>
	<guideline x="75" y="140" angle="90"/>
	<guideline x="175" y="130" angle="0"/>
	<guideline x="364" y="222" angle="90"/>
	<guideline x="331" y="-8" angle="0"/>
	<anchor x="246" y="-8" name="ogonek"/>
	<anchor x="260" y="700" name="top"/>
	<anchor x="459" y="700" name="topright"/>
	<anchor x="230" y="0" name="bottom"/>
	<outline>
		<contour>
			<point x="246" y="-8" type="curve" smooth="yes"/>
			<point x="356.5" y="-8"/>
			<point x="384" y="57.5"/>
			<point x="384" y="219.5" type="curve"/>
			<point x="376" y="219.5" type="line"/>
			<point x="376" y="82"/>
			<point x="344" y="22.5"/>
			<point x="266.5" y="22.5" type="curve" smooth="yes"/>
			<point x="211.5" y="22.5"/>
			<point x="175" y="50.5"/>
			<point x="175" y="140" type="curve"/>
			<point x="75" y="140" type="line"/>
			<point x="75" y="51"/>
			<point x="136.5" y="-8"/>
		</contour>
		<contour>
			<point x="75" y="140" type="line"/>
			<point x="175" y="140" type="line"/>
			<point x="175" y="700" type="line"/>
			<point x="75" y="700" type="line"/>
		</contour>
		<contour>
			<point x="376" y="219.5" type="line"/>
			<point x="384" y="219.5" type="line"/>
			<point x="384" y="700" type="line"/>
			<point x="376" y="700" type="line"/>
		</contour>
		<component base="_part.longserif" xOffset="-20"/>
		<component base="_part.shortserif" xOffset="281"/>
	</outline>
</glyph>
<glyph name="V" format="2">
	<advance width="455"/>
	<unicode hex="0056"/>
	<unicode hex="0076"/>
	<anchor x="228" y="700" name="top"/>
	<anchor x="228" y="0" name="bottom"/>
	<outline>
		<contour>
			<point x="231" y="-37" type="line"/>
			<point x="283" y="156" type="line"/>
			<point x="137" y="700" type="line"/>
			<point x="33" y="700" type="line"/>
		</contour>
		<contour>
			<point x="231" y="-37" type="line"/>
			<point x="429" y="700" type="line"/>
			<point x="421" y="700" type="line"/>
			<point x="227" y="-22" type="line"/>
		</contour>
		<component base="_part.longserif" xOffset="-60"/>
		<component base="_part.shortserif" xOffset="317"/>
	</outline>
</glyph>
<glyph name="W" format="2">
	<advance width="626"/>
	<unicode hex="0057"/>
	<unicode hex="0077"/>
	<guideline x="283.5" y="-37" angle="0"/>
	<anchor x="322.5" y="700" name="top"/>
	<anchor x="317.5" y="0" name="bottom"/>
	<outline>
		<contour>
			<point x="430.5" y="-37" type="line"/>
			<point x="482" y="187" type="line"/>
			<point x="363" y="700" type="line"/>
			<point x="261" y="700" type="line"/>
		</contour>
		<contour>
			<point x="202.5" y="-37" type="line"/>
			<point x="254" y="187" type="line"/>
			<point x="135" y="700" type="line"/>
			<point x="33" y="700" type="line"/>
		</contour>
		<contour>
			<point x="339" y="595" type="line"/>
			<point x="198.5" y="-14" type="line"/>
			<point x="202.5" y="-37" type="line"/>
			<point x="348" y="595" type="line"/>
		</contour>
		<contour>
			<point x="430.5" y="-37" type="line"/>
			<point x="600" y="700" type="line"/>
			<point x="591.5" y="700" type="line"/>
			<point x="426.5" y="-14" type="line"/>
		</contour>
		<component base="_part.longserif" xOffset="-60"/>
		<component base="_part.shortserif" xOffset="488"/>
		<component base="_part.longserif" xOffset="168"/>
	</outline>
</glyph>
<glyph name="X" format="2">
	<advance width="418"/>
	<unicode hex="0058"/>
	<unicode hex="0078"/>
	<guideline x="-25"/>
	<guideline x="-33" y="692" angle="90"/>
	<guideline x="443"/>
	<anchor x="225" y="700" name="top"/>
	<anchor x="225" y="0" name="bottom"/>
	<outline>
		<contour>
			<point x="282" y="0" type="line"/>
			<point x="383" y="0" type="line"/>
			<point x="128" y="700" type="line"/>
			<point x="27" y="700" type="line"/>
		</contour>
		<contour>
			<point x="30" y="0" type="line"/>
			<point x="39" y="0" type="line"/>
			<point x="209" y="398" type="line"/>
			<point x="200" y="398" type="line"/>
		</contour>
		<contour>
			<point x="183" y="337" type="line"/>
			<point x="192" y="337" type="line"/>
			<point x="347" y="700" type="line"/>
			<point x="338" y="700" type="line"/>
		</contour>
		<component base="_part.shortserif" xOffset="244"/>
		<component base="_part.shortserif" xOffset="-60" yOffset="-692"/>
		<component base="_part.longserif" xOffset="-60"/>
		<component base="_part.longserif" xOffset="188" yOffset="-692"/>
	</outline>
</glyph>
<glyph name="Y" format="2">
	<advance width="390"/>
	<unicode hex="0059"/>
	<unicode hex="0079"/>
	<anchor x="225" y="700" name="top"/>
	<anchor x="195" y="0" name="bottom"/>
	<anchor x="-10" y="700" name="topleft"/>
	<outline>
		<contour>
			<point x="148" y="202" type="line"/>
			<point x="247" y="217.5" type="line"/>
			<point x="135.5" y="700" type="line"/>
			<point x="33" y="700" type="line"/>
		</contour>
		<contour>
			<point x="146.5" y="0" type="line"/>
			<point x="246.5" y="0" type="line"/>
			<point x="246.5" y="217.5" type="line"/>
			<point x="146.5" y="217.5" type="line"/>
		</contour>
		<contour>
			<point x="243.5" y="202" type="line"/>
			<point x="358.5" y="700" type="line"/>
			<point x="350" y="700" type="line"/>
			<point x="238.5" y="217.5" type="line"/>
		</contour>
		<component base="_part.longserif" xOffset="-60"/>
		<component base="_part.longserif" xScale="-1" yScale="-1" xOffset="341.500" yOffset="700"/>
		<component base="_part.shortserif" xOffset="252"/>
	</outline>
</glyph>
<glyph name="Z" format="2">
	<advance width="404"/>
	<unicode hex="005A"/>
	<unicode hex="007A"/>
	<anchor x="202" y="350" name="center"/>
	<anchor x="202" y="0" name="bottom"/>
	<anchor x="202" y="700" name="top"/>
	<outline>
		<contour>
			<point x="15" y="0" type="line"/>
			<point x="116" y="0" type="line"/>
			<point x="371" y="700" type="line"/>
			<point x="270" y="700" type="line"/>
		</contour>
		<contour>
			<point x="81" y="0" type="line"/>
			<point x="317" y="0" type="line"/>
			<point x="317" y="8" type="line"/>
			<point x="81" y="8" type="line"/>
		</contour>
		<contour>
			<point x="293" y="0" type="line"/>
			<point x="334" y="0" type="line"/>
			<point x="389" y="168" type="line"/>
			<point x="380" y="168" type="line"/>
		</contour>
		<contour>
			<point x="32" y="532" type="line"/>
			<point x="41" y="532" type="line"/>
			<point x="98" y="700" type="line"/>
			<point x="57" y="700" type="line"/>
		</contour>
		<contour>
			<point x="64" y="692" type="line"/>
			<point x="291" y="692" type="line"/>
			<point x="291" y="700" type="line"/>
			<point x="64" y="700" type="line"/>
		</contour>
	</outline>
</glyph>
<glyph name="bracketleft" format="2">
	<advance width="200"/>
	<unicode hex="005B"/>
	<outline>
		<contour>
			<point x="25" y="-50" type="line"/>
			<point x="105" y="-50" type="line"/>
			<point x="105" y="700" type="line"/>
			<point x="25" y="700" type="line"/>
		</contour>
		<contour>
			<point x="25" y="-50" type="line"/>
			<point x="185" y="-50" type="line"/>
			<point x="185" y="-38" type="line"/>
			<point x="25" y="-38" type="line"/>
		</contour>
		<contour>
			<point x="25" y="688" type="line"/>
			<point x="185" y="688" type="line"/>
			<point x="185" y="700" type="line"/>
			<point x="25" y="700" type="line"/>
		</contour>
	</outline>
</glyph>
<glyph name="asciicircum" format="2">
	<advance width="232.5"/>
	<unicode hex="005E"/>
	<outline>
		<contour>
			<point x="33" y="495" type="line"/>
			<point x="124" y="645.5" type="line"/>
			<point x="199.5" y="495" type="line"/>
			<point x="207.5" y="500" type="line"/>
			<point x="124" y="758.5" type="line"/>
			<point x="25" y="500" type="line"/>
		</contour>
	</outline>
</glyph>
<glyph name="underscore" format="2">
	<advance width="370"/>
	<unicode hex="005F"/>
	<outline>
		<contour>
			<point x="35" y="-27" type="line"/>
			<point x="335" y="-27" type="line"/>
			<point x="335" y="-15" type="line"/>
			<point x="35" y="-15" type="line"/>
		</contour>
	</outline>
</glyph>
<glyph name="braceleft" format="2">
	<advance width="255"/>
	<unicode hex="007B"/>
	<outline>
		<contour>
			<point x="70" y="550" type="curve"/>
			<point x="160" y="550" type="line"/>
			<point x="160" y="683.5"/>
			<point x="169.5" y="745"/>
			<point x="245" y="745.5" type="curve"/>
			<point x="245" y="753.5" type="line"/>
			<point x="105" y="754"/>
			<point x="70" y="684"/>
		</contour>
		<contour>
			<point x="245" y="-52.5" type="curve"/>
			<point x="245" y="-44.5" type="line"/>
			<point x="169.5" y="-44"/>
			<point x="160" y="17.5"/>
			<point x="160" y="151" type="curve"/>
			<point x="70" y="151" type="line"/>
			<point x="70" y="17"/>
			<point x="105" y="-53"/>
		</contour>
		<contour>
			<point x="70" y="151" type="curve"/>
			<point x="160" y="151" type="line"/>
			<point x="160" y="314.5"/>
			<point x="85" y="355"/>
			<point x="10" y="354.5" type="curve"/>
			<point x="10" y="346.5" type="line"/>
			<point x="58" y="346"/>
			<point x="70" y="307"/>
		</contour>
		<contour>
			<point x="10" y="354.5" type="curve"/>
			<point x="10" y="346.5" type="line"/>
			<point x="85" y="346"/>
			<point x="160" y="386.5"/>
			<point x="160" y="550" type="curve"/>
			<point x="70" y="550" type="line"/>
			<point x="70" y="394"/>
			<point x="58" y="355"/>
		</contour>
	</outline>
</glyph>
<glyph name="yen" format="2">
	<advance width="416"/>
	<unicode hex="00A5"/>
	<outline>
		<contour>
			<point x="161" y="252" type="line"/>
			<point x="260" y="267.5" type="line"/>
			<point x="165.5" y="700" type="line"/>
			<point x="63" y="700" type="line"/>
		</contour>
		<contour>
			<point x="52.5" y="110.5" type="line"/>
			<point x="367.5" y="110.5" type="line"/>
			<point x="367.5" y="118.5" type="line"/>
			<point x="52.5" y="118.5" type="line"/>
		</contour>
		<contour>
			<point x="160" y="0" type="line"/>
			<point x="260" y="0" type="line"/>
			<point x="260" y="267.5" type="line"/>
			<point x="160" y="267.5" type="line"/>
		</contour>
		<contour>
			<point x="52.5" y="187.5" type="line"/>
			<point x="367.5" y="187.5" type="line"/>
			<point x="367.5" y="195.5" type="line"/>
			<point x="52.5" y="195.5" type="line"/>
		</contour>
		<contour>
			<point x="257" y="252" type="line"/>
			<point x="355" y="700" type="line"/>
			<point x="346.5" y="700" type="line"/>
			<point x="252" y="267.5" type="line"/>
		</contour>
		<contour>
			<point x="283" y="692" type="line"/>
			<point x="411" y="692" type="line"/>
			<point x="411" y="700" type="line"/>
			<point x="283" y="700" type="line"/>
		</contour>
		<component base="_part.longserif" xOffset="-30"/>
		<component base="_part.longserif" xScale="-1" yScale="-1" xOffset="355" yOffset="700"/>
	</outline>
</glyph>
<glyph name="copyright" format="2">
	<advance width="805"/>
	<unicode hex="00A9"/>
	<outline>
		<contour>
			<point x="402.5" y="-17.5" type="curve" smooth="yes"/>
			<point x="605.5" y="-17.5"/>
			<point x="770" y="147"/>
			<point x="770" y="350" type="curve" smooth="yes"/>
			<point x="770" y="553"/>
			<point x="605.5" y="717.5"/>
			<point x="402.5" y="717.5" type="curve" smooth="yes"/>
			<point x="199.5" y="717.5"/>
			<point x="35" y="553"/>
			<point x="35" y="350" type="curve" smooth="yes"/>
			<point x="35" y="147"/>
			<point x="199.5" y="-17.5"/>
		</contour>
		<contour>
			<point x="402.5" y="10" type="curve" smooth="yes"/>
			<point x="215" y="10"/>
			<point x="62.5" y="162.5"/>
			<point x="62.5" y="350" type="curve" smooth="yes"/>
			<point x="62.5" y="537.5"/>
			<point x="215" y="690"/>
			<point x="402.5" y="690" type="curve" smooth="yes"/>
			<point x="590" y="690"/>
			<point x="742.5" y="537.5"/>
			<point x="742.5" y="350" type="curve" smooth="yes"/>
			<point x="742.5" y="162.5"/>
			<point x="590" y="10"/>
		</contour>
		<component base="C" xScale="0.7692" yScale="0.7692" xOffset="225.961" yOffset="81"/>
	</outline>
</glyph>
<glyph name="guillemotleft" format="2">
	<advance width="282.5"/>
	<unicode hex="00AB"/>
	<outline>
		<contour>
			<point x="177" y="319.5" type="line"/>
			<point x="201" y="319.5"/>
			<point x="233" y="356.5"/>
			<point x="257.5" y="412.5" type="curve"/>
			<point x="249.5" y="417.5" type="line"/>
			<point x="222.5" y="374"/>
			<point x="181.5" y="337.5"/>
			<point x="125" y="326" type="curve"/>
			<point x="125" y="320" type="line"/>
		</contour>
		<contour>
			<point x="149.5" y="228.5" type="curve"/>
			<point x="157.5" y="233.5" type="line"/>
			<point x="133" y="289.5"/>
			<point x="101" y="326.5"/>
			<point x="77" y="326.5" type="curve"/>
			<point x="25" y="326" type="line"/>
			<point x="25" y="320" type="line"/>
			<point x="82" y="308.5"/>
			<point x="122.5" y="271.5"/>
		</contour>
		<contour>
			<point x="77" y="319.5" type="line"/>
			<point x="101" y="319.5"/>
			<point x="133" y="356.5"/>
			<point x="157.5" y="412.5" type="curve"/>
			<point x="149.5" y="417.5" type="line"/>
			<point x="122.5" y="374"/>
			<point x="81.5" y="337.5"/>
			<point x="25" y="326" type="curve"/>
			<point x="25" y="320" type="line"/>
		</contour>
		<contour>
			<point x="249.5" y="228.5" type="curve"/>
			<point x="257.5" y="233.5" type="line"/>
			<point x="233" y="289.5"/>
			<point x="201" y="326.5"/>
			<point x="177" y="326.5" type="curve"/>
			<point x="125" y="326" type="line"/>
			<point x="125" y="320" type="line"/>
			<point x="182" y="308.5"/>
			<point x="222.5" y="271.5"/>
		</contour>
	</outline>
</glyph>
<glyph name="AE" format="2">
	<advance width="585"/>
	<unicode hex="00C6"/>
	<unicode hex="00E6"/>
	<outline>
		<contour>
			<point x="23.5" y="0" type="line"/>
			<point x="32" y="0" type="line"/>
			<point x="287" y="700" type="line"/>
			<point x="278.5" y="700" type="line"/>
		</contour>
		<contour>
			<point x="-25" y="0" type="line"/>
			<point x="103" y="0" type="line"/>
			<point x="103" y="8" type="line"/>
			<point x="-25" y="8" type="line"/>
		</contour>
		<contour>
			<point x="60.5" y="99" type="line"/>
			<point x="144.5" y="99" type="line"/>
			<point x="102.5" y="214.5" type="line"/>
		</contour>
		<contour>
			<point x="67.5" y="99" type="line"/>
			<point x="317.5" y="99" type="line"/>
			<point x="317.5" y="107" type="line"/>
			<point x="67.5" y="107" type="line"/>
		</contour>
		<contour>
			<point x="479" y="0" type="line"/>
			<point x="520" y="0" type="line"/>
			<point x="575" y="168" type="line"/>
			<point x="566" y="168" type="line"/>
		</contour>
		<contour>
			<point x="477" y="303" type="line"/>
			<point x="487" y="303" type="line"/>
			<point x="487" y="421" type="line"/>
			<point x="459" y="421" type="line"/>
		</contour>
		<contour>
			<point x="287" y="0" type="line"/>
			<point x="387" y="0" type="line"/>
			<point x="387" y="700" type="line"/>
			<point x="287" y="700" type="line"/>
		</contour>
		<contour>
			<point x="377" y="413" type="line"/>
			<point x="487" y="413" type="line"/>
			<point x="487" y="421" type="line"/>
			<point x="377" y="421" type="line"/>
		</contour>
		<contour>
			<point x="459" y="413" type="line"/>
			<point x="487" y="413" type="line"/>
			<point x="487" y="531" type="line"/>
			<point x="477" y="531" type="line"/>
		</contour>
		<contour>
			<point x="197.5" y="692" type="line"/>
			<point x="357.5" y="692" type="line"/>
			<point x="357.5" y="700" type="line"/>
			<point x="197.5" y="700" type="line"/>
		</contour>
		<contour>
			<point x="536" y="532" type="line"/>
			<point x="545" y="532" type="line"/>
			<point x="520" y="700" type="line"/>
			<point x="479" y="700" type="line"/>
		</contour>
		<contour>
			<point x="387" y="692" type="line"/>
			<point x="513" y="692" type="line"/>
			<point x="513" y="700" type="line"/>
			<point x="387" y="700" type="line"/>
		</contour>
		<contour>
			<point x="227" y="0" type="line"/>
			<point x="503" y="0" type="line"/>
			<point x="503" y="8" type="line"/>
			<point x="227" y="8" type="line"/>
		</contour>
	</outline>
</glyph>
<glyph name="Eth" format="2">
	<advance width="555"/>
	<unicode hex="00D0"/>
	<unicode hex="00F0"/>
	<outline>
		<contour>
			<point x="430" y="350" type="curve"/>
			<point x="540" y="350" type="line"/>
			<point x="540" y="526"/>
			<point x="423" y="700"/>
			<point x="210" y="700" type="curve"/>
			<point x="153.5" y="700" type="line"/>
			<point x="153.5" y="692" type="line"/>
			<point x="210" y="692" type="line"/>
			<point x="342" y="692"/>
			<point x="430" y="558"/>
		</contour>
		<contour>
			<point x="153.5" y="0" type="line"/>
			<point x="210" y="0" type="line"/>
			<point x="423" y="0"/>
			<point x="540" y="184"/>
			<point x="540" y="350" type="curve"/>
			<point x="430" y="350" type="line"/>
			<point x="430" y="152"/>
			<point x="342" y="8"/>
			<point x="210" y="8" type="curve"/>
			<point x="153.5" y="8" type="line"/>
		</contour>
		<component base="_part.stem" xOffset="-20"/>
		<component base="_part.shortserif" xOffset="-20"/>
		<component base="_part.shortserif" xOffset="-20" yOffset="-692"/>
		<component base="_part.wavestrokehorizontal" xOffset="115"/>
	</outline>
</glyph>
<glyph name="Oslash" format="2">
	<advance width="480"/>
	<unicode hex="00D8"/>
	<unicode hex="00F8"/>
	<outline>
		<contour>
			<point x="60.5" y="-50" type="line"/>
			<point x="69.5" y="-50" type="line"/>
			<point x="419.5" y="750" type="line"/>
			<point x="410.5" y="750" type="line"/>
		</contour>
		<component base="O"/>
	</outline>
</glyph>
<glyph name="Thorn" format="2">
	<advance width="463"/>
	<unicode hex="00DE"/>
	<unicode hex="00FE"/>
	<anchor x="227" y="700" name="top"/>
	<anchor x="227" y="0" name="bottom"/>
	<outline>
		<contour>
			<point x="353" y="350" type="curve"/>
			<point x="448" y="350" type="line"/>
			<point x="448" y="480"/>
			<point x="359" y="550"/>
			<point x="231" y="550" type="curve" smooth="yes"/>
			<point x="172" y="550" type="line"/>
			<point x="172" y="542" type="line"/>
			<point x="194" y="542" type="line" smooth="yes"/>
			<point x="281" y="542"/>
			<point x="353" y="488"/>
		</contour>
		<contour>
			<point x="172" y="155" type="line"/>
			<point x="231" y="155" type="line" smooth="yes"/>
			<point x="359" y="155"/>
			<point x="448" y="227"/>
			<point x="448" y="350" type="curve"/>
			<point x="353" y="350" type="line"/>
			<point x="353" y="232"/>
			<point x="289" y="163"/>
			<point x="194" y="163" type="curve" smooth="yes"/>
			<point x="172" y="163" type="line"/>
		</contour>
		<component base="_part.stemserifs" xOffset="-20"/>
	</outline>
</glyph>
<glyph name="Hbar" format="2">
	<advance width="540"/>
	<unicode hex="0126"/>
	<unicode hex="0127"/>
	<outline>
		<contour>
			<point x="23" y="557" type="line"/>
			<point x="503" y="557" type="line"/>
			<point x="503" y="565" type="line"/>
			<point x="23" y="565" type="line"/>
		</contour>
		<component base="H"/>
	</outline>
</glyph>
<glyph name="IJ" format="2">
	<advance width="629"/>
	<unicode hex="0132"/>
	<unicode hex="0133"/>
	<outline>
		<contour>
			<point x="274.5" y="500" type="line"/>
			<point x="270" y="500" type="line"/>
			<point x="5" y="315" type="line"/>
			<point x="19.5" y="315" type="line"/>
			<point x="274.5" y="493" type="line"/>
		</contour>
		<component base="I" xOffset="1"/>
		<component base="J" xOffset="236"/>
	</outline>
</glyph>
<glyph name="Lslash" format="2">
	<advance width="383"/>
	<unicode hex="0141"/>
	<unicode hex="0142"/>
	<outline>
		<contour>
			<point x="29" y="329.5" type="line"/>
			<point x="271.5" y="469.5" type="line"/>
			<point x="267.5" y="476.5" type="line"/>
			<point x="25" y="336.5" type="line"/>
		</contour>
		<component base="L"/>
	</outline>
</glyph>
<glyph name="Eng" format="2">
	<advance width="480"/>
	<unicode hex="014A"/>
	<unicode hex="014B"/>
	<guideline x="62.5" y="-177.5" angle="0"/>
	<anchor x="260" y="700" name="top"/>
	<anchor x="240" y="0" name="bottom"/>
	<outline>
		<contour>
			<point x="405" y="-50" type="line"/>
			<point x="405" y="201" type="line"/>
			<point x="162" y="700" type="line"/>
			<point x="75" y="700" type="line"/>
			<point x="75" y="628" type="line"/>
		</contour>
		<contour>
			<point x="358.5" y="-177.5" type="curve" smooth="yes"/>
			<point x="386.5" y="-177.5"/>
			<point x="405" y="-133.5"/>
			<point x="405" y="-67" type="curve" smooth="yes"/>
			<point x="405" y="0" type="line"/>
			<point x="397" y="0" type="line"/>
			<point x="397" y="-67" type="line" smooth="yes"/>
			<point x="397" y="-103.5"/>
			<point x="384.5" y="-127.5"/>
			<point x="365.5" y="-127.5" type="curve" smooth="yes"/>
			<point x="344.5" y="-127.5"/>
			<point x="322.5" y="-101.5"/>
			<point x="310.5" y="-63" type="curve"/>
			<point x="304.5" y="-67.5" type="line"/>
			<point x="308" y="-133.5"/>
			<point x="329.5" y="-177.5"/>
		</contour>
		<component base="_part.shortserif" xOffset="302"/>
		<component base="_part.stemthin"/>
		<component base="_part.verticalstrokethin" xOffset="322"/>
	</outline>
</glyph>
<glyph name="OE" format="2">
	<advance width="578"/>
	<unicode hex="0152"/>
	<unicode hex="0153"/>
	<outline>
		<contour>
			<point x="15" y="350" type="curve"/>
			<point x="125" y="350" type="line"/>
			<point x="125" y="558"/>
			<point x="163" y="692"/>
			<point x="290" y="692" type="curve"/>
			<point x="290" y="700" type="line"/>
			<point x="82" y="700"/>
			<point x="15" y="526"/>
		</contour>
		<contour>
			<point x="290" y="0" type="curve"/>
			<point x="290" y="8" type="line"/>
			<point x="163" y="8"/>
			<point x="125" y="142"/>
			<point x="125" y="350" type="curve"/>
			<point x="15" y="350" type="line"/>
			<point x="15" y="174"/>
			<point x="82" y="0"/>
		</contour>
		<contour>
			<point x="360" y="0" type="line"/>
			<point x="496" y="0" type="line"/>
			<point x="496" y="8" type="line"/>
			<point x="360" y="8" type="line"/>
		</contour>
		<contour>
			<point x="472" y="0" type="line"/>
			<point x="513" y="0" type="line"/>
			<point x="568" y="168" type="line"/>
			<point x="559" y="168" type="line"/>
		</contour>
		<contour>
			<point x="280" y="0" type="line"/>
			<point x="380" y="0" type="line"/>
			<point x="380" y="700" type="line"/>
			<point x="280" y="700" type="line"/>
		</contour>
		<contour>
			<point x="470" y="303" type="line"/>
			<point x="480" y="303" type="line"/>
			<point x="480" y="421" type="line"/>
			<point x="452" y="421" type="line"/>
		</contour>
		<contour>
			<point x="370" y="413" type="line"/>
			<point x="480" y="413" type="line"/>
			<point x="480" y="421" type="line"/>
			<point x="370" y="421" type="line"/>
		</contour>
		<contour>
			<point x="452" y="413" type="line"/>
			<point x="480" y="413" type="line"/>
			<point x="480" y="531" type="line"/>
			<point x="470" y="531" type="line"/>
		</contour>
		<contour>
			<point x="529" y="532" type="line"/>
			<point x="538" y="532" type="line"/>
			<point x="513" y="700" type="line"/>
			<point x="472" y="700" type="line"/>
		</contour>
		<contour>
			<point x="380" y="692" type="line"/>
			<point x="506" y="692" type="line"/>
			<point x="506" y="700" type="line"/>
			<point x="380" y="700" type="line"/>
		</contour>
	</outline>
</glyph>
<glyph name="Tbar" format="2">
	<advance width="430"/>
	<unicode hex="0166"/>
	<unicode hex="0167"/>
	<outline>
		<contour>
			<point x="75" y="333" type="line"/>
			<point x="355" y="333" type="line"/>
			<point x="355" y="341" type="line"/>
			<point x="75" y="341" type="line"/>
		</contour>
		<component base="T"/>
	</outline>
</glyph>
<glyph name="acutecomb" format="2">
	<advance width="0"/>
	<unicode hex="0301"/>
	<anchor x="-120" y="850" name="top"/>
	<anchor x="-120" y="700" name="_top"/>
	<outline>
		<contour>
			<point x="-118.5" y="744" type="line"/>
			<point x="-110.5" y="744" type="line"/>
			<point x="-25" y="850" type="line"/>
			<point x="-90" y="850" type="line"/>
		</contour>
	</outline>
</glyph>
<glyph name="uni0302" format="2">
	<advance width="0"/>
	<unicode hex="0302"/>
	<anchor x="-108.5" y="858.5" name="top"/>
	<anchor x="-116" y="700" name="_top"/>
	<outline>
		<contour>
			<point x="-202" y="744" type="line"/>
			<point x="-108.5" y="795.5" type="line"/>
			<point x="-30.5" y="744" type="line"/>
			<point x="-25" y="750" type="line"/>
			<point x="-108.5" y="858.5" type="line"/>
			<point x="-207.5" y="750" type="line"/>
		</contour>
	</outline>
</glyph>
<glyph name="tildecomb" format="2">
	<advance width="0"/>
	<unicode hex="0303"/>
	<anchor x="-155.5" y="828.5" name="top"/>
	<anchor x="-155.5" y="700" name="_top"/>
	<outline>
		<contour>
			<point x="-125.5" y="754.5" type="curve" smooth="yes"/>
			<point x="-90.5" y="754.5"/>
			<point x="-50" y="783"/>
			<point x="-25" y="825.5" type="curve"/>
			<point x="-32" y="830.5" type="line"/>
			<point x="-54" y="808"/>
			<point x="-74.5" y="798.5"/>
			<point x="-96.5" y="798.5" type="curve" smooth="yes"/>
			<point x="-138" y="798.5"/>
			<point x="-162" y="829"/>
			<point x="-203" y="829" type="curve" smooth="yes"/>
			<point x="-230" y="829"/>
			<point x="-261.5" y="806"/>
			<point x="-282" y="771" type="curve"/>
			<point x="-275" y="766" type="line"/>
			<point x="-258.5" y="786"/>
			<point x="-244.5" y="793"/>
			<point x="-230.5" y="793" type="curve" smooth="yes"/>
			<point x="-201.5" y="793"/>
			<point x="-166" y="754.5"/>
		</contour>
	</outline>
</glyph>
<glyph name="uni0304" format="2">
	<advance width="0"/>
	<unicode hex="0304"/>
	<anchor x="-150" y="800" name="top"/>
	<anchor x="-150" y="700" name="_top"/>
	<outline>
		<contour>
			<point x="-275" y="782" type="line"/>
			<point x="-25" y="782" type="line"/>
			<point x="-25" y="800" type="line"/>
			<point x="-275" y="800" type="line"/>
		</contour>
	</outline>
</glyph>
<glyph name="uni0306" format="2">
	<advance width="0"/>
	<unicode hex="0306"/>
	<guideline x="58" y="744" angle="0"/>
	<anchor x="-116" y="853" name="top"/>
	<anchor x="-116" y="700" name="_top"/>
	<outline>
		<contour>
			<point x="-124" y="750" type="curve" smooth="yes"/>
			<point x="-60.5" y="750"/>
			<point x="-25" y="789"/>
			<point x="-25" y="853" type="curve"/>
			<point x="-30.5" y="853" type="line"/>
			<point x="-30.5" y="823.5"/>
			<point x="-68" y="800"/>
			<point x="-124" y="800" type="curve" smooth="yes"/>
			<point x="-171" y="800"/>
			<point x="-202" y="823.5"/>
			<point x="-202" y="853" type="curve"/>
			<point x="-207.5" y="853" type="line"/>
			<point x="-207.5" y="789"/>
			<point x="-177.5" y="750"/>
		</contour>
	</outline>
</glyph>
<glyph name="uni0307" format="2">
	<advance width="0"/>
	<unicode hex="0307"/>
	<anchor x="-64.5" y="700" name="_top"/>
	<outline>
		<contour>
			<point x="-65" y="761.5" type="curve" smooth="yes"/>
			<point x="-37" y="761.5"/>
			<point x="-14" y="784.5"/>
			<point x="-14" y="812.5" type="curve" smooth="yes"/>
			<point x="-14" y="840.5"/>
			<point x="-37" y="863.5"/>
			<point x="-65" y="863.5" type="curve" smooth="yes"/>
			<point x="-92.5" y="863.5"/>
			<point x="-116" y="840.5"/>
			<point x="-116" y="812.5" type="curve" smooth="yes"/>
			<point x="-116" y="784.5"/>
			<point x="-92.5" y="761.5"/>
		</contour>
	</outline>
</glyph>
<glyph name="uni0308" format="2">
	<advance width="0"/>
	<unicode hex="0308"/>
	<anchor x="-147.5" y="825" name="top"/>
	<anchor x="-147.5" y="700" name="_top"/>
	<outline>
		<contour>
			<point x="-62.5" y="750" type="curve" smooth="yes"/>
			<point x="-42" y="750"/>
			<point x="-25" y="767"/>
			<point x="-25" y="787.5" type="curve" smooth="yes"/>
			<point x="-25" y="808"/>
			<point x="-42" y="825"/>
			<point x="-62.5" y="825" type="curve" smooth="yes"/>
			<point x="-83" y="825"/>
			<point x="-100" y="808"/>
			<point x="-100" y="787.5" type="curve" smooth="yes"/>
			<point x="-100" y="767"/>
			<point x="-83" y="750"/>
		</contour>
		<contour>
			<point x="-232.5" y="750" type="curve" smooth="yes"/>
			<point x="-212" y="750"/>
			<point x="-195" y="767"/>
			<point x="-195" y="787.5" type="curve" smooth="yes"/>
			<point x="-195" y="808"/>
			<point x="-212" y="825"/>
			<point x="-232.5" y="825" type="curve" smooth="yes"/>
			<point x="-253" y="825"/>
			<point x="-270" y="808"/>
			<point x="-270" y="787.5" type="curve" smooth="yes"/>
			<point x="-270" y="767"/>
			<point x="-253" y="750"/>
		</contour>
	</outline>
</glyph>
<glyph name="uni030A" format="2">
	<advance width="0"/>
	<unicode hex="030A"/>
	<guideline x="-17" y="744" angle="0"/>
	<anchor x="-75" y="844" name="top"/>
	<anchor x="-75" y="700" name="_top"/>
	<outline>
		<contour>
			<point x="-75" y="744" type="curve" smooth="yes"/>
			<point x="-47.5" y="744"/>
			<point x="-25" y="766.5"/>
			<point x="-25" y="794" type="curve" smooth="yes"/>
			<point x="-25" y="821.5"/>
			<point x="-47.5" y="844"/>
			<point x="-75" y="844" type="curve" smooth="yes"/>
			<point x="-102" y="844"/>
			<point x="-125" y="821.5"/>
			<point x="-125" y="794" type="curve" smooth="yes"/>
			<point x="-125" y="766.5"/>
			<point x="-102" y="744"/>
		</contour>
		<contour>
			<point x="-75" y="768.5" type="curve" smooth="yes"/>
			<point x="-88.5" y="768.5"/>
			<point x="-100.5" y="780"/>
			<point x="-100.5" y="794" type="curve" smooth="yes"/>
			<point x="-100.5" y="808"/>
			<point x="-88.5" y="819.5"/>
			<point x="-75" y="819.5" type="curve" smooth="yes"/>
			<point x="-61" y="819.5"/>
			<point x="-49.5" y="808"/>
			<point x="-49.5" y="794" type="curve" smooth="yes"/>
			<point x="-49.5" y="780"/>
			<point x="-61" y="768.5"/>
		</contour>
	</outline>
</glyph>
<glyph name="uni030B" format="2">
	<advance width="0"/>
	<unicode hex="030B"/>
	<anchor x="-120" y="875.5" name="top"/>
	<anchor x="-137.5" y="700" name="_top"/>
	<outline>
		<contour>
			<point x="-94.5" y="744" type="line"/>
			<point x="-86.5" y="744" type="line"/>
			<point x="-35" y="875.5" type="line"/>
			<point x="-85" y="875.5" type="line"/>
		</contour>
		<contour>
			<point x="-189.5" y="744" type="line"/>
			<point x="-181.5" y="744" type="line"/>
			<point x="-130" y="875.5" type="line"/>
			<point x="-180" y="875.5" type="line"/>
		</contour>
	</outline>
</glyph>
<glyph name="uni030C" format="2">
	<advance width="0"/>
	<unicode hex="030C"/>
	<guideline x="116.5" y="700" angle="90"/>
	<anchor x="-116" y="858.5" name="top"/>
	<anchor x="-116" y="700" name="_top"/>
	<outline>
		<contour>
			<point x="-116" y="744" type="line"/>
			<point x="-17" y="852.5" type="line"/>
			<point x="-22.5" y="858.5" type="line"/>
			<point x="-116" y="807" type="line"/>
			<point x="-194" y="858.5" type="line"/>
			<point x="-199.5" y="852.5" type="line"/>
		</contour>
	</outline>
</glyph>
<glyph name="uni0327" format="2">
	<advance width="0"/>
	<unicode hex="0327"/>
	<anchor x="-85" y="0" name="_bottom"/>
	<anchor x="-85" y="-180" name="bottom"/>
	<outline>
		<contour>
			<point x="-85" y="-180" type="curve" smooth="yes"/>
			<point x="-45.5" y="-180"/>
			<point x="-25" y="-146"/>
			<point x="-25" y="-113" type="curve" smooth="yes"/>
			<point x="-25" y="-83"/>
			<point x="-43" y="-53.5"/>
			<point x="-77.5" y="-53.5" type="curve" smooth="yes"/>
			<point x="-89" y="-53.5"/>
			<point x="-100" y="-59"/>
			<point x="-109" y="-73" type="curve"/>
			<point x="-107" y="-73" type="line"/>
			<point x="-67" y="5" type="line"/>
			<point x="-100" y="5" type="line"/>
			<point x="-120" y="-86" type="line"/>
			<point x="-112.5" y="-89" type="line"/>
			<point x="-107" y="-78"/>
			<point x="-100" y="-73.5"/>
			<point x="-93" y="-73.5" type="curve" smooth="yes"/>
			<point x="-75.5" y="-73.5"/>
			<point x="-65" y="-95"/>
			<point x="-65" y="-116.5" type="curve" smooth="yes"/>
			<point x="-65" y="-138"/>
			<point x="-75.5" y="-160"/>
			<point x="-99" y="-160" type="curve" smooth="yes"/>
			<point x="-113" y="-160"/>
			<point x="-124" y="-153"/>
			<point x="-129" y="-138" type="curve"/>
			<point x="-136" y="-142" type="line"/>
			<point x="-127" y="-168"/>
			<point x="-106" y="-180"/>
		</contour>
	</outline>
</glyph>
<glyph name="uni0328" format="2">
	<advance width="0"/>
	<unicode hex="0328"/>
	<anchor x="-82" y="0" name="_ogonek"/>
	<outline>
		<contour>
			<point x="-92.5" y="-177.5" type="curve" smooth="yes"/>
			<point x="-52.5" y="-177.5"/>
			<point x="-24" y="-133.5"/>
			<point x="-20" y="-67.5" type="curve"/>
			<point x="-26" y="-63" type="line"/>
			<point x="-36.5" y="-107"/>
			<point x="-60" y="-136.5"/>
			<point x="-85" y="-136.5" type="curve" smooth="yes"/>
			<point x="-103" y="-136.5"/>
			<point x="-112" y="-119"/>
			<point x="-112" y="-95" type="curve" smooth="yes"/>
			<point x="-112" y="-65.5"/>
			<point x="-98.5" y="-26"/>
			<point x="-72.5" y="0" type="curve"/>
			<point x="-72.5" y="5" type="line"/>
			<point x="-82" y="5" type="line"/>
			<point x="-82" y="0" type="line"/>
			<point x="-118.5" y="-28.5"/>
			<point x="-143" y="-78.5"/>
			<point x="-143" y="-117.5" type="curve" smooth="yes"/>
			<point x="-143" y="-153.5"/>
			<point x="-123" y="-177.5"/>
		</contour>
	</outline>
</glyph>
<glyph name="uni1E9E" format="2">
	<advance width="546.5"/>
	<unicode hex="1E9E"/>
	<unicode hex="00DF"/>
	<outline>
		<contour>
			<point x="381.5" y="-5" type="curve" smooth="yes"/>
			<point x="465.5" y="-5"/>
			<point x="521.5" y="51"/>
			<point x="521.5" y="134.5" type="curve" smooth="yes"/>
			<point x="521.5" y="180.5"/>
			<point x="504" y="223"/>
			<point x="434" y="272.5" type="curve" smooth="yes"/>
			<point x="402.5" y="294.5"/>
			<point x="394.5" y="309"/>
			<point x="394.5" y="344.5" type="curve" smooth="yes"/>
			<point x="394.5" y="402"/>
			<point x="451.5" y="500"/>
			<point x="451.5" y="578" type="curve" smooth="yes"/>
			<point x="451.5" y="656"/>
			<point x="390.5" y="708"/>
			<point x="299" y="708" type="curve" smooth="yes"/>
			<point x="158.5" y="708"/>
			<point x="65" y="636"/>
			<point x="65" y="548.5" type="curve"/>
			<point x="165" y="551.5" type="line"/>
			<point x="166" y="610.5"/>
			<point x="193.5" y="700"/>
			<point x="299" y="700" type="curve" smooth="yes"/>
			<point x="360" y="700"/>
			<point x="400.5" y="672.5"/>
			<point x="400.5" y="631" type="curve" smooth="yes"/>
			<point x="400.5" y="591.5"/>
			<point x="377.5" y="556.5"/>
			<point x="354" y="521" type="curve" smooth="yes"/>
			<point x="322" y="472"/>
			<point x="305.5" y="437.5"/>
			<point x="305.5" y="408" type="curve" smooth="yes"/>
			<point x="305.5" y="361.5"/>
			<point x="345.5" y="326.5"/>
			<point x="429" y="266" type="curve" smooth="yes"/>
			<point x="462" y="241.5"/>
			<point x="471" y="167.5"/>
			<point x="440" y="128.5" type="curve" smooth="yes"/>
			<point x="417.5" y="100"/>
			<point x="378" y="83"/>
			<point x="344.5" y="83" type="curve" smooth="yes"/>
			<point x="270" y="83"/>
			<point x="220.5" y="130"/>
			<point x="220.5" y="198.5" type="curve"/>
			<point x="212.5" y="198.5" type="line"/>
			<point x="213" y="76.5"/>
			<point x="276" y="-5"/>
		</contour>
		<contour>
			<point x="65" y="0" type="line"/>
			<point x="165" y="0" type="line"/>
			<point x="165" y="551.5" type="line"/>
			<point x="65" y="548.5" type="line"/>
		</contour>
		<component base="_part.longserif" xScale="-1" yScale="-1" xOffset="320" yOffset="700"/>
		<component base="_part.longserif" xScale="-1" yScale="-1" xOffset="260" yOffset="700"/>
	</outline>
</glyph>
<glyph name="endash" format="2">
	<advance width="340"/>
	<unicode hex="2013"/>
	<outline>
		<contour>
			<point x="5" y="279" type="line"/>
			<point x="335" y="279" type="line"/>
			<point x="335" y="291" type="line"/>
			<point x="5" y="291" type="line"/>
		</contour>
	</outline>
</glyph>
<glyph name="quoteright" format="2">
	<advance width="159.5"/>
	<unicode hex="2019"/>
	<outline>
		<contour>
			<point x="40" y="488.5" type="curve"/>
			<point x="45.5" y="482.5" type="line"/>
			<point x="85" y="525"/>
			<point x="134.5" y="595"/>
			<point x="134.5" y="645" type="curve" smooth="yes"/>
			<point x="134.5" y="678"/>
			<point x="112.5" y="700"/>
			<point x="80" y="700" type="curve" smooth="yes"/>
			<point x="49.5" y="700"/>
			<point x="25" y="675.5"/>
			<point x="25" y="645.5" type="curve" smooth="yes"/>
			<point x="25" y="614.5"/>
			<point x="49.5" y="590"/>
			<point x="80" y="590" type="curve" smooth="yes"/>
			<point x="84.5" y="590"/>
			<point x="89" y="590.5"/>
			<point x="93" y="591.5" type="curve" smooth="yes"/>
			<point x="100.5" y="593.5"/>
			<point x="103.5" y="591.5"/>
			<point x="103.5" y="586.5" type="curve" smooth="yes"/>
			<point x="103.5" y="568.5"/>
			<point x="61.5" y="512.5"/>
		</contour>
	</outline>
</glyph>
<glyph name="dagger" format="2">
	<advance width="239"/>
	<unicode hex="2020"/>
	<outline>
		<contour>
			<point x="117" y="285" type="line"/>
			<point x="122" y="285" type="line"/>
			<point x="144.5" y="536.5" type="line"/>
			<point x="153.5" y="700" type="line"/>
			<point x="117" y="700" type="line"/>
		</contour>
		<contour>
			<point x="25" y="518" type="line"/>
			<point x="33.5" y="518" type="line"/>
			<point x="45.5" y="596.5" type="line"/>
			<point x="25" y="596.5" type="line"/>
		</contour>
		<contour>
			<point x="117" y="285" type="line"/>
			<point x="122" y="285" type="line"/>
			<point x="122" y="700" type="line"/>
			<point x="85.5" y="700" type="line"/>
			<point x="94.5" y="536.5" type="line"/>
		</contour>
		<contour>
			<point x="25" y="591" type="line"/>
			<point x="45.5" y="591" type="line"/>
			<point x="33.5" y="670" type="line"/>
			<point x="25" y="670" type="line"/>
		</contour>
		<contour>
			<point x="108.5" y="580" type="line"/>
			<point x="108.5" y="608" type="line"/>
			<point x="40.5" y="596.5" type="line"/>
			<point x="40.5" y="591" type="line"/>
		</contour>
		<contour>
			<point x="130.5" y="580" type="line"/>
			<point x="198.5" y="591" type="line"/>
			<point x="198.5" y="596.5" type="line"/>
			<point x="130.5" y="608" type="line"/>
		</contour>
		<contour>
			<point x="205.5" y="518" type="line"/>
			<point x="214" y="518" type="line"/>
			<point x="214" y="596.5" type="line"/>
			<point x="193.5" y="596.5" type="line"/>
		</contour>
		<contour>
			<point x="65.5" y="692" type="line"/>
			<point x="151" y="692" type="line"/>
			<point x="151" y="700" type="line"/>
			<point x="65.5" y="700" type="line"/>
		</contour>
		<contour>
			<point x="88" y="692" type="line"/>
			<point x="173.5" y="692" type="line"/>
			<point x="173.5" y="700" type="line"/>
			<point x="88" y="700" type="line"/>
		</contour>
		<contour>
			<point x="193.5" y="591" type="line"/>
			<point x="214" y="591" type="line"/>
			<point x="214" y="670" type="line"/>
			<point x="205.5" y="670" type="line"/>
		</contour>
	</outline>
</glyph>
<glyph name="daggerdbl" format="2">
	<advance width="259"/>
	<unicode hex="2021"/>
	<outline>
		<contour>
			<point x="95.5" y="316.5" type="line"/>
			<point x="163.5" y="316.5" type="line"/>
			<point x="138.5" y="508" type="line"/>
			<point x="163.5" y="700" type="line"/>
			<point x="95.5" y="700" type="line"/>
			<point x="120.5" y="508" type="line"/>
		</contour>
		<contour>
			<point x="35" y="346.5" type="line"/>
			<point x="43.5" y="346.5" type="line"/>
			<point x="55.5" y="425" type="line"/>
			<point x="35" y="425" type="line"/>
		</contour>
		<contour>
			<point x="75.5" y="316.5" type="line"/>
			<point x="161" y="316.5" type="line"/>
			<point x="161" y="324.5" type="line"/>
			<point x="75.5" y="324.5" type="line"/>
		</contour>
		<contour>
			<point x="98" y="316.5" type="line"/>
			<point x="183.5" y="316.5" type="line"/>
			<point x="183.5" y="324.5" type="line"/>
			<point x="98" y="324.5" type="line"/>
		</contour>
		<contour>
			<point x="35" y="420" type="line"/>
			<point x="55.5" y="420" type="line"/>
			<point x="43.5" y="498.5" type="line"/>
			<point x="35" y="498.5" type="line"/>
		</contour>
		<contour>
			<point x="118.5" y="408.5" type="line"/>
			<point x="118.5" y="436.5" type="line"/>
			<point x="50.5" y="425" type="line"/>
			<point x="50.5" y="419.5" type="line"/>
		</contour>
		<contour>
			<point x="140.5" y="408.5" type="line"/>
			<point x="208.5" y="419.5" type="line"/>
			<point x="208.5" y="425" type="line"/>
			<point x="140.5" y="436.5" type="line"/>
		</contour>
		<contour>
			<point x="215.5" y="346.5" type="line"/>
			<point x="224" y="346.5" type="line"/>
			<point x="224" y="425" type="line"/>
			<point x="203.5" y="425" type="line"/>
		</contour>
		<contour>
			<point x="35" y="518" type="line"/>
			<point x="43.5" y="518" type="line"/>
			<point x="55.5" y="596.5" type="line"/>
			<point x="35" y="596.5" type="line"/>
		</contour>
		<contour>
			<point x="203.5" y="420" type="line"/>
			<point x="224" y="420" type="line"/>
			<point x="224" y="498.5" type="line"/>
			<point x="215.5" y="498.5" type="line"/>
		</contour>
		<contour>
			<point x="35" y="591" type="line"/>
			<point x="55.5" y="591" type="line"/>
			<point x="43.5" y="670" type="line"/>
			<point x="35" y="670" type="line"/>
		</contour>
		<contour>
			<point x="118.5" y="580" type="line"/>
			<point x="118.5" y="608" type="line"/>
			<point x="50.5" y="596.5" type="line"/>
			<point x="50.5" y="591" type="line"/>
		</contour>
		<contour>
			<point x="140.5" y="580" type="line"/>
			<point x="208.5" y="591" type="line"/>
			<point x="208.5" y="596.5" type="line"/>
			<point x="140.5" y="608" type="line"/>
		</contour>
		<contour>
			<point x="215.5" y="518" type="line"/>
			<point x="224" y="518" type="line"/>
			<point x="224" y="596.5" type="line"/>
			<point x="203.5" y="596.5" type="line"/>
		</contour>
		<contour>
			<point x="75.5" y="692" type="line"/>
			<point x="161" y="692" type="line"/>
			<point x="161" y="700" type="line"/>
			<point x="75.5" y="700" type="line"/>
		</contour>
		<contour>
			<point x="98" y="692" type="line"/>
			<point x="183.5" y="692" type="line"/>
			<point x="183.5" y="700" type="line"/>
			<point x="98" y="700" type="line"/>
		</contour>
		<contour>
			<point x="203.5" y="591" type="line"/>
			<point x="224" y="591" type="line"/>
			<point x="224" y="670" type="line"/>
			<point x="215.5" y="670" type="line"/>
		</contour>
	</outline>
</glyph>
<glyph name="guilsinglleft" format="2">
	<advance width="232.5"/>
	<unicode hex="2039"/>
	<outline>
		<contour>
			<point x="77" y="319.5" type="line"/>
			<point x="126" y="319.5"/>
			<point x="178" y="356.5"/>
			<point x="207.5" y="412.5" type="curve"/>
			<point x="199.5" y="417.5" type="line"/>
			<point x="175.5" y="379"/>
			<point x="106" y="342.5"/>
			<point x="25" y="326" type="curve"/>
			<point x="25" y="320" type="line"/>
		</contour>
		<contour>
			<point x="199.5" y="228.5" type="curve"/>
			<point x="207.5" y="233.5" type="line"/>
			<point x="178" y="289.5"/>
			<point x="126" y="326.5"/>
			<point x="77" y="326.5" type="curve"/>
			<point x="25" y="326" type="line"/>
			<point x="25" y="320" type="line"/>
			<point x="105.5" y="304"/>
			<point x="175" y="267"/>
		</contour>
	</outline>
</glyph>
<glyph name="uni2055" format="2">
	<advance width="575"/>
	<unicode hex="2055"/>
	<outline>
		<contour>
			<point x="282" y="342" type="curve"/>
			<point x="287.5" y="366"/>
			<point x="306.5" y="400"/>
			<point x="357" y="413.5" type="curve" smooth="yes"/>
			<point x="386" y="420.5"/>
			<point x="417" y="417.5"/>
			<point x="444" y="444.5" type="curve" smooth="yes"/>
			<point x="465" y="465.5"/>
			<point x="477" y="500.5"/>
			<point x="474" y="535" type="curve"/>
			<point x="468.5" y="535.5" type="line"/>
			<point x="467" y="519"/>
			<point x="460.5" y="506.5"/>
			<point x="451.5" y="497.5" type="curve" smooth="yes"/>
			<point x="429.5" y="475.5"/>
			<point x="398.5" y="476.5"/>
			<point x="368.5" y="469.5" type="curve" smooth="yes"/>
			<point x="348" y="465"/>
			<point x="330" y="455"/>
			<point x="316" y="440.5" type="curve" smooth="yes"/>
			<point x="292.5" y="417"/>
			<point x="279.5" y="382.5"/>
		</contour>
		<contour>
			<point x="101" y="165" type="curve"/>
			<point x="106.5" y="164.5" type="line"/>
			<point x="108" y="181"/>
			<point x="114.5" y="193.5"/>
			<point x="123.5" y="202.5" type="curve" smooth="yes"/>
			<point x="145.5" y="224.5"/>
			<point x="176.5" y="223.5"/>
			<point x="206.5" y="230.5" type="curve" smooth="yes"/>
			<point x="227" y="235"/>
			<point x="245" y="245"/>
			<point x="259" y="259.5" type="curve" smooth="yes"/>
			<point x="282.5" y="283"/>
			<point x="295.5" y="317.5"/>
			<point x="293" y="358" type="curve"/>
			<point x="287.5" y="334"/>
			<point x="268.5" y="300"/>
			<point x="218" y="286.5" type="curve" smooth="yes"/>
			<point x="189" y="279.5"/>
			<point x="158" y="282.5"/>
			<point x="131" y="255.5" type="curve" smooth="yes"/>
			<point x="110" y="234.5"/>
			<point x="98" y="199.5"/>
		</contour>
		<contour>
			<point x="203" y="306" type="curve" smooth="yes"/>
			<point x="236.5" y="306"/>
			<point x="270" y="321"/>
			<point x="296.5" y="351.5" type="curve"/>
			<point x="276.5" y="338.5"/>
			<point x="238.5" y="328"/>
			<point x="193.5" y="354.5" type="curve" smooth="yes"/>
			<point x="168" y="370"/>
			<point x="148" y="394"/>
			<point x="110" y="394" type="curve" smooth="yes"/>
			<point x="80.5" y="394"/>
			<point x="47" y="378"/>
			<point x="25" y="351" type="curve"/>
			<point x="28.5" y="347" type="line"/>
			<point x="41" y="357.5"/>
			<point x="54.5" y="361.5"/>
			<point x="67.5" y="361.5" type="curve" smooth="yes"/>
			<point x="98" y="361.5"/>
			<point x="119.5" y="339"/>
			<point x="145.5" y="322.5" type="curve" smooth="yes"/>
			<point x="163.5" y="311.5"/>
			<point x="183" y="306"/>
		</contour>
		<contour>
			<point x="286.5" y="87.5" type="curve"/>
			<point x="290.5" y="91" type="line"/>
			<point x="280" y="103.5"/>
			<point x="276" y="117"/>
			<point x="276" y="130" type="curve" smooth="yes"/>
			<point x="276" y="160.5"/>
			<point x="298.5" y="182"/>
			<point x="315" y="208.5" type="curve" smooth="yes"/>
			<point x="326" y="226"/>
			<point x="331.5" y="245.5"/>
			<point x="331.5" y="265.5" type="curve" smooth="yes"/>
			<point x="331.5" y="299"/>
			<point x="316" y="332.5"/>
			<point x="286" y="359.5" type="curve"/>
			<point x="299" y="339.5"/>
			<point x="310" y="301"/>
			<point x="283" y="256" type="curve" smooth="yes"/>
			<point x="268" y="230.5"/>
			<point x="243.5" y="210.5"/>
			<point x="243.5" y="172.5" type="curve" smooth="yes"/>
			<point x="243.5" y="142.5"/>
			<point x="260" y="109.5"/>
		</contour>
		<contour>
			<point x="472.5" y="163.5" type="curve"/>
			<point x="473" y="169" type="line"/>
			<point x="456.5" y="170.5"/>
			<point x="444" y="177"/>
			<point x="435" y="186" type="curve" smooth="yes"/>
			<point x="413" y="208"/>
			<point x="414" y="239"/>
			<point x="407" y="269" type="curve" smooth="yes"/>
			<point x="402.5" y="289.5"/>
			<point x="392.5" y="307.5"/>
			<point x="378" y="321.5" type="curve" smooth="yes"/>
			<point x="354.5" y="345"/>
			<point x="320" y="358"/>
			<point x="279.5" y="355.5" type="curve"/>
			<point x="303" y="350.5"/>
			<point x="338" y="331"/>
			<point x="351" y="280.5" type="curve" smooth="yes"/>
			<point x="358" y="251.5"/>
			<point x="355" y="220.5"/>
			<point x="382" y="193.5" type="curve" smooth="yes"/>
			<point x="403" y="172.5"/>
			<point x="438" y="160.5"/>
		</contour>
		<contour>
			<point x="287" y="344.5" type="curve" smooth="yes"/>
			<point x="290" y="344.5"/>
			<point x="292" y="347"/>
			<point x="292" y="349.5" type="curve" smooth="yes"/>
			<point x="292" y="352.5"/>
			<point x="290" y="354.5"/>
			<point x="287" y="354.5" type="curve" smooth="yes"/>
			<point x="284.5" y="354.5"/>
			<point x="282" y="352.5"/>
			<point x="282" y="349.5" type="curve" smooth="yes"/>
			<point x="282" y="347"/>
			<point x="284.5" y="344.5"/>
		</contour>
		<contour>
			<point x="295.5" y="344.5" type="curve"/>
			<point x="272" y="349.5"/>
			<point x="237" y="369"/>
			<point x="224" y="419.5" type="curve" smooth="yes"/>
			<point x="217" y="448.5"/>
			<point x="220" y="479.5"/>
			<point x="193" y="506.5" type="curve" smooth="yes"/>
			<point x="172" y="527.5"/>
			<point x="137" y="539.5"/>
			<point x="102.5" y="536.5" type="curve"/>
			<point x="102" y="531" type="line"/>
			<point x="118.5" y="529.5"/>
			<point x="131" y="523"/>
			<point x="140" y="514" type="curve" smooth="yes"/>
			<point x="162" y="492"/>
			<point x="161" y="461"/>
			<point x="168" y="431" type="curve" smooth="yes"/>
			<point x="172.5" y="410.5"/>
			<point x="182.5" y="392.5"/>
			<point x="197" y="378.5" type="curve" smooth="yes"/>
			<point x="220.5" y="355"/>
			<point x="255" y="342"/>
		</contour>
		<contour>
			<point x="289" y="340.5" type="curve"/>
			<point x="276" y="360.5"/>
			<point x="265" y="399"/>
			<point x="292" y="444" type="curve" smooth="yes"/>
			<point x="307" y="469.5"/>
			<point x="331.5" y="489.5"/>
			<point x="331.5" y="527.5" type="curve" smooth="yes"/>
			<point x="331.5" y="557.5"/>
			<point x="315" y="590.5"/>
			<point x="288.5" y="612.5" type="curve"/>
			<point x="284.5" y="609" type="line"/>
			<point x="295" y="596.5"/>
			<point x="299" y="583"/>
			<point x="299" y="570" type="curve" smooth="yes"/>
			<point x="299" y="539.5"/>
			<point x="276.5" y="518"/>
			<point x="260" y="491.5" type="curve" smooth="yes"/>
			<point x="249" y="474"/>
			<point x="243.5" y="454.5"/>
			<point x="243.5" y="434.5" type="curve" smooth="yes"/>
			<point x="243.5" y="401"/>
			<point x="259" y="367.5"/>
		</contour>
		<contour>
			<point x="465" y="306" type="curve" smooth="yes"/>
			<point x="494.5" y="306"/>
			<point x="528" y="322"/>
			<point x="550" y="349" type="curve"/>
			<point x="546.5" y="353" type="line"/>
			<point x="534" y="342.5"/>
			<point x="520.5" y="338.5"/>
			<point x="507.5" y="338.5" type="curve" smooth="yes"/>
			<point x="477" y="338.5"/>
			<point x="455.5" y="361"/>
			<point x="429.5" y="377.5" type="curve" smooth="yes"/>
			<point x="411.5" y="388.5"/>
			<point x="392" y="394"/>
			<point x="372" y="394" type="curve" smooth="yes"/>
			<point x="338.5" y="394"/>
			<point x="305" y="379"/>
			<point x="278.5" y="348.5" type="curve"/>
			<point x="298.5" y="361.5"/>
			<point x="336.5" y="372"/>
			<point x="381.5" y="345.5" type="curve" smooth="yes"/>
			<point x="407" y="330"/>
			<point x="427" y="306"/>
		</contour>
	</outline>
</glyph>
<glyph name="Euro" format="2">
	<advance width="450"/>
	<unicode hex="20AC"/>
	<outline>
		<contour>
			<point x="45" y="350" type="curve"/>
			<point x="155" y="350" type="line"/>
			<point x="155" y="558"/>
			<point x="193" y="700"/>
			<point x="270" y="700" type="curve"/>
			<point x="270" y="708" type="line"/>
			<point x="112" y="708"/>
			<point x="45" y="526"/>
		</contour>
		<contour>
			<point x="270" y="-8" type="curve"/>
			<point x="270" y="0" type="line"/>
			<point x="193" y="0"/>
			<point x="155" y="142"/>
			<point x="155" y="350" type="curve"/>
			<point x="45" y="350" type="line"/>
			<point x="45" y="174"/>
			<point x="112" y="-8"/>
		</contour>
		<contour>
			<point x="0" y="307" type="line"/>
			<point x="330" y="307" type="line"/>
			<point x="330" y="315" type="line"/>
			<point x="0" y="315" type="line"/>
		</contour>
		<contour>
			<point x="0" y="384" type="line"/>
			<point x="330" y="384" type="line"/>
			<point x="330" y="392" type="line"/>
			<point x="0" y="392" type="line"/>
		</contour>
		<contour>
			<point x="270" y="0" type="curve"/>
			<point x="270" y="-8" type="line"/>
			<point x="298.5" y="-8"/>
			<point x="331" y="12.5"/>
			<point x="355.5" y="57.5" type="curve" smooth="yes"/>
			<point x="367.5" y="79.5"/>
			<point x="384.5" y="88"/>
			<point x="397" y="88" type="curve" smooth="yes"/>
			<point x="414" y="88"/>
			<point x="426" y="70"/>
			<point x="420" y="40" type="curve"/>
			<point x="428" y="40" type="line"/>
			<point x="432.5" y="60.5"/>
			<point x="435" y="85"/>
			<point x="435" y="112" type="curve" smooth="yes"/>
			<point x="435" y="177.5"/>
			<point x="421.5" y="258"/>
			<point x="396.5" y="332" type="curve"/>
			<point x="388.5" y="330" type="line"/>
			<point x="390.5" y="321"/>
			<point x="392" y="301"/>
			<point x="392" y="280" type="curve" smooth="yes"/>
			<point x="392" y="82"/>
			<point x="324" y="0"/>
		</contour>
		<contour>
			<point x="270" y="708" type="curve"/>
			<point x="270" y="700" type="line"/>
			<point x="324" y="700"/>
			<point x="392" y="643"/>
			<point x="392" y="445" type="curve" smooth="yes"/>
			<point x="392" y="424"/>
			<point x="390.5" y="404"/>
			<point x="388.5" y="395" type="curve"/>
			<point x="396.5" y="393" type="line"/>
			<point x="421.5" y="467"/>
			<point x="435" y="547.5"/>
			<point x="435" y="613" type="curve" smooth="yes"/>
			<point x="435" y="640"/>
			<point x="432.5" y="664.5"/>
			<point x="428" y="685" type="curve"/>
			<point x="420" y="685" type="line"/>
			<point x="426" y="655"/>
			<point x="416" y="637.5"/>
			<point x="396.5" y="637.5" type="curve" smooth="yes"/>
			<point x="378" y="637.5"/>
			<point x="367" y="648"/>
			<point x="355.5" y="661" type="curve" smooth="yes"/>
			<point x="331.5" y="688"/>
			<point x="310" y="708"/>
		</contour>
	</outline>
</glyph>
<glyph name="uni2698" format="2">
	<advance width="548"/>
	<unicode hex="2698"/>
	<guideline x="274" y="317.5" angle="90"/>
	<outline>
		<contour>
			<point x="476.5" y="215.5" type="curve"/>
			<point x="477.5" y="221.5" type="line"/>
			<point x="445.5" y="224"/>
			<point x="425.5" y="260.5"/>
			<point x="404.5" y="301" type="curve" smooth="yes"/>
			<point x="379" y="347.5"/>
			<point x="352.5" y="399"/>
			<point x="307" y="394.5" type="curve" smooth="yes"/>
			<point x="292.5" y="393"/>
			<point x="281.5" y="389.5"/>
			<point x="274" y="379" type="curve"/>
			<point x="274" y="372" type="line"/>
			<point x="300" y="372"/>
			<point x="314.5" y="322.5"/>
			<point x="346.5" y="276" type="curve" smooth="yes"/>
			<point x="378.5" y="230"/>
			<point x="430.5" y="215.5"/>
		</contour>
		<contour>
			<point x="70.5" y="221.5" type="curve"/>
			<point x="72" y="215.5" type="line"/>
			<point x="117.5" y="215.5"/>
			<point x="169.5" y="230"/>
			<point x="201.5" y="276" type="curve" smooth="yes"/>
			<point x="234" y="322.5"/>
			<point x="248.5" y="372"/>
			<point x="274" y="372" type="curve"/>
			<point x="274" y="379" type="line"/>
			<point x="267" y="389.5"/>
			<point x="255.5" y="393"/>
			<point x="241" y="394.5" type="curve" smooth="yes"/>
			<point x="195.5" y="399"/>
			<point x="169" y="347.5"/>
			<point x="144" y="301" type="curve" smooth="yes"/>
			<point x="123" y="260.5"/>
			<point x="102.5" y="224"/>
		</contour>
		<contour>
			<point x="267.5" y="119" type="curve"/>
			<point x="274" y="119" type="line"/>
			<point x="274" y="356" type="line"/>
			<point x="267.5" y="355.5" type="line"/>
			<point x="256" y="322.5"/>
			<point x="235" y="298"/>
			<point x="235" y="255" type="curve" smooth="yes"/>
			<point x="235" y="230"/>
			<point x="248.5" y="174.5"/>
		</contour>
		<contour>
			<point x="274" y="119" type="line"/>
			<point x="280.5" y="119" type="line"/>
			<point x="300" y="174.5"/>
			<point x="313" y="230"/>
			<point x="313" y="255" type="curve" smooth="yes"/>
			<point x="313" y="298"/>
			<point x="292" y="322.5"/>
			<point x="280.5" y="355.5" type="curve"/>
			<point x="274" y="356" type="line"/>
		</contour>
		<contour>
			<point x="99" y="354" type="curve" smooth="yes"/>
			<point x="153" y="354"/>
			<point x="190.5" y="407.5"/>
			<point x="243.5" y="407.5" type="curve" smooth="yes"/>
			<point x="265" y="407.5"/>
			<point x="271" y="403"/>
			<point x="274" y="400.5" type="curve"/>
			<point x="274.5" y="409" type="line"/>
			<point x="261.5" y="430"/>
			<point x="234" y="446.5"/>
			<point x="212.5" y="446.5" type="curve" smooth="yes"/>
			<point x="140.5" y="446.5"/>
			<point x="102.5" y="384"/>
			<point x="48" y="384" type="curve" smooth="yes"/>
			<point x="40.5" y="384"/>
			<point x="35.5" y="386"/>
			<point x="28.5" y="389.5" type="curve"/>
			<point x="25" y="384" type="line"/>
			<point x="52" y="364.5"/>
			<point x="75.5" y="354"/>
		</contour>
		<contour>
			<point x="259" y="436.5" type="curve"/>
			<point x="263.5" y="441" type="line"/>
			<point x="256.5" y="462"/>
			<point x="244.5" y="478.5"/>
			<point x="231.5" y="488" type="curve" smooth="yes"/>
			<point x="220.5" y="496"/>
			<point x="208" y="499.5"/>
			<point x="195" y="499.5" type="curve" smooth="yes"/>
			<point x="177.5" y="499.5"/>
			<point x="159.5" y="494"/>
			<point x="141.5" y="485.5" type="curve" smooth="yes"/>
			<point x="118" y="475.5"/>
			<point x="101.5" y="463"/>
			<point x="85" y="469" type="curve"/>
			<point x="82.5" y="463" type="line"/>
			<point x="94" y="456"/>
			<point x="103" y="453"/>
			<point x="112.5" y="453" type="curve" smooth="yes"/>
			<point x="121" y="453"/>
			<point x="130.5" y="455.5"/>
			<point x="142.5" y="458.5" type="curve" smooth="yes"/>
			<point x="158.5" y="462"/>
			<point x="176.5" y="466.5"/>
			<point x="195" y="466.5" type="curve" smooth="yes"/>
			<point x="223" y="466.5"/>
			<point x="241" y="454.5"/>
		</contour>
		<contour>
			<point x="285" y="441" type="curve"/>
			<point x="289" y="436.5" type="line"/>
			<point x="307" y="454.5"/>
			<point x="325" y="466.5"/>
			<point x="353.5" y="466.5" type="curve" smooth="yes"/>
			<point x="372" y="466.5"/>
			<point x="390" y="462"/>
			<point x="405.5" y="458.5" type="curve" smooth="yes"/>
			<point x="417.5" y="455.5"/>
			<point x="427" y="453"/>
			<point x="435.5" y="453" type="curve" smooth="yes"/>
			<point x="445" y="453"/>
			<point x="454" y="456"/>
			<point x="465.5" y="463" type="curve"/>
			<point x="463" y="469" type="line"/>
			<point x="447" y="463"/>
			<point x="430" y="475.5"/>
			<point x="406.5" y="485.5" type="curve" smooth="yes"/>
			<point x="388.5" y="494"/>
			<point x="370.5" y="499.5"/>
			<point x="353.5" y="499.5" type="curve" smooth="yes"/>
			<point x="340" y="499.5"/>
			<point x="327.5" y="496"/>
			<point x="316.5" y="488" type="curve" smooth="yes"/>
			<point x="303.5" y="478.5"/>
			<point x="291.5" y="462"/>
		</contour>
		<contour>
			<point x="267.5" y="451.5" type="curve"/>
			<point x="274" y="451.5" type="line"/>
			<point x="274" y="569.5" type="line"/>
			<point x="267.5" y="569.5" type="line"/>
			<point x="256" y="562.5"/>
			<point x="248.5" y="545"/>
			<point x="248.5" y="526.5" type="curve" smooth="yes"/>
			<point x="248.5" y="507"/>
			<point x="256" y="477"/>
		</contour>
		<contour>
			<point x="449.5" y="354" type="curve" smooth="yes"/>
			<point x="472.5" y="354"/>
			<point x="496" y="364.5"/>
			<point x="523" y="384" type="curve"/>
			<point x="519.5" y="389.5" type="line"/>
			<point x="513" y="386"/>
			<point x="507.5" y="384"/>
			<point x="500.5" y="384" type="curve" smooth="yes"/>
			<point x="445.5" y="384"/>
			<point x="408" y="446.5"/>
			<point x="336" y="446.5" type="curve" smooth="yes"/>
			<point x="314.5" y="446.5"/>
			<point x="286.5" y="430"/>
			<point x="273.5" y="409" type="curve"/>
			<point x="274" y="400.5" type="line"/>
			<point x="277" y="403"/>
			<point x="283" y="407.5"/>
			<point x="304.5" y="407.5" type="curve" smooth="yes"/>
			<point x="357.5" y="407.5"/>
			<point x="395.5" y="354"/>
		</contour>
		<contour>
			<point x="274" y="451.5" type="line"/>
			<point x="280.5" y="451.5" type="line"/>
			<point x="292" y="477"/>
			<point x="300" y="507"/>
			<point x="300" y="526.5" type="curve" smooth="yes"/>
			<point x="300" y="545"/>
			<point x="292" y="562.5"/>
			<point x="280.5" y="569.5" type="curve"/>
			<point x="274" y="569.5" type="line"/>
		</contour>
	</outline>
</glyph>
<glyph name="uniA746" format="2">
	<advance width="533"/>
	<unicode hex="A746"/>
	<unicode hex="A747"/>
	<anchor x="337" y="350" name="center"/>
	<anchor x="337" y="700" name="top"/>
	<anchor x="523" y="700" name="topright"/>
	<anchor x="337" y="0" name="bottom"/>
	<outline>
		<contour>
			<point x="225" y="0" type="line"/>
			<point x="325" y="0" type="line"/>
			<point x="325" y="450" type="line"/>
			<point x="175" y="450" type="line"/>
			<point x="175" y="700" type="line"/>
			<point x="75" y="700" type="line"/>
			<point x="75" y="442" type="line"/>
			<point x="225" y="442" type="line"/>
		</contour>
		<contour>
			<point x="165" y="0" type="line"/>
			<point x="385" y="0" type="line"/>
			<point x="385" y="8" type="line"/>
			<point x="165" y="8" type="line"/>
		</contour>
		<contour>
			<point x="375" y="0" type="line"/>
			<point x="461" y="0" type="line"/>
			<point x="461" y="8" type="line"/>
			<point x="375" y="8" type="line"/>
		</contour>
		<contour>
			<point x="444" y="0" type="line"/>
			<point x="496" y="0" type="line"/>
			<point x="518" y="233" type="line"/>
			<point x="508" y="233" type="line"/>
		</contour>
		<contour>
			<point x="15" y="692" type="line"/>
			<point x="235" y="692" type="line"/>
			<point x="235" y="700" type="line"/>
			<point x="15" y="700" type="line"/>
		</contour>
	</outline>
</glyph>
<glyph name="u1F4AE" format="2">
	<advance width="603"/>
	<unicode hex="1F4AE"/>
	<outline>
		<contour>
			<point x="301.5" y="80" type="curve" smooth="yes"/>
			<point x="301.5" y="40" type="line"/>
			<point x="305.5" y="40" type="line"/>
			<point x="305.5" y="116"/>
			<point x="321" y="107"/>
			<point x="438" y="138" type="curve" smooth="yes"/>
			<point x="550" y="166.5"/>
			<point x="578" y="197"/>
			<point x="578" y="266" type="curve" smooth="yes"/>
			<point x="578" y="295.5"/>
			<point x="570.5" y="348.5"/>
			<point x="570.5" y="385" type="curve" smooth="yes"/>
			<point x="570.5" y="403.5"/>
			<point x="572.5" y="425"/>
			<point x="578" y="456.5" type="curve"/>
			<point x="573" y="456.5" type="line"/>
			<point x="566.5" y="423"/>
			<point x="565" y="407.5"/>
			<point x="565" y="385" type="curve" smooth="yes"/>
			<point x="565" y="348.5"/>
			<point x="570.5" y="321.5"/>
			<point x="570.5" y="283" type="curve" smooth="yes"/>
			<point x="570.5" y="240.5"/>
			<point x="515" y="222"/>
			<point x="401" y="176" type="curve" smooth="yes"/>
			<point x="341.5" y="151.5"/>
			<point x="301.5" y="113.5"/>
		</contour>
		<contour>
			<point x="297.5" y="40" type="curve"/>
			<point x="301.5" y="40" type="line"/>
			<point x="301.5" y="80" type="line" smooth="yes"/>
			<point x="301.5" y="113.5"/>
			<point x="261.5" y="151.5"/>
			<point x="202" y="176" type="curve" smooth="yes"/>
			<point x="88" y="222"/>
			<point x="32.5" y="240.5"/>
			<point x="32.5" y="283" type="curve" smooth="yes"/>
			<point x="32.5" y="321.5"/>
			<point x="38" y="348.5"/>
			<point x="38" y="385" type="curve" smooth="yes"/>
			<point x="38" y="407.5"/>
			<point x="36.5" y="423"/>
			<point x="30" y="456.5" type="curve"/>
			<point x="25" y="456.5" type="line"/>
			<point x="30.5" y="425"/>
			<point x="32.5" y="403.5"/>
			<point x="32.5" y="385" type="curve" smooth="yes"/>
			<point x="32.5" y="348.5"/>
			<point x="25" y="295.5"/>
			<point x="25" y="266" type="curve" smooth="yes"/>
			<point x="25" y="197"/>
			<point x="53" y="166.5"/>
			<point x="165" y="138" type="curve" smooth="yes"/>
			<point x="282" y="107"/>
			<point x="297.5" y="116"/>
		</contour>
		<contour>
			<point x="297.5" y="102" type="curve"/>
			<point x="301.5" y="102" type="line"/>
			<point x="301.5" y="198"/>
			<point x="81" y="316"/>
			<point x="81" y="379" type="curve" smooth="yes"/>
			<point x="81" y="402"/>
			<point x="100.5" y="437"/>
			<point x="118" y="469" type="curve" smooth="yes"/>
			<point x="136.5" y="504"/>
			<point x="148.5" y="547.5"/>
			<point x="148.5" y="578" type="curve"/>
			<point x="143" y="578" type="line"/>
			<point x="143" y="546.5"/>
			<point x="130" y="502.5"/>
			<point x="111.5" y="469.5" type="curve" smooth="yes"/>
			<point x="90.5" y="430.5"/>
			<point x="67" y="384.5"/>
			<point x="66.5" y="349" type="curve" smooth="yes"/>
			<point x="67" y="296"/>
			<point x="83" y="262"/>
			<point x="122" y="238" type="curve" smooth="yes"/>
			<point x="183" y="201"/>
			<point x="297.5" y="137.5"/>
		</contour>
		<contour>
			<point x="297.5" y="121" type="curve"/>
			<point x="301.5" y="121" type="line"/>
			<point x="301.5" y="281.5"/>
			<point x="173" y="369"/>
			<point x="173" y="433.5" type="curve" smooth="yes"/>
			<point x="173" y="472"/>
			<point x="222.5" y="559"/>
			<point x="222.5" y="637" type="curve"/>
			<point x="217" y="637" type="line"/>
			<point x="217" y="543"/>
			<point x="144" y="472.5"/>
			<point x="144" y="393.5" type="curve" smooth="yes"/>
			<point x="144" y="277.5"/>
			<point x="297.5" y="198.5"/>
		</contour>
		<contour>
			<point x="297.5" y="199" type="curve" smooth="yes"/>
			<point x="297.5" y="25" type="line"/>
			<point x="301.5" y="25" type="line"/>
			<point x="301.5" y="663" type="line"/>
			<point x="297.5" y="663" type="line"/>
			<point x="295.5" y="563"/>
			<point x="254" y="527.5"/>
			<point x="254" y="442" type="curve" smooth="yes"/>
			<point x="254" y="346"/>
			<point x="297.5" y="292.5"/>
		</contour>
		<contour>
			<point x="301.5" y="25" type="line"/>
			<point x="305.5" y="25" type="line"/>
			<point x="305.5" y="199" type="line" smooth="yes"/>
			<point x="305.5" y="292.5"/>
			<point x="349" y="346"/>
			<point x="349" y="442" type="curve" smooth="yes"/>
			<point x="349" y="527.5"/>
			<point x="307.5" y="563"/>
			<point x="305.5" y="663" type="curve"/>
			<point x="301.5" y="663" type="line"/>
		</contour>
		<contour>
			<point x="301.5" y="102" type="curve"/>
			<point x="305.5" y="102" type="line"/>
			<point x="305.5" y="137.5"/>
			<point x="420" y="201"/>
			<point x="481" y="238" type="curve" smooth="yes"/>
			<point x="520" y="262"/>
			<point x="536" y="296"/>
			<point x="536" y="349" type="curve" smooth="yes"/>
			<point x="536" y="384.5"/>
			<point x="512.5" y="430.5"/>
			<point x="491" y="469" type="curve" smooth="yes"/>
			<point x="473" y="503"/>
			<point x="460" y="546.5"/>
			<point x="460" y="578" type="curve"/>
			<point x="454.5" y="578" type="line"/>
			<point x="454.5" y="547"/>
			<point x="466.5" y="504"/>
			<point x="485" y="469" type="curve" smooth="yes"/>
			<point x="502.5" y="437"/>
			<point x="522" y="402"/>
			<point x="522" y="379" type="curve" smooth="yes"/>
			<point x="522" y="316"/>
			<point x="301.5" y="198"/>
		</contour>
		<contour>
			<point x="301.5" y="121" type="curve"/>
			<point x="305.5" y="121" type="line"/>
			<point x="305.5" y="198.5"/>
			<point x="459" y="277.5"/>
			<point x="459" y="393.5" type="curve" smooth="yes"/>
			<point x="459" y="472.5"/>
			<point x="386" y="543"/>
			<point x="386" y="637" type="curve"/>
			<point x="380.5" y="637" type="line"/>
			<point x="380.5" y="559"/>
			<point x="430" y="472"/>
			<point x="430" y="433.5" type="curve" smooth="yes"/>
			<point x="430" y="369"/>
			<point x="301.5" y="281.5"/>
		</contour>
	</outline>
</glyph>
<glyph name="A.ss01" format="2">
	<advance width="505"/>
	<anchor x="449" y="0" name="ogonek"/>
	<anchor x="253" y="0" name="bottom"/>
	<anchor x="253" y="700" name="top"/>
	<outline>
		<contour>
			<point x="368" y="0" type="line"/>
			<point x="472" y="0" type="line"/>
			<point x="310" y="700" type="line"/>
			<point x="218.5" y="700" type="line"/>
			<point x="214" y="677" type="line"/>
		</contour>
		<contour>
			<point x="226" y="160" type="curve" smooth="yes"/>
			<point x="260.5" y="160"/>
			<point x="299" y="192"/>
			<point x="322" y="240" type="curve"/>
			<point x="312" y="250" type="line"/>
			<point x="312" y="240.5"/>
			<point x="304.5" y="234"/>
			<point x="293" y="234" type="curve" smooth="yes"/>
			<point x="264" y="234"/>
			<point x="226" y="279"/>
			<point x="188" y="279" type="curve" smooth="yes"/>
			<point x="146" y="279"/>
			<point x="102.5" y="247"/>
			<point x="79.5" y="199" type="curve"/>
			<point x="84.5" y="189" type="line"/>
			<point x="87.5" y="199"/>
			<point x="93" y="205"/>
			<point x="104" y="205" type="curve" smooth="yes"/>
			<point x="133" y="205"/>
			<point x="188" y="160"/>
		</contour>
		<contour>
			<point x="26" y="0" type="line"/>
			<point x="34" y="0" type="line"/>
			<point x="222" y="700" type="line"/>
			<point x="214" y="700" type="line"/>
		</contour>
		<component base="_part.shortserif" xOffset="89"/>
		<component base="_part.longserif" xOffset="275" yOffset="-692"/>
		<component base="_part.shortserif" xOffset="-60" yOffset="-692"/>
	</outline>
</glyph>
<glyph name="A.ss02" format="2">
	<advance width="455"/>
	<guideline x="176" y="508" angle="90"/>
	<anchor x="399" y="0" name="ogonek"/>
	<anchor x="228" y="0" name="bottom"/>
	<anchor x="224" y="702.5" name="top"/>
	<outline>
		<contour>
			<point x="173" y="50" type="curve"/>
			<point x="180" y="50" type="line"/>
			<point x="180.5" y="122" type="line"/>
			<point x="180.5" y="160.5"/>
			<point x="120.5" y="203"/>
			<point x="87.5" y="217.5" type="curve"/>
			<point x="87.5" y="209.5" type="line"/>
			<point x="125" y="186"/>
			<point x="160" y="134.5"/>
		</contour>
		<contour>
			<point x="173.5" y="122" type="curve"/>
			<point x="174" y="50" type="line"/>
			<point x="181" y="50" type="line"/>
			<point x="194" y="134.5"/>
			<point x="229" y="186"/>
			<point x="266.5" y="209.5" type="curve"/>
			<point x="266.5" y="217.5" type="line"/>
			<point x="235.5" y="204"/>
			<point x="173.5" y="160.5"/>
		</contour>
		<component base="V" xScale="-1" yScale="-1" xOffset="455" yOffset="700"/>
	</outline>
</glyph>
<glyph name="A.ss03" format="2">
	<advance width="485"/>
	<guideline x="307" y="658" angle="90"/>
	<guideline x="254" y="725" angle="90"/>
	<anchor x="399" y="0" name="ogonek"/>
	<anchor x="254" y="0" name="bottom"/>
	<anchor x="254" y="700" name="top"/>
	<outline>
		<contour>
			<point x="317" y="116" type="curve"/>
			<point x="331.5" y="135" type="line"/>
			<point x="278.5" y="189.5"/>
			<point x="185.5" y="220.5"/>
			<point x="98.5" y="220.5" type="curve" smooth="yes"/>
			<point x="3.5" y="220.5"/>
			<point x="-136" y="159.5"/>
			<point x="-207" y="159.5" type="curve" smooth="yes"/>
			<point x="-231.5" y="159.5"/>
			<point x="-266.5" y="172"/>
			<point x="-294.5" y="191" type="curve"/>
			<point x="-300" y="184.5" type="line"/>
			<point x="-254" y="148"/>
			<point x="-165" y="123.5"/>
			<point x="-77.5" y="123.5" type="curve" smooth="yes"/>
			<point x="27" y="123.5"/>
			<point x="146.5" y="155.5"/>
			<point x="223" y="155.5" type="curve" smooth="yes"/>
			<point x="279" y="155.5"/>
			<point x="311" y="139"/>
		</contour>
		<component base="V" xScale="-1" yScale="-1" xOffset="485" yOffset="700"/>
	</outline>
</glyph>
<glyph name="A.ss04" format="2">
	<advance width="455"/>
	<anchor x="399" y="0" name="ogonek"/>
	<anchor x="228" y="0" name="bottom"/>
	<anchor x="224" y="702.5" name="top"/>
	<outline>
		<contour>
			<point x="105" y="279" type="line"/>
			<point x="305" y="279" type="line"/>
			<point x="305" y="369" type="line"/>
			<point x="129" y="369" type="line"/>
		</contour>
		<component base="V" xScale="-1" yScale="-1" xOffset="455" yOffset="700"/>
	</outline>
</glyph>
<glyph name="A.ss05" format="2">
	<advance width="500"/>
	<anchor x="449" y="0" name="ogonek"/>
	<anchor x="253" y="0" name="bottom"/>
	<anchor x="253" y="700" name="top"/>
	<outline>
		<contour>
			<point x="368" y="0" type="line"/>
			<point x="472" y="0" type="line"/>
			<point x="310" y="700" type="line"/>
			<point x="218.5" y="700" type="line"/>
			<point x="214" y="677" type="line"/>
		</contour>
		<contour>
			<point x="26" y="0" type="line"/>
			<point x="34" y="0" type="line"/>
			<point x="222" y="700" type="line"/>
			<point x="214" y="700" type="line"/>
		</contour>
		<contour>
			<point x="241.5" y="100" type="curve" smooth="yes"/>
			<point x="288.5" y="100"/>
			<point x="333.5" y="124"/>
			<point x="354" y="159.5" type="curve"/>
			<point x="348" y="164.5" type="line"/>
			<point x="340" y="159"/>
			<point x="324.5" y="155.5"/>
			<point x="310" y="155.5" type="curve" smooth="yes"/>
			<point x="211" y="155"/>
			<point x="147" y="319"/>
			<point x="28.5" y="319" type="curve" smooth="yes"/>
			<point x="-10" y="319"/>
			<point x="-59" y="302"/>
			<point x="-95" y="276.5" type="curve"/>
			<point x="-90.5" y="270" type="line"/>
			<point x="-78" y="278"/>
			<point x="-66" y="281.5"/>
			<point x="-53" y="281.5" type="curve" smooth="yes"/>
			<point x="40.5" y="281.5"/>
			<point x="111" y="100"/>
		</contour>
		<component base="_part.shortserif" xOffset="89"/>
		<component base="_part.longserif" xOffset="270" yOffset="-692"/>
		<component base="_part.shortserif" xOffset="-68" yOffset="-692"/>
	</outline>
</glyph>
<glyph name="A.ss06" format="2">
	<advance width="455"/>
	<anchor x="399" y="0" name="ogonek"/>
	<anchor x="228" y="0" name="bottom"/>
	<anchor x="224" y="702.5" name="top"/>
	<outline>
		<contour>
			<point x="84" y="199" type="line"/>
			<point x="307" y="199" type="line"/>
			<point x="307" y="207" type="line"/>
			<point x="84" y="207" type="line"/>
		</contour>
		<component base="V" xScale="-1" yScale="-1" xOffset="455" yOffset="700"/>
	</outline>
</glyph>
<glyph name="AE.ss04" format="2">
	<advance width="585.5"/>
	<outline>
		<contour>
			<point x="24" y="0" type="line"/>
			<point x="32.5" y="0" type="line"/>
			<point x="287.5" y="700" type="line"/>
			<point x="279" y="700" type="line"/>
		</contour>
		<contour>
			<point x="227.5" y="0" type="line"/>
			<point x="447.5" y="0" type="line"/>
			<point x="447.5" y="8" type="line"/>
			<point x="227.5" y="8" type="line"/>
		</contour>
		<contour>
			<point x="367.5" y="0" type="line"/>
			<point x="503.5" y="0" type="line"/>
			<point x="503.5" y="8" type="line"/>
			<point x="367.5" y="8" type="line"/>
		</contour>
		<contour>
			<point x="-25" y="0" type="line"/>
			<point x="103" y="0" type="line"/>
			<point x="103" y="8" type="line"/>
			<point x="-25" y="8" type="line"/>
		</contour>
		<contour>
			<point x="287.5" y="0" type="line"/>
			<point x="387.5" y="0" type="line"/>
			<point x="387.5" y="700" type="line"/>
			<point x="287.5" y="700" type="line"/>
		</contour>
		<contour>
			<point x="536.5" y="532" type="line"/>
			<point x="545.5" y="532" type="line"/>
			<point x="520.5" y="700" type="line"/>
			<point x="479.5" y="700" type="line"/>
		</contour>
		<contour>
			<point x="459.5" y="413" type="line"/>
			<point x="487.5" y="413" type="line"/>
			<point x="487.5" y="531" type="line"/>
			<point x="477.5" y="531" type="line"/>
		</contour>
		<contour>
			<point x="477.5" y="303" type="line"/>
			<point x="487.5" y="303" type="line"/>
			<point x="487.5" y="421" type="line"/>
			<point x="459.5" y="421" type="line"/>
		</contour>
		<contour>
			<point x="377.5" y="413" type="line"/>
			<point x="487.5" y="413" type="line"/>
			<point x="487.5" y="421" type="line"/>
			<point x="377.5" y="421" type="line"/>
		</contour>
		<contour>
			<point x="198" y="692" type="line"/>
			<point x="358" y="692" type="line"/>
			<point x="358" y="700" type="line"/>
			<point x="198" y="700" type="line"/>
		</contour>
		<contour>
			<point x="479.5" y="0" type="line"/>
			<point x="520.5" y="0" type="line"/>
			<point x="575.5" y="168" type="line"/>
			<point x="566.5" y="168" type="line"/>
		</contour>
		<contour>
			<point x="387.5" y="692" type="line"/>
			<point x="513.5" y="692" type="line"/>
			<point x="513.5" y="700" type="line"/>
			<point x="387.5" y="700" type="line"/>
		</contour>
		<contour>
			<point x="130" y="279" type="line"/>
			<point x="330" y="279" type="line"/>
			<point x="330" y="369" type="line"/>
			<point x="163" y="369" type="line"/>
		</contour>
	</outline>
</glyph>
<glyph name="A_A.dlig" format="2">
	<advance width="805"/>
	<outline>
		<contour>
			<point x="57" y="99" type="line"/>
			<point x="307" y="99" type="line"/>
			<point x="307" y="107" type="line"/>
			<point x="57" y="107" type="line"/>
		</contour>
		<contour>
			<point x="224" y="737" type="line"/>
			<point x="172" y="544" type="line"/>
			<point x="318" y="0" type="line"/>
			<point x="422" y="0" type="line"/>
		</contour>
		<contour>
			<point x="224" y="737" type="line"/>
			<point x="26" y="0" type="line"/>
			<point x="34" y="0" type="line"/>
			<point x="228" y="722" type="line"/>
		</contour>
		<contour>
			<point x="480" y="8" type="line"/>
			<point x="260" y="8" type="line"/>
			<point x="260" y="0" type="line"/>
			<point x="480" y="0" type="line"/>
		</contour>
		<contour>
			<point x="103" y="8" type="line"/>
			<point x="-25" y="8" type="line"/>
			<point x="-25" y="0" type="line"/>
			<point x="103" y="0" type="line"/>
		</contour>
		<contour>
			<point x="407" y="99" type="line"/>
			<point x="657" y="99" type="line"/>
			<point x="657" y="107" type="line"/>
			<point x="407" y="107" type="line"/>
		</contour>
		<contour>
			<point x="574" y="737" type="line"/>
			<point x="522" y="544" type="line"/>
			<point x="668" y="0" type="line"/>
			<point x="772" y="0" type="line"/>
		</contour>
		<contour>
			<point x="574" y="737" type="line"/>
			<point x="376" y="0" type="line"/>
			<point x="384" y="0" type="line"/>
			<point x="578" y="722" type="line"/>
		</contour>
		<contour>
			<point x="830" y="8" type="line"/>
			<point x="610" y="8" type="line"/>
			<point x="610" y="0" type="line"/>
			<point x="830" y="0" type="line"/>
		</contour>
	</outline>
</glyph>
<glyph name="B.ss01" format="2">
	<advance width="488"/>
	<anchor x="237" y="700" name="top"/>
	<anchor x="237" y="0" name="bottom"/>
	<outline>
		<contour>
			<point x="182" y="396" type="curve"/>
			<point x="182" y="393" type="line"/>
			<point x="326" y="393"/>
			<point x="422" y="424.5"/>
			<point x="422" y="551.5" type="curve" smooth="yes"/>
			<point x="422" y="646.5"/>
			<point x="357" y="700"/>
			<point x="241" y="700" type="curve" smooth="yes"/>
			<point x="182" y="700" type="line"/>
			<point x="182" y="692" type="line"/>
			<point x="204" y="692" type="line" smooth="yes"/>
			<point x="278" y="692"/>
			<point x="327" y="661"/>
			<point x="327" y="538" type="curve" smooth="yes"/>
			<point x="327" y="453"/>
			<point x="298" y="396"/>
		</contour>
		<contour>
			<point x="172" y="0" type="line"/>
			<point x="231" y="0" type="line" smooth="yes"/>
			<point x="380" y="0"/>
			<point x="463" y="39"/>
			<point x="463" y="195" type="curve"/>
			<point x="368" y="195" type="line"/>
			<point x="368" y="83"/>
			<point x="338" y="8"/>
			<point x="194" y="8" type="curve" smooth="yes"/>
			<point x="172" y="8" type="line"/>
		</contour>
		<contour>
			<point x="368" y="195" type="curve"/>
			<point x="463" y="195" type="line"/>
			<point x="463" y="315"/>
			<point x="421.5" y="395"/>
			<point x="231" y="395" type="curve" smooth="yes"/>
			<point x="172" y="395" type="line"/>
			<point x="172" y="387" type="line"/>
			<point x="194" y="387" type="line" smooth="yes"/>
			<point x="308.5" y="387"/>
			<point x="368" y="348.5"/>
		</contour>
		<component base="_part.stemserifs" xOffset="-10"/>
	</outline>
</glyph>
<glyph name="B.ss04" format="2">
	<advance width="468"/>
	<outline>
		<contour>
			<point x="172" y="0" type="line"/>
			<point x="231" y="0" type="line" smooth="yes"/>
			<point x="364" y="0"/>
			<point x="453" y="100.5"/>
			<point x="453" y="251" type="curve"/>
			<point x="353" y="251" type="line"/>
			<point x="353" y="105"/>
			<point x="289.5" y="8"/>
			<point x="194" y="8" type="curve" smooth="yes"/>
			<point x="172" y="8" type="line"/>
		</contour>
		<contour>
			<point x="353" y="251" type="curve"/>
			<point x="453" y="251" type="line"/>
			<point x="453" y="445"/>
			<point x="364" y="500"/>
			<point x="231" y="500" type="curve" smooth="yes"/>
			<point x="172" y="500" type="line"/>
			<point x="172" y="492" type="line"/>
			<point x="194" y="492" type="line" smooth="yes"/>
			<point x="289.5" y="492"/>
			<point x="353" y="438.5"/>
		</contour>
		<contour>
			<point x="172" y="492" type="line"/>
			<point x="194" y="492" type="line" smooth="yes"/>
			<point x="292.5" y="492"/>
			<point x="422.5" y="551.5"/>
			<point x="422.5" y="630.5" type="curve" smooth="yes"/>
			<point x="422.5" y="698"/>
			<point x="327.5" y="700"/>
			<point x="230" y="700" type="curve" smooth="yes"/>
			<point x="172" y="700" type="line"/>
			<point x="172" y="692" type="line"/>
			<point x="194" y="692" type="line" smooth="yes"/>
			<point x="272" y="692"/>
			<point x="326" y="688"/>
			<point x="326" y="626" type="curve" smooth="yes"/>
			<point x="326" y="562.5"/>
			<point x="269.5" y="500"/>
			<point x="194" y="500" type="curve" smooth="yes"/>
			<point x="172" y="500" type="line"/>
		</contour>
		<component base="_part.halfstemleft"/>
	</outline>
</glyph>
<glyph name="C.ss04" format="2">
	<advance width="406"/>
	<guideline x="485" y="307" angle="0"/>
	<guideline x="501" y="40" angle="0"/>
	<anchor x="326" y="350" name="center"/>
	<anchor x="326" y="0" name="bottom"/>
	<anchor x="326" y="700" name="top"/>
	<outline>
		<contour>
			<point x="363" y="0" type="curve"/>
			<point x="363" y="8" type="line"/>
			<point x="220" y="8"/>
			<point x="125" y="140"/>
			<point x="125" y="350" type="curve"/>
			<point x="15" y="350" type="line"/>
			<point x="15" y="135"/>
			<point x="154" y="0"/>
		</contour>
		<contour>
			<point x="15" y="350" type="curve"/>
			<point x="125" y="350" type="line"/>
			<point x="125" y="560"/>
			<point x="220" y="700"/>
			<point x="363" y="700" type="curve"/>
			<point x="363" y="708" type="line"/>
			<point x="154" y="708"/>
			<point x="15" y="565"/>
		</contour>
		<contour>
			<point x="360" y="168" type="line"/>
			<point x="350.5" y="6" type="line"/>
			<point x="363" y="0" type="line"/>
			<point x="391" y="0" type="line"/>
			<point x="369" y="168" type="line"/>
		</contour>
		<contour>
			<point x="360" y="540" type="line"/>
			<point x="369" y="540" type="line"/>
			<point x="391" y="708" type="line"/>
			<point x="363" y="708" type="line"/>
			<point x="350.5" y="701.5" type="line"/>
		</contour>
	</outline>
</glyph>
<glyph name="C.ss06" format="2">
	<advance width="432"/>
	<guideline x="395" y="307" angle="0"/>
	<guideline x="23" y="10" angle="0"/>
	<guideline x="337.5" y="474" angle="90"/>
	<anchor x="250" y="708" name="top"/>
	<anchor x="250" y="-10" name="bottom"/>
	<outline>
		<contour>
			<point x="15" y="350" type="curve"/>
			<point x="125" y="350" type="line"/>
			<point x="125" y="558"/>
			<point x="173" y="700"/>
			<point x="250" y="700" type="curve"/>
			<point x="250" y="708" type="line"/>
			<point x="92" y="708"/>
			<point x="15" y="526"/>
		</contour>
		<contour>
			<point x="250" y="-8" type="curve"/>
			<point x="250" y="0" type="line"/>
			<point x="173" y="0"/>
			<point x="125" y="142"/>
			<point x="125" y="350" type="curve"/>
			<point x="15" y="350" type="line"/>
			<point x="15" y="174"/>
			<point x="92" y="-8"/>
		</contour>
		<contour>
			<point x="250" y="0" type="curve"/>
			<point x="250" y="-8" type="line"/>
			<point x="303" y="-8"/>
			<point x="311.5" y="32"/>
			<point x="365.5" y="32" type="curve" smooth="yes"/>
			<point x="379.5" y="32"/>
			<point x="393.5" y="26"/>
			<point x="398.5" y="18" type="curve"/>
			<point x="406.5" y="20" type="line"/>
			<point x="357.5" y="233" type="line"/>
			<point x="349.5" y="231" type="line"/>
			<point x="364.5" y="120"/>
			<point x="331" y="0"/>
		</contour>
		<contour>
			<point x="342" y="510" type="curve" smooth="yes"/>
			<point x="339" y="477" type="line"/>
			<point x="345" y="477" type="line"/>
			<point x="412" y="703" type="line"/>
			<point x="404" y="705" type="line"/>
			<point x="394" y="679"/>
			<point x="385" y="667"/>
			<point x="369" y="667" type="curve" smooth="yes"/>
			<point x="346" y="667"/>
			<point x="307" y="708"/>
			<point x="250" y="708" type="curve"/>
			<point x="250" y="700" type="line"/>
			<point x="336" y="700"/>
			<point x="351" y="609"/>
		</contour>
	</outline>
</glyph>
<glyph name="Ccedilla.ss01" format="2">
	<advance width="415"/>
	<outline>
		<contour>
			<point x="223.5" y="-217" type="curve"/>
			<point x="230.5" y="-224.5" type="line"/>
			<point x="260.5" y="-197"/>
			<point x="276" y="-170.5"/>
			<point x="276" y="-141.5" type="curve" smooth="yes"/>
			<point x="276" y="-123"/>
			<point x="269.5" y="-104"/>
			<point x="256.5" y="-82.5" type="curve" smooth="yes"/>
			<point x="242.5" y="-59"/>
			<point x="233.5" y="-46.5"/>
			<point x="233.5" y="-32.5" type="curve" smooth="yes"/>
			<point x="233.5" y="-24.5"/>
			<point x="235.5" y="-16"/>
			<point x="243.5" y="-5" type="curve"/>
			<point x="235" y="0" type="line"/>
			<point x="209" y="-33"/>
			<point x="196" y="-54.5"/>
			<point x="196" y="-75.5" type="curve" smooth="yes"/>
			<point x="196" y="-94"/>
			<point x="206.5" y="-112"/>
			<point x="226.5" y="-136" type="curve" smooth="yes"/>
			<point x="240" y="-152"/>
			<point x="247" y="-164"/>
			<point x="247" y="-176" type="curve" smooth="yes"/>
			<point x="247" y="-189"/>
			<point x="239" y="-201"/>
		</contour>
		<component base="C"/>
	</outline>
</glyph>
<glyph name="E.ss01" format="2">
	<advance width="451"/>
	<guideline x="261" y="484" angle="0"/>
	<anchor x="284" y="0" name="ogonek"/>
	<anchor x="213" y="700" name="top"/>
	<anchor x="0" y="700" name="topleft"/>
	<anchor x="213" y="0" name="bottom"/>
	<outline>
		<contour>
			<point x="307" y="0" type="line"/>
			<point x="379" y="1" type="line"/>
			<point x="441" y="263" type="line"/>
			<point x="431" y="263" type="line"/>
		</contour>
		<contour>
			<point x="205" y="0" type="line"/>
			<point x="341" y="0" type="line"/>
			<point x="341" y="8" type="line"/>
			<point x="205" y="8" type="line"/>
		</contour>
		<contour>
			<point x="225" y="692" type="line"/>
			<point x="351" y="692" type="line"/>
			<point x="351" y="700" type="line"/>
			<point x="225" y="700" type="line"/>
		</contour>
		<contour>
			<point x="416" y="557" type="line"/>
			<point x="423" y="564" type="line"/>
			<point x="358" y="700" type="line"/>
			<point x="307" y="700" type="line"/>
			<point x="343" y="625" type="line"/>
		</contour>
		<component base="_part.stemserifs" xOffset="-20"/>
		<component base="_part.wavestrokehorizontal" xOffset="115" yOffset="80"/>
	</outline>
</glyph>
<glyph name="E.ss03" format="2">
	<advance width="451"/>
	<anchor x="284" y="0" name="ogonek"/>
	<anchor x="221" y="700" name="top"/>
	<anchor x="0" y="700" name="topleft"/>
	<anchor x="221" y="0" name="bottom"/>
	<outline>
		<contour>
			<point x="205" y="0" type="line"/>
			<point x="341" y="0" type="line"/>
			<point x="341" y="8" type="line"/>
			<point x="205" y="8" type="line"/>
		</contour>
		<contour>
			<point x="307" y="0" type="line"/>
			<point x="379" y="1" type="line"/>
			<point x="441" y="263" type="line"/>
			<point x="431" y="263" type="line"/>
		</contour>
		<contour>
			<point x="225" y="692" type="line"/>
			<point x="351" y="692" type="line"/>
			<point x="351" y="700" type="line"/>
			<point x="225" y="700" type="line"/>
		</contour>
		<contour>
			<point x="416" y="557" type="line"/>
			<point x="423" y="564" type="line"/>
			<point x="358" y="700" type="line"/>
			<point x="307" y="700" type="line"/>
			<point x="343" y="625" type="line"/>
		</contour>
		<contour>
			<point x="160" y="335" type="curve"/>
			<point x="175" y="317" type="line"/>
			<point x="175" y="340"/>
			<point x="212.5" y="355.5"/>
			<point x="268.5" y="355.5" type="curve"/>
			<point x="345" y="355.5"/>
			<point x="466" y="323.5"/>
			<point x="570.5" y="323.5" type="curve" smooth="yes"/>
			<point x="658" y="323.5"/>
			<point x="747" y="348"/>
			<point x="793" y="384.5" type="curve"/>
			<point x="787.5" y="391" type="line"/>
			<point x="759.5" y="372"/>
			<point x="724.5" y="359.5"/>
			<point x="700" y="359.5" type="curve" smooth="yes"/>
			<point x="629" y="359.5"/>
			<point x="488" y="420.5"/>
			<point x="393" y="420.5" type="curve" smooth="yes"/>
			<point x="306" y="420.5"/>
			<point x="213" y="389.5"/>
		</contour>
		<component base="_part.stemserifs" xOffset="-20"/>
	</outline>
</glyph>
<glyph name="F.ss01" format="2">
	<advance width="399.5"/>
	<guideline x="452" y="699" angle="90"/>
	<outline>
		<contour>
			<point x="75" y="0" type="line"/>
			<point x="295" y="0" type="line"/>
			<point x="295" y="8" type="line"/>
			<point x="75" y="8" type="line"/>
		</contour>
		<contour>
			<point x="381" y="417" type="line"/>
			<point x="391" y="417" type="line"/>
			<point x="379" y="700" type="line"/>
			<point x="317" y="700" type="line"/>
		</contour>
		<contour>
			<point x="225" y="692" type="line"/>
			<point x="371" y="692" type="line"/>
			<point x="371" y="700" type="line"/>
			<point x="225" y="700" type="line"/>
		</contour>
		<component base="_part.stemserifs" xOffset="-20"/>
		<component base="_part.wavestrokehorizontal" xOffset="115" yOffset="-70"/>
	</outline>
</glyph>
<glyph name="G.ss04" format="2">
	<advance width="500"/>
	<guideline x="220" y="427" angle="90"/>
	<guideline x="504" y="-15" angle="0"/>
	<guideline x="339" y="477" angle="90"/>
	<anchor x="326" y="350" name="center"/>
	<anchor x="326" y="0" name="bottom"/>
	<anchor x="326" y="700" name="top"/>
	<outline>
		<contour>
			<point x="339" y="0" type="line"/>
			<point x="363" y="0" type="line"/>
			<point x="439" y="0" type="line"/>
			<point x="439" y="427" type="line"/>
			<point x="339" y="427" type="line"/>
		</contour>
		<contour>
			<point x="363" y="-8" type="curve"/>
			<point x="363" y="0" type="line"/>
			<point x="220" y="0"/>
			<point x="125" y="140"/>
			<point x="125" y="350" type="curve"/>
			<point x="15" y="350" type="line"/>
			<point x="15" y="135"/>
			<point x="154" y="-8"/>
		</contour>
		<contour>
			<point x="15" y="350" type="curve"/>
			<point x="125" y="350" type="line"/>
			<point x="125" y="560"/>
			<point x="220" y="700"/>
			<point x="363" y="700" type="curve"/>
			<point x="363" y="708" type="line"/>
			<point x="154" y="708"/>
			<point x="15" y="565"/>
		</contour>
		<contour>
			<point x="363" y="10" type="line"/>
			<point x="363" y="-8" type="line"/>
			<point x="387.5" y="-8"/>
			<point x="418" y="-5"/>
			<point x="439" y="0" type="curve"/>
			<point x="439" y="9" type="line"/>
		</contour>
		<contour>
			<point x="360" y="540" type="line"/>
			<point x="369" y="540" type="line"/>
			<point x="391" y="708" type="line"/>
			<point x="363" y="708" type="line"/>
			<point x="350.5" y="701.5" type="line"/>
		</contour>
		<component base="_part.longserif" xOffset="245" yOffset="-273"/>
		<component base="_part.longserif" xOffset="185" yOffset="-273"/>
	</outline>
</glyph>
<glyph name="G.ss06" format="2">
	<advance width="482"/>
	<guideline x="173" y="700" angle="90"/>
	<guideline x="504" y="-15" angle="0"/>
	<guideline x="277" y="264.5" angle="90"/>
	<anchor x="250" y="700" name="top"/>
	<anchor x="250" y="0" name="bottom"/>
	<outline>
		<contour>
			<point x="259" y="-8" type="curve"/>
			<point x="259" y="0" type="line"/>
			<point x="182" y="0"/>
			<point x="125" y="142"/>
			<point x="125" y="350" type="curve"/>
			<point x="15" y="350" type="line"/>
			<point x="15" y="174"/>
			<point x="101" y="-8"/>
		</contour>
		<contour>
			<point x="15" y="350" type="curve"/>
			<point x="125" y="350" type="line"/>
			<point x="125" y="558"/>
			<point x="173" y="700"/>
			<point x="250" y="700" type="curve"/>
			<point x="250" y="708" type="line"/>
			<point x="92" y="708"/>
			<point x="15" y="526"/>
		</contour>
		<contour>
			<point x="259" y="0" type="curve"/>
			<point x="259" y="-8" type="line"/>
			<point x="344.5" y="-8"/>
			<point x="393.5" y="46"/>
			<point x="457" y="46" type="curve"/>
			<point x="457" y="54" type="line"/>
			<point x="442.5" y="55.5"/>
			<point x="439" y="76.5"/>
			<point x="439" y="160.5" type="curve" smooth="yes"/>
			<point x="439" y="262" type="line" smooth="yes"/>
			<point x="439" y="347.5"/>
			<point x="446" y="369"/>
			<point x="457" y="369" type="curve"/>
			<point x="457" y="377" type="line"/>
			<point x="339" y="377" type="line"/>
			<point x="339" y="61.5" type="line" smooth="yes"/>
			<point x="339" y="31.5"/>
			<point x="333" y="21.5"/>
			<point x="309.5" y="10" type="curve" smooth="yes"/>
			<point x="296.5" y="3.5"/>
			<point x="279.5" y="0"/>
		</contour>
		<contour>
			<point x="342" y="510" type="curve" smooth="yes"/>
			<point x="339" y="477" type="line"/>
			<point x="345" y="477" type="line"/>
			<point x="412" y="703" type="line"/>
			<point x="404" y="705" type="line"/>
			<point x="394" y="679"/>
			<point x="385" y="667"/>
			<point x="369" y="667" type="curve" smooth="yes"/>
			<point x="346" y="667"/>
			<point x="307" y="708"/>
			<point x="250" y="708" type="curve"/>
			<point x="250" y="700" type="line"/>
			<point x="336" y="700"/>
			<point x="351" y="609"/>
		</contour>
		<component base="_part.longserif" xOffset="185" yOffset="-323"/>
	</outline>
</glyph>
<glyph name="H.ss01" format="2">
	<advance width="540"/>
	<outline>
		<contour>
			<point x="279" y="297" type="curve" smooth="yes"/>
			<point x="316.5" y="297"/>
			<point x="357" y="334"/>
			<point x="380" y="382" type="curve"/>
			<point x="365" y="397" type="line"/>
			<point x="365" y="387"/>
			<point x="357" y="381"/>
			<point x="346" y="381" type="curve" smooth="yes"/>
			<point x="317" y="381"/>
			<point x="299" y="426"/>
			<point x="261" y="426" type="curve" smooth="yes"/>
			<point x="223.5" y="426"/>
			<point x="183" y="389"/>
			<point x="160" y="341" type="curve"/>
			<point x="175" y="326" type="line"/>
			<point x="175" y="336"/>
			<point x="183" y="342"/>
			<point x="194" y="342" type="curve" smooth="yes"/>
			<point x="223" y="342"/>
			<point x="241" y="297"/>
		</contour>
		<component base="_part.stemserifs" xOffset="-20"/>
		<component base="_part.stemserifs" xOffset="270"/>
	</outline>
</glyph>
<glyph name="H.ss03" format="2">
	<advance width="560"/>
	<anchor x="280" y="350" name="center"/>
	<anchor x="280" y="700" name="top"/>
	<anchor x="10" y="700" name="topleft"/>
	<anchor x="280" y="0" name="bottom"/>
	<outline>
		<contour>
			<point x="385" y="450.5" type="curve"/>
			<point x="393" y="454" type="line"/>
			<point x="392.5" y="519.5"/>
			<point x="347.5" y="563.5"/>
			<point x="280" y="563.5" type="curve" smooth="yes"/>
			<point x="196.5" y="563.5"/>
			<point x="126.5" y="500"/>
			<point x="46" y="500" type="curve" smooth="yes"/>
			<point x="6.5" y="500"/>
			<point x="-38.5" y="512.5"/>
			<point x="-66.5" y="531.5" type="curve"/>
			<point x="-72" y="525" type="line"/>
			<point x="-28.5" y="491"/>
			<point x="46.5" y="468"/>
			<point x="115.5" y="468" type="curve" smooth="yes"/>
			<point x="200" y="468"/>
			<point x="241.5" y="500"/>
			<point x="303" y="500" type="curve"/>
			<point x="352" y="500"/>
			<point x="385" y="480"/>
		</contour>
		<component base="_part.stemserifs"/>
		<component base="_part.stemserifs" xOffset="290"/>
	</outline>
</glyph>
<glyph name="H_E.dlig" format="2">
	<advance width="713"/>
	<anchor x="270" y="350" name="center"/>
	<outline>
		<contour>
			<point x="75" y="0" type="line"/>
			<point x="175" y="0" type="line"/>
			<point x="175" y="700" type="line"/>
			<point x="75" y="700" type="line"/>
		</contour>
		<contour>
			<point x="165" y="419" type="line"/>
			<point x="375" y="419" type="line"/>
			<point x="375" y="427" type="line"/>
			<point x="165" y="427" type="line"/>
		</contour>
		<contour>
			<point x="365" y="0" type="line"/>
			<point x="465" y="0" type="line"/>
			<point x="465" y="700" type="line"/>
			<point x="365" y="700" type="line"/>
		</contour>
		<contour>
			<point x="625" y="8" type="line"/>
			<point x="305" y="8" type="line"/>
			<point x="305" y="0" type="line"/>
			<point x="625" y="0" type="line"/>
		</contour>
		<contour>
			<point x="235" y="8" type="line"/>
			<point x="15" y="8" type="line"/>
			<point x="15" y="0" type="line"/>
			<point x="235" y="0" type="line"/>
		</contour>
		<contour>
			<point x="607" y="0" type="line"/>
			<point x="648" y="0" type="line"/>
			<point x="703" y="168" type="line"/>
			<point x="694" y="168" type="line"/>
		</contour>
		<contour>
			<point x="555" y="309" type="line"/>
			<point x="565" y="309" type="line"/>
			<point x="565" y="427" type="line"/>
			<point x="537" y="427" type="line"/>
		</contour>
		<contour>
			<point x="455" y="419" type="line"/>
			<point x="565" y="419" type="line"/>
			<point x="565" y="427" type="line"/>
			<point x="455" y="427" type="line"/>
		</contour>
		<contour>
			<point x="537" y="419" type="line"/>
			<point x="565" y="419" type="line"/>
			<point x="565" y="537" type="line"/>
			<point x="555" y="537" type="line"/>
		</contour>
		<contour>
			<point x="664" y="532" type="line"/>
			<point x="673" y="532" type="line"/>
			<point x="648" y="700" type="line"/>
			<point x="607" y="700" type="line"/>
		</contour>
		<contour>
			<point x="515" y="692" type="line"/>
			<point x="641" y="692" type="line"/>
			<point x="641" y="700" type="line"/>
			<point x="515" y="700" type="line"/>
		</contour>
		<contour>
			<point x="365" y="0" type="line"/>
			<point x="465" y="0" type="line"/>
			<point x="465" y="700" type="line"/>
			<point x="365" y="700" type="line"/>
		</contour>
		<contour>
			<point x="305" y="692" type="line"/>
			<point x="525" y="692" type="line"/>
			<point x="525" y="700" type="line"/>
			<point x="305" y="700" type="line"/>
		</contour>
		<contour>
			<point x="235" y="700" type="line"/>
			<point x="15" y="700" type="line"/>
			<point x="15" y="692" type="line"/>
			<point x="235" y="692" type="line"/>
		</contour>
	</outline>
</glyph>
<glyph name="J.ss01" format="2">
	<advance width="459"/>
	<anchor x="336.5" y="700" name="top"/>
	<anchor x="336.5" y="0" name="bottom"/>
	<outline>
		<contour>
			<point x="195" y="-8" type="curve" smooth="yes"/>
			<point x="327.5" y="-8"/>
			<point x="384" y="63.5"/>
			<point x="384" y="181.5" type="curve"/>
			<point x="284" y="178.5" type="line"/>
			<point x="282" y="71.5"/>
			<point x="264.5" y="0"/>
			<point x="195" y="0" type="curve" smooth="yes"/>
			<point x="142" y="0"/>
			<point x="93.5" y="22.5"/>
			<point x="93.5" y="69" type="curve" smooth="yes"/>
			<point x="93.5" y="156.5"/>
			<point x="189.5" y="210.5"/>
			<point x="189.5" y="304" type="curve" smooth="yes"/>
			<point x="189.5" y="391.5"/>
			<point x="104" y="470.5"/>
			<point x="10" y="534" type="curve"/>
			<point x="5" y="527.5" type="line"/>
			<point x="64" y="479.5"/>
			<point x="103.5" y="414.5"/>
			<point x="103.5" y="365" type="curve" smooth="yes"/>
			<point x="103.5" y="291.5"/>
			<point x="42.5" y="239"/>
			<point x="42.5" y="122" type="curve" smooth="yes"/>
			<point x="42.5" y="44"/>
			<point x="111.5" y="-8"/>
		</contour>
		<contour>
			<point x="61" y="532" type="line"/>
			<point x="70" y="532" type="line"/>
			<point x="127" y="700" type="line"/>
			<point x="86" y="700" type="line"/>
		</contour>
		<contour>
			<point x="284" y="178.5" type="line"/>
			<point x="384" y="181.5" type="line"/>
			<point x="384" y="700" type="line"/>
			<point x="284" y="700" type="line"/>
		</contour>
		<contour>
			<point x="110" y="692" type="line"/>
			<point x="444" y="692" type="line"/>
			<point x="444" y="700" type="line"/>
			<point x="110" y="700" type="line"/>
		</contour>
	</outline>
</glyph>
<glyph name="J.ss04" format="2">
	<advance width="393"/>
	<guideline x="34" y="390" angle="90"/>
	<anchor x="209" y="700" name="top"/>
	<anchor x="209" y="0" name="bottom"/>
	<outline>
		<contour>
			<point x="25" y="532" type="line"/>
			<point x="34" y="532" type="line"/>
			<point x="91" y="700" type="line"/>
			<point x="50" y="700" type="line"/>
		</contour>
		<contour>
			<point x="323" y="350" type="line"/>
			<point x="323" y="700" type="line"/>
			<point x="223" y="700" type="line"/>
			<point x="223" y="350" type="line"/>
		</contour>
		<contour>
			<point x="74" y="692" type="line"/>
			<point x="383" y="692" type="line"/>
			<point x="383" y="700" type="line"/>
			<point x="74" y="700" type="line"/>
		</contour>
		<contour>
			<point x="85" y="0" type="line"/>
			<point x="98.5" y="7" type="line"/>
			<point x="80" y="233" type="line"/>
			<point x="70" y="233" type="line"/>
			<point x="47" y="0" type="line"/>
		</contour>
		<contour>
			<point x="85" y="8" type="curve"/>
			<point x="85" y="0" type="line"/>
			<point x="294" y="0"/>
			<point x="323" y="135"/>
			<point x="323" y="350" type="curve"/>
			<point x="223" y="350" type="line"/>
			<point x="223" y="140"/>
			<point x="228" y="8"/>
		</contour>
	</outline>
</glyph>
<glyph name="J.ss06" format="2">
	<advance width="261.5"/>
	<anchor x="139" y="700" name="top"/>
	<anchor x="139" y="0" name="bottom"/>
	<outline>
		<contour>
			<point x="186.5" y="70" type="line"/>
			<point x="186.5" y="700" type="line"/>
			<point x="86.5" y="700" type="line"/>
			<point x="86.5" y="80" type="line"/>
		</contour>
		<contour>
			<point x="-42" y="-19.5" type="curve"/>
			<point x="-50" y="-19.5" type="line"/>
			<point x="-50" y="-63.5"/>
			<point x="-7" y="-93"/>
			<point x="36" y="-93" type="curve" smooth="yes"/>
			<point x="126.5" y="-93"/>
			<point x="186.5" y="-54"/>
			<point x="186.5" y="70" type="curve"/>
			<point x="86.5" y="80" type="line"/>
			<point x="86.5" y="-52"/>
			<point x="76.5" y="-85"/>
			<point x="36" y="-85" type="curve" smooth="yes"/>
			<point x="-2" y="-85"/>
			<point x="-42" y="-59"/>
		</contour>
		<component base="_part.longserif" xScale="-1" xOffset="281.500"/>
	</outline>
</glyph>
<glyph name="J.ss09" format="2">
	<advance width="770"/>
	<guideline x="14" y="500" angle="90"/>
	<guideline x="506" y="-8" angle="0"/>
	<anchor x="647.5" y="700" name="top"/>
	<anchor x="647.5" y="0" name="bottom"/>
	<outline>
		<contour>
			<point x="372" y="532" type="line"/>
			<point x="381" y="532" type="line"/>
			<point x="438" y="700" type="line"/>
			<point x="397" y="700" type="line"/>
		</contour>
		<contour>
			<point x="595" y="178.5" type="line"/>
			<point x="695" y="181.5" type="line"/>
			<point x="695" y="700" type="line"/>
			<point x="595" y="700" type="line"/>
		</contour>
		<contour>
			<point x="421" y="692" type="line"/>
			<point x="755" y="692" type="line"/>
			<point x="755" y="700" type="line"/>
			<point x="421" y="700" type="line"/>
		</contour>
		<contour>
			<point x="15" y="90.5" type="curve" smooth="yes"/>
			<point x="15" y="22.5"/>
			<point x="56" y="-8"/>
			<point x="105.5" y="-8" type="curve" smooth="yes"/>
			<point x="182" y="-8"/>
			<point x="280.5" y="65"/>
			<point x="280.5" y="198" type="curve" smooth="yes"/>
			<point x="280.5" y="250.5"/>
			<point x="258.5" y="303"/>
			<point x="221" y="339.5" type="curve" smooth="yes"/>
			<point x="189" y="370.5"/>
			<point x="110" y="426"/>
			<point x="110" y="500" type="curve" smooth="yes"/>
			<point x="110" y="597"/>
			<point x="205.5" y="595"/>
			<point x="289.5" y="545" type="curve" smooth="yes"/>
			<point x="355.5" y="506"/>
			<point x="414.5" y="437.5"/>
			<point x="414.5" y="365" type="curve" smooth="yes"/>
			<point x="414.5" y="301.5"/>
			<point x="353.5" y="194"/>
			<point x="353.5" y="122" type="curve" smooth="yes"/>
			<point x="353.5" y="44"/>
			<point x="422.5" y="-8"/>
			<point x="506" y="-8" type="curve" smooth="yes"/>
			<point x="638.5" y="-8"/>
			<point x="695" y="63.5"/>
			<point x="695" y="181.5" type="curve"/>
			<point x="595" y="178.5" type="line"/>
			<point x="593" y="71.5"/>
			<point x="575.5" y="0"/>
			<point x="506" y="0" type="curve" smooth="yes"/>
			<point x="453" y="0"/>
			<point x="404.5" y="22.5"/>
			<point x="404.5" y="69" type="curve" smooth="yes"/>
			<point x="404.5" y="156.5"/>
			<point x="500.5" y="224"/>
			<point x="500.5" y="304" type="curve" smooth="yes"/>
			<point x="500.5" y="385.5"/>
			<point x="400" y="491.5"/>
			<point x="293.5" y="552" type="curve" smooth="yes"/>
			<point x="241.5" y="581.5"/>
			<point x="188" y="600.5"/>
			<point x="144" y="600.5" type="curve" smooth="yes"/>
			<point x="66.5" y="600.5"/>
			<point x="15" y="560.5"/>
			<point x="15" y="500" type="curve" smooth="yes"/>
			<point x="15" y="407"/>
			<point x="135.5" y="353.5"/>
			<point x="202" y="310" type="curve" smooth="yes"/>
			<point x="246" y="281"/>
			<point x="270.5" y="249.5"/>
			<point x="270.5" y="211" type="curve" smooth="yes"/>
			<point x="270.5" y="145"/>
			<point x="198.5" y="108"/>
			<point x="143" y="108" type="curve" smooth="yes"/>
			<point x="100.5" y="108"/>
			<point x="64.5" y="130"/>
			<point x="64.5" y="168.5" type="curve" smooth="yes"/>
			<point x="64.5" y="191.5"/>
			<point x="77.5" y="216"/>
			<point x="104" y="231" type="curve"/>
			<point x="98" y="237" type="line"/>
			<point x="48" y="203"/>
			<point x="15" y="151"/>
		</contour>
	</outline>
</glyph>
<glyph name="K.ss04" format="2">
	<advance width="496"/>
	<anchor x="238" y="700" name="top"/>
	<anchor x="238" y="0" name="bottom"/>
	<outline>
		<contour>
			<point x="340" y="0" type="line"/>
			<point x="441" y="0" type="line"/>
			<point x="273" y="597.5" type="line"/>
			<point x="196" y="540.5" type="line"/>
		</contour>
		<contour>
			<point x="271" y="0" type="line"/>
			<point x="491" y="0" type="line"/>
			<point x="491" y="8" type="line"/>
			<point x="271" y="8" type="line"/>
		</contour>
		<contour>
			<point x="137" y="500" type="line"/>
			<point x="151.5" y="500" type="line"/>
			<point x="416.5" y="700" type="line"/>
			<point x="402" y="700" type="line"/>
		</contour>
		<contour>
			<point x="271" y="692" type="line"/>
			<point x="431" y="692" type="line"/>
			<point x="431" y="700" type="line"/>
			<point x="271" y="700" type="line"/>
		</contour>
		<component base="_part.stemserifs" xOffset="-20"/>
	</outline>
</glyph>
<glyph name="L.ss01" format="2">
	<advance width="393"/>
	<outline>
		<contour>
			<point x="283" y="0" type="curve"/>
			<point x="291" y="0" type="line"/>
			<point x="345" y="61"/>
			<point x="371" y="109"/>
			<point x="371" y="167" type="curve" smooth="yes"/>
			<point x="371" y="208"/>
			<point x="358" y="243"/>
			<point x="347" y="275" type="curve" smooth="yes"/>
			<point x="340" y="297"/>
			<point x="337" y="322"/>
			<point x="337" y="346" type="curve" smooth="yes"/>
			<point x="337" y="394"/>
			<point x="350" y="441"/>
			<point x="378" y="471" type="curve"/>
			<point x="372" y="476" type="line"/>
			<point x="308" y="410"/>
			<point x="257" y="339"/>
			<point x="257" y="260" type="curve" smooth="yes"/>
			<point x="257" y="223"/>
			<point x="268" y="197"/>
			<point x="279" y="171" type="curve" smooth="yes"/>
			<point x="292" y="140"/>
			<point x="299" y="112"/>
			<point x="299" y="83" type="curve" smooth="yes"/>
			<point x="299" y="58"/>
			<point x="294" y="31"/>
		</contour>
		<contour>
			<point x="205" y="0" type="line"/>
			<point x="291" y="0" type="line"/>
			<point x="291" y="8" type="line"/>
			<point x="205" y="8" type="line"/>
		</contour>
		<component base="_part.stemserifs" xOffset="-20"/>
	</outline>
</glyph>
<glyph name="L.ss02" format="2">
	<advance width="373"/>
	<anchor x="187" y="350" name="center"/>
	<anchor x="187" y="700" name="top"/>
	<anchor x="373" y="700" name="topright"/>
	<anchor x="187" y="0" name="bottom"/>
	<outline>
		<contour>
			<point x="294" y="0" type="line"/>
			<point x="346" y="0" type="line"/>
			<point x="368" y="383" type="line"/>
			<point x="358" y="383" type="line"/>
		</contour>
		<contour>
			<point x="225" y="0" type="line"/>
			<point x="311" y="0" type="line"/>
			<point x="311" y="8" type="line"/>
			<point x="225" y="8" type="line"/>
		</contour>
		<component base="_part.stemserifs" xOffset="-20"/>
	</outline>
</glyph>
<glyph name="L.ss07" format="2">
	<advance width="403"/>
	<outline>
		<contour>
			<point x="234" y="0" type="line"/>
			<point x="296" y="0" type="line"/>
			<point x="328" y="283" type="line"/>
			<point x="318" y="283" type="line"/>
		</contour>
		<contour>
			<point x="225" y="0" type="line"/>
			<point x="326" y="0" type="line"/>
			<point x="326" y="8" type="line"/>
			<point x="225" y="8" type="line"/>
		</contour>
		<contour>
			<point x="307" y="0" type="line"/>
			<point x="348" y="0" type="line"/>
			<point x="403" y="168" type="line"/>
			<point x="394" y="168" type="line"/>
		</contour>
		<component base="_part.stemserifs" xOffset="-20"/>
	</outline>
</glyph>
<glyph name="L_L.dlig" format="2">
	<advance width="654.5"/>
	<outline>
		<contour>
			<point x="75" y="0" type="line"/>
			<point x="175" y="0" type="line"/>
			<point x="175" y="700" type="line"/>
			<point x="75" y="700" type="line"/>
		</contour>
		<contour>
			<point x="15" y="0" type="line"/>
			<point x="556.5" y="0" type="line"/>
			<point x="556.5" y="8" type="line"/>
			<point x="15" y="8" type="line"/>
		</contour>
		<contour>
			<point x="284.5" y="283" type="line"/>
			<point x="554.5" y="283" type="line"/>
			<point x="554.5" y="291" type="line"/>
			<point x="284.5" y="291" type="line"/>
		</contour>
		<contour>
			<point x="515.5" y="0" type="line"/>
			<point x="567.5" y="0" type="line"/>
			<point x="639.5" y="233" type="line"/>
			<point x="629.5" y="233" type="line"/>
		</contour>
		<contour>
			<point x="15" y="692" type="line"/>
			<point x="235" y="692" type="line"/>
			<point x="235" y="700" type="line"/>
			<point x="15" y="700" type="line"/>
		</contour>
		<contour>
			<point x="344.5" y="283" type="line"/>
			<point x="444.5" y="283" type="line"/>
			<point x="444.5" y="700" type="line"/>
			<point x="344.5" y="700" type="line"/>
		</contour>
		<contour>
			<point x="515.5" y="283" type="line"/>
			<point x="567.5" y="283" type="line"/>
			<point x="639.5" y="516" type="line"/>
			<point x="629.5" y="516" type="line"/>
		</contour>
		<contour>
			<point x="284.5" y="692" type="line"/>
			<point x="504.5" y="692" type="line"/>
			<point x="504.5" y="700" type="line"/>
			<point x="284.5" y="700" type="line"/>
		</contour>
	</outline>
</glyph>
<glyph name="M.ss03" format="2">
	<advance width="561"/>
	<outline>
		<contour>
			<point x="426" y="0" type="line"/>
			<point x="528" y="0" type="line"/>
			<point x="358.5" y="737" type="line"/>
			<point x="309" y="504" type="line"/>
		</contour>
		<contour>
			<point x="26" y="0" type="line"/>
			<point x="34.5" y="0" type="line"/>
			<point x="199" y="712" type="line"/>
			<point x="195.5" y="737" type="line"/>
		</contour>
		<contour>
			<point x="199.5" y="-50" type="line"/>
			<point x="256" y="248" type="line"/>
			<point x="195.5" y="737" type="line"/>
			<point x="128" y="443" type="line"/>
		</contour>
		<contour>
			<point x="199.5" y="-50" type="line"/>
			<point x="362.5" y="714" type="line"/>
			<point x="358.5" y="737" type="line"/>
			<point x="199.5" y="-11" type="line"/>
		</contour>
		<component base="_part.longserif" xOffset="331" yOffset="-692"/>
		<component base="_part.shortserif" xOffset="-60" yOffset="-692"/>
	</outline>
</glyph>
<glyph name="M.ss04" format="2">
	<advance width="512.5"/>
	<outline>
		<contour>
			<point x="337.5" y="0" type="line"/>
			<point x="437.5" y="0" type="line"/>
			<point x="437.5" y="700" type="line"/>
			<point x="352" y="700" type="line"/>
			<point x="337.5" y="680" type="line"/>
		</contour>
		<contour>
			<point x="203" y="484" type="line"/>
			<point x="259.5" y="561.5" type="line"/>
			<point x="162.5" y="700" type="line"/>
			<point x="52.5" y="700" type="line"/>
		</contour>
		<contour>
			<point x="204" y="482.5" type="line"/>
			<point x="357" y="700" type="line"/>
			<point x="347" y="700" type="line"/>
			<point x="199.5" y="489" type="line"/>
		</contour>
		<component base="_part.stemthin"/>
		<component base="_part.longserif" xScale="-1" yScale="-1" xOffset="532.500" yOffset="700"/>
		<component base="_part.shortserif" xOffset="334.500"/>
	</outline>
</glyph>
<glyph name="M.ss06" format="2">
	<advance width="562"/>
	<anchor x="281" y="700" name="top"/>
	<anchor x="281" y="0" name="bottom"/>
	<outline>
		<contour>
			<point x="235" y="-58" type="line"/>
			<point x="278" y="199.5" type="line"/>
			<point x="194" y="700" type="line"/>
			<point x="102" y="700" type="line"/>
		</contour>
		<contour>
			<point x="237.5" y="0" type="line"/>
			<point x="235" y="-58" type="line"/>
			<point x="368" y="700" type="line"/>
			<point x="360" y="700" type="line"/>
		</contour>
		<contour>
			<point x="65" y="0" type="line"/>
			<point x="73" y="0" type="line"/>
			<point x="105" y="700" type="line"/>
			<point x="97" y="700" type="line"/>
		</contour>
		<contour>
			<point x="397" y="0" type="line"/>
			<point x="497" y="0" type="line"/>
			<point x="465" y="700" type="line"/>
			<point x="365" y="700" type="line"/>
		</contour>
		<component base="_part.longserif" xScale="-1" yScale="-1" xOffset="592" yOffset="700"/>
		<component base="_part.shortserif" xOffset="364"/>
		<component base="_part.shortserif"/>
		<component base="_part.shortserif" xOffset="-29.938" yOffset="-692.180"/>
	</outline>
</glyph>
<glyph name="O.ss03" format="2">
	<advance width="510"/>
	<guideline x="-54" y="-8" angle="0"/>
	<guideline x="125" y="350" angle="0"/>
	<anchor x="255" y="350" name="center"/>
	<anchor x="471" y="10" name="ogonek"/>
	<anchor x="255" y="700" name="top"/>
	<anchor x="505" y="700" name="topright"/>
	<anchor x="5" y="700" name="topleft"/>
	<anchor x="255" y="0" name="bottom"/>
	<outline>
		<contour>
			<point x="385" y="350" type="curve"/>
			<point x="495" y="350" type="line"/>
			<point x="495" y="526"/>
			<point x="428" y="708"/>
			<point x="255" y="708" type="curve"/>
			<point x="255" y="700" type="line"/>
			<point x="347" y="700"/>
			<point x="385" y="558"/>
		</contour>
		<contour>
			<point x="255" y="-8" type="curve"/>
			<point x="255" y="0" type="line"/>
			<point x="163" y="0"/>
			<point x="125" y="142"/>
			<point x="125" y="350" type="curve"/>
			<point x="15" y="350" type="line"/>
			<point x="15" y="174"/>
			<point x="82" y="-8"/>
		</contour>
		<contour>
			<point x="255" y="0" type="curve"/>
			<point x="255" y="-8" type="line"/>
			<point x="428" y="-8"/>
			<point x="495" y="174"/>
			<point x="495" y="350" type="curve"/>
			<point x="385" y="350" type="line"/>
			<point x="385" y="142"/>
			<point x="347" y="0"/>
		</contour>
		<contour>
			<point x="255" y="299" type="curve" smooth="yes"/>
			<point x="283" y="299"/>
			<point x="306" y="322"/>
			<point x="306" y="350" type="curve" smooth="yes"/>
			<point x="306" y="378"/>
			<point x="283" y="401"/>
			<point x="255" y="401" type="curve" smooth="yes"/>
			<point x="227" y="401"/>
			<point x="204" y="378"/>
			<point x="204" y="350" type="curve" smooth="yes"/>
			<point x="204" y="322"/>
			<point x="227" y="299"/>
		</contour>
		<contour>
			<point x="15" y="350" type="curve"/>
			<point x="125" y="350" type="line"/>
			<point x="125" y="558"/>
			<point x="163" y="700"/>
			<point x="255" y="700" type="curve"/>
			<point x="255" y="708" type="line"/>
			<point x="82" y="708"/>
			<point x="15" y="526"/>
		</contour>
	</outline>
</glyph>
<glyph name="O.ss04" format="2">
	<advance width="726"/>
	<anchor x="363" y="350" name="center"/>
	<anchor x="653" y="10" name="ogonek"/>
	<anchor x="363" y="700" name="top"/>
	<anchor x="706" y="700" name="topright"/>
	<anchor x="20" y="700" name="topleft"/>
	<anchor x="363" y="0" name="bottom"/>
	<outline>
		<contour>
			<point x="363" y="-8" type="curve"/>
			<point x="363" y="0" type="line"/>
			<point x="220" y="0"/>
			<point x="125" y="140"/>
			<point x="125" y="350" type="curve"/>
			<point x="15" y="350" type="line"/>
			<point x="15" y="135"/>
			<point x="154" y="-8"/>
		</contour>
		<contour>
			<point x="15" y="350" type="curve"/>
			<point x="125" y="350" type="line"/>
			<point x="125" y="560"/>
			<point x="220" y="700"/>
			<point x="363" y="700" type="curve"/>
			<point x="363" y="708" type="line"/>
			<point x="154" y="708"/>
			<point x="15" y="565"/>
		</contour>
		<contour>
			<point x="363" y="0" type="curve"/>
			<point x="363" y="-8" type="line"/>
			<point x="572" y="-8"/>
			<point x="711" y="135"/>
			<point x="711" y="350" type="curve"/>
			<point x="601" y="350" type="line"/>
			<point x="601" y="140"/>
			<point x="506" y="0"/>
		</contour>
		<contour>
			<point x="601" y="350" type="curve"/>
			<point x="711" y="350" type="line"/>
			<point x="711" y="565"/>
			<point x="572" y="708"/>
			<point x="363" y="708" type="curve"/>
			<point x="363" y="700" type="line"/>
			<point x="506" y="700"/>
			<point x="601" y="560"/>
		</contour>
	</outline>
</glyph>
<glyph name="Oslash.ss04" format="2">
	<advance width="726"/>
	<outline>
		<contour>
			<point x="181.5" y="-50" type="line"/>
			<point x="194.5" y="-50" type="line"/>
			<point x="544.5" y="750" type="line"/>
			<point x="531.5" y="750" type="line"/>
		</contour>
		<component base="O.ss04"/>
	</outline>
</glyph>
<glyph name="P.ss04" format="2">
	<advance width="437.5"/>
	<outline>
		<contour>
			<point x="172" y="492" type="line"/>
			<point x="194" y="492" type="line" smooth="yes"/>
			<point x="292.5" y="492"/>
			<point x="422.5" y="551.5"/>
			<point x="422.5" y="630.5" type="curve" smooth="yes"/>
			<point x="422.5" y="698"/>
			<point x="327.5" y="700"/>
			<point x="230" y="700" type="curve" smooth="yes"/>
			<point x="172" y="700" type="line"/>
			<point x="172" y="692" type="line"/>
			<point x="194" y="692" type="line" smooth="yes"/>
			<point x="272" y="692"/>
			<point x="326" y="688"/>
			<point x="326" y="626" type="curve" smooth="yes"/>
			<point x="326" y="562.5"/>
			<point x="269.5" y="500"/>
			<point x="194" y="500" type="curve" smooth="yes"/>
			<point x="172" y="500" type="line"/>
		</contour>
		<component base="_part.halfstemleft"/>
	</outline>
</glyph>
<glyph name="P.ss06" format="2">
	<advance width="463"/>
	<anchor x="227" y="700" name="top"/>
	<anchor x="227" y="0" name="bottom"/>
	<outline>
		<contour>
			<point x="353" y="500" type="curve"/>
			<point x="448" y="500" type="line"/>
			<point x="448" y="630"/>
			<point x="359" y="700"/>
			<point x="231" y="700" type="curve" smooth="yes"/>
			<point x="172" y="700" type="line"/>
			<point x="172" y="692" type="line"/>
			<point x="194" y="692" type="line" smooth="yes"/>
			<point x="281" y="692"/>
			<point x="353" y="638"/>
		</contour>
		<contour>
			<point x="172" y="305" type="line"/>
			<point x="231" y="305" type="line" smooth="yes"/>
			<point x="359" y="305"/>
			<point x="448" y="377"/>
			<point x="448" y="500" type="curve"/>
			<point x="353" y="500" type="line"/>
			<point x="353" y="382"/>
			<point x="289" y="313"/>
			<point x="194" y="313" type="curve" smooth="yes"/>
			<point x="172" y="313" type="line"/>
		</contour>
		<component base="_part.stemserifs" xOffset="-20"/>
	</outline>
</glyph>
<glyph name="Q.ss03" format="2">
	<advance width="510"/>
	<outline>
		<contour>
			<point x="373.5" y="-145" type="curve"/>
			<point x="373.5" y="-137" type="line"/>
			<point x="332.5" y="-137"/>
			<point x="322.5" y="-82"/>
			<point x="322.5" y="0" type="curve"/>
			<point x="227.5" y="0" type="line"/>
			<point x="227.5" y="-104.5"/>
			<point x="268.5" y="-145"/>
		</contour>
		<contour>
			<point x="176.5" y="145" type="curve"/>
			<point x="176.5" y="137" type="line"/>
			<point x="217.5" y="137"/>
			<point x="227.5" y="82"/>
			<point x="227.5" y="0" type="curve"/>
			<point x="322.5" y="0" type="line"/>
			<point x="322.5" y="104.5"/>
			<point x="281.5" y="145"/>
		</contour>
		<component base="O.ss03"/>
	</outline>
</glyph>
<glyph name="Q.ss04" format="2">
	<advance width="726"/>
	<outline>
		<contour>
			<point x="487" y="-101" type="curve" smooth="yes"/>
			<point x="533.5" y="-101"/>
			<point x="589.5" y="-73.5"/>
			<point x="627" y="-32" type="curve"/>
			<point x="621.5" y="-26.5" type="line"/>
			<point x="590.5" y="-59"/>
			<point x="546" y="-80.5"/>
			<point x="509.5" y="-80.5" type="curve" smooth="yes"/>
			<point x="433.5" y="-80.5"/>
			<point x="385" y="-41"/>
			<point x="344.5" y="76" type="curve" smooth="yes"/>
			<point x="314" y="164.5"/>
			<point x="297" y="186.5"/>
			<point x="260.5" y="186.5" type="curve" smooth="yes"/>
			<point x="237" y="186.5"/>
			<point x="199" y="162"/>
			<point x="166" y="125.5" type="curve"/>
			<point x="167.5" y="117" type="line"/>
			<point x="178.5" y="127"/>
			<point x="191.5" y="134"/>
			<point x="200" y="134" type="curve" smooth="yes"/>
			<point x="230" y="134"/>
			<point x="250" y="91"/>
			<point x="273" y="42" type="curve" smooth="yes"/>
			<point x="312.5" y="-44"/>
			<point x="398" y="-101"/>
		</contour>
		<component base="O.ss04"/>
	</outline>
</glyph>
<glyph name="Q.ss06" format="2">
	<advance width="480"/>
	<anchor x="295" y="700" name="top"/>
	<anchor x="295" y="0" name="bottom"/>
	<outline>
		<contour>
			<point x="300" y="-104" type="curve" smooth="yes"/>
			<point x="328" y="-104"/>
			<point x="358" y="-82"/>
			<point x="375.5" y="-48.5" type="curve"/>
			<point x="368" y="-45" type="line"/>
			<point x="363" y="-56"/>
			<point x="349" y="-70.5"/>
			<point x="334" y="-70.5" type="curve" smooth="yes"/>
			<point x="318" y="-70.5"/>
			<point x="308.5" y="-51.5"/>
			<point x="288" y="25.5" type="curve" smooth="yes"/>
			<point x="265.5" y="110.5"/>
			<point x="254" y="132"/>
			<point x="224.5" y="132" type="curve" smooth="yes"/>
			<point x="198" y="132"/>
			<point x="177" y="119.5"/>
			<point x="147.5" y="101" type="curve"/>
			<point x="150" y="93.5" type="line"/>
			<point x="158" y="98.5"/>
			<point x="165" y="101"/>
			<point x="171" y="101" type="curve" smooth="yes"/>
			<point x="193.5" y="101"/>
			<point x="204" y="83.5"/>
			<point x="223" y="12.5" type="curve" smooth="yes"/>
			<point x="249" y="-80.5"/>
			<point x="264.5" y="-104"/>
		</contour>
		<component base="O"/>
	</outline>
</glyph>
<glyph name="R.ss01" format="2">
	<advance width="463"/>
	<anchor x="232" y="700" name="top"/>
	<anchor x="282" y="0" name="bottom"/>
	<outline>
		<contour>
			<point x="457" y="-8" type="curve" smooth="yes"/>
			<point x="480" y="-8"/>
			<point x="500" y="-4"/>
			<point x="508" y="1" type="curve"/>
			<point x="505" y="8" type="line"/>
			<point x="502" y="7"/>
			<point x="497" y="6"/>
			<point x="494" y="6" type="curve" smooth="yes"/>
			<point x="389" y="6"/>
			<point x="415" y="44"/>
			<point x="356" y="144" type="curve" smooth="yes"/>
			<point x="324.5" y="199"/>
			<point x="259" y="213"/>
			<point x="172" y="213" type="curve"/>
			<point x="172" y="205" type="line"/>
			<point x="235" y="205"/>
			<point x="256" y="184.5"/>
			<point x="276.5" y="103" type="curve" smooth="yes"/>
			<point x="291" y="48.5"/>
			<point x="332" y="-8"/>
		</contour>
		<contour>
			<point x="172" y="205" type="line"/>
			<point x="231" y="205" type="line" smooth="yes"/>
			<point x="355" y="205"/>
			<point x="438" y="254"/>
			<point x="438" y="450" type="curve"/>
			<point x="343" y="450" type="line"/>
			<point x="343" y="308"/>
			<point x="313" y="213"/>
			<point x="194" y="213" type="curve" smooth="yes"/>
			<point x="172" y="213" type="line"/>
		</contour>
		<contour>
			<point x="343" y="450" type="curve"/>
			<point x="438" y="450" type="line"/>
			<point x="438" y="600"/>
			<point x="355" y="700"/>
			<point x="231" y="700" type="curve" smooth="yes"/>
			<point x="172" y="700" type="line"/>
			<point x="172" y="692" type="line"/>
			<point x="194" y="692" type="line" smooth="yes"/>
			<point x="283.5" y="692"/>
			<point x="343" y="595"/>
		</contour>
		<component base="_part.stemserifs" xOffset="-20"/>
	</outline>
</glyph>
<glyph name="R.ss03" format="2">
	<advance width="471"/>
	<anchor x="247" y="700" name="top"/>
	<anchor x="247" y="0" name="bottom"/>
	<outline>
		<contour>
			<point x="616" y="-109.5" type="curve"/>
			<point x="616" y="-101.5" type="line"/>
			<point x="603.5" y="-103.5"/>
			<point x="592" y="-104.5"/>
			<point x="581" y="-104.5" type="curve" smooth="yes"/>
			<point x="491" y="-104.5"/>
			<point x="455" y="-40"/>
			<point x="425" y="82" type="curve" smooth="yes"/>
			<point x="404.5" y="167"/>
			<point x="377.5" y="232"/>
			<point x="305" y="232" type="curve" smooth="yes"/>
			<point x="270.5" y="232"/>
			<point x="216" y="213"/>
			<point x="169" y="185" type="curve"/>
			<point x="170" y="183.5" type="line"/>
			<point x="272" y="234"/>
			<point x="295.5" y="164"/>
			<point x="327.5" y="59" type="curve" smooth="yes"/>
			<point x="342.5" y="9.5"/>
			<point x="358" y="-39.5"/>
			<point x="384.5" y="-68.5" type="curve" smooth="yes"/>
			<point x="431.5" y="-120"/>
			<point x="522.5" y="-137.5"/>
		</contour>
		<contour>
			<point x="168" y="186.5" type="curve"/>
			<point x="170" y="183.5" type="line"/>
			<point x="327" y="261"/>
			<point x="432" y="394"/>
			<point x="432" y="516.5" type="curve" smooth="yes"/>
			<point x="432" y="616.5"/>
			<point x="369" y="700"/>
			<point x="231" y="700" type="curve" smooth="yes"/>
			<point x="172" y="700" type="line"/>
			<point x="172" y="692" type="line"/>
			<point x="194" y="692" type="line" smooth="yes"/>
			<point x="293" y="692"/>
			<point x="337" y="615"/>
			<point x="337" y="516.5" type="curve" smooth="yes"/>
			<point x="337" y="387.5"/>
			<point x="271" y="253.5"/>
		</contour>
		<component base="_part.stemserifs" xOffset="-20"/>
	</outline>
</glyph>
<glyph name="R.ss06" format="2">
	<advance width="453"/>
	<anchor x="227" y="700" name="top"/>
	<anchor x="227" y="0" name="bottom"/>
	<outline>
		<contour>
			<point x="477" y="-8" type="curve" smooth="yes"/>
			<point x="500" y="-8"/>
			<point x="520" y="-4"/>
			<point x="528" y="1" type="curve"/>
			<point x="525" y="8" type="line"/>
			<point x="522" y="7"/>
			<point x="517" y="6"/>
			<point x="514" y="6" type="curve" smooth="yes"/>
			<point x="437" y="6"/>
			<point x="407.5" y="71"/>
			<point x="286" y="330" type="curve"/>
			<point x="196" y="305" type="line"/>
			<point x="310" y="54.5"/>
			<point x="350" y="-8"/>
		</contour>
		<contour>
			<point x="172" y="305" type="line"/>
			<point x="231" y="305" type="line" smooth="yes"/>
			<point x="349" y="305"/>
			<point x="438" y="377"/>
			<point x="438" y="500" type="curve"/>
			<point x="343" y="500" type="line"/>
			<point x="343" y="382"/>
			<point x="279" y="313"/>
			<point x="194" y="313" type="curve" smooth="yes"/>
			<point x="172" y="313" type="line"/>
		</contour>
		<contour>
			<point x="343" y="500" type="curve"/>
			<point x="438" y="500" type="line"/>
			<point x="438" y="630"/>
			<point x="349" y="700"/>
			<point x="231" y="700" type="curve" smooth="yes"/>
			<point x="172" y="700" type="line"/>
			<point x="172" y="692" type="line"/>
			<point x="194" y="692" type="line" smooth="yes"/>
			<point x="271" y="692"/>
			<point x="343" y="638"/>
		</contour>
		<component base="_part.stemserifs" xOffset="-20"/>
	</outline>
</glyph>
<glyph name="S.ss06" format="2">
	<advance width="411"/>
	<anchor x="199" y="700" name="top"/>
	<anchor x="199" y="0" name="bottom"/>
	<outline>
		<contour>
			<point x="199" y="0" type="curve"/>
			<point x="199" y="-8" type="line"/>
			<point x="317" y="-8"/>
			<point x="396" y="76"/>
			<point x="396" y="202" type="curve" smooth="yes"/>
			<point x="396" y="289"/>
			<point x="330" y="344"/>
			<point x="285" y="389" type="curve" smooth="yes"/>
			<point x="240" y="434"/>
			<point x="137" y="508"/>
			<point x="137" y="611" type="curve" smooth="yes"/>
			<point x="137" y="658"/>
			<point x="172" y="697"/>
			<point x="223" y="697" type="curve" smooth="yes"/>
			<point x="309" y="697"/>
			<point x="324" y="606"/>
			<point x="315" y="507" type="curve" smooth="yes"/>
			<point x="312" y="474" type="line"/>
			<point x="318" y="474" type="line"/>
			<point x="385" y="700" type="line"/>
			<point x="377" y="702" type="line"/>
			<point x="367" y="676"/>
			<point x="358" y="664"/>
			<point x="342" y="664" type="curve" smooth="yes"/>
			<point x="319" y="664"/>
			<point x="280" y="705"/>
			<point x="223" y="705" type="curve" smooth="yes"/>
			<point x="124" y="705"/>
			<point x="55" y="632"/>
			<point x="55" y="540" type="curve" smooth="yes"/>
			<point x="55" y="437"/>
			<point x="153.5" y="358.5"/>
			<point x="203" y="318" type="curve" smooth="yes"/>
			<point x="248" y="281"/>
			<point x="314" y="218"/>
			<point x="314" y="131" type="curve" smooth="yes"/>
			<point x="314" y="52.5"/>
			<point x="268" y="0"/>
		</contour>
		<contour>
			<point x="199" y="-8" type="curve"/>
			<point x="199" y="0" type="line"/>
			<point x="111.5" y="0"/>
			<point x="53.5" y="92.5"/>
			<point x="72" y="231" type="curve"/>
			<point x="64" y="233" type="line"/>
			<point x="15" y="20" type="line"/>
			<point x="23" y="18" type="line"/>
			<point x="28" y="26"/>
			<point x="42" y="32"/>
			<point x="56" y="32" type="curve" smooth="yes"/>
			<point x="95" y="32"/>
			<point x="131" y="-8"/>
		</contour>
	</outline>
</glyph>
<glyph name="T.ss01" format="2">
	<advance width="436"/>
	<anchor x="218" y="350" name="center"/>
	<anchor x="218" y="0" name="bottom"/>
	<anchor x="218" y="700" name="top"/>
	<outline>
		<contour>
			<point x="411" y="317" type="line"/>
			<point x="421" y="317" type="line"/>
			<point x="399" y="700" type="line"/>
			<point x="347" y="700" type="line"/>
		</contour>
		<contour>
			<point x="15" y="317" type="line"/>
			<point x="25" y="317" type="line"/>
			<point x="89" y="700" type="line"/>
			<point x="37" y="700" type="line"/>
		</contour>
		<contour>
			<point x="62" y="692" type="line"/>
			<point x="148" y="692" type="line"/>
			<point x="148" y="700" type="line"/>
			<point x="62" y="700" type="line"/>
		</contour>
		<contour>
			<point x="288" y="692" type="line"/>
			<point x="374" y="692" type="line"/>
			<point x="374" y="700" type="line"/>
			<point x="288" y="700" type="line"/>
		</contour>
		<component base="_part.stemserifs" xOffset="73"/>
	</outline>
</glyph>
<glyph name="W.ss03" format="2">
	<advance width="561"/>
	<anchor x="330" y="700" name="top"/>
	<anchor x="280" y="0" name="bottom"/>
	<outline>
		<contour>
			<point x="202.5" y="-37" type="line"/>
			<point x="254" y="187" type="line"/>
			<point x="135" y="700" type="line"/>
			<point x="33" y="700" type="line"/>
		</contour>
		<contour>
			<point x="202.5" y="-37" type="line"/>
			<point x="335" y="540" type="line"/>
			<point x="330.5" y="559.5" type="line"/>
			<point x="198.5" y="-14" type="line"/>
		</contour>
		<contour>
			<point x="365.5" y="-37" type="line"/>
			<point x="417" y="187" type="line"/>
			<point x="330.5" y="559.5" type="line"/>
			<point x="279.5" y="336" type="line"/>
		</contour>
		<contour>
			<point x="365.5" y="-37" type="line"/>
			<point x="535" y="700" type="line"/>
			<point x="526.5" y="700" type="line"/>
			<point x="361.5" y="-14" type="line"/>
		</contour>
		<component base="_part.longserif" xOffset="-60"/>
		<component base="_part.shortserif" xOffset="423"/>
	</outline>
</glyph>
<glyph name="X.ss04" format="2">
	<advance width="389"/>
	<guideline x="242.5" y="540" angle="0"/>
	<anchor x="214" y="700" name="top"/>
	<anchor x="-21" y="700" name="topleft"/>
	<outline>
		<contour>
			<point x="253.5" y="0" type="line"/>
			<point x="356" y="0" type="line"/>
			<point x="242.5" y="540" type="line"/>
			<point x="161" y="500" type="line"/>
		</contour>
		<contour>
			<point x="59" y="0" type="line"/>
			<point x="67.5" y="0" type="line"/>
			<point x="174" y="540" type="line"/>
			<point x="165.5" y="540" type="line"/>
		</contour>
		<contour>
			<point x="161" y="500" type="line"/>
			<point x="242.5" y="540" type="line"/>
			<point x="131" y="700" type="line"/>
			<point x="31" y="700" type="line"/>
		</contour>
		<contour>
			<point x="231" y="523.5" type="line"/>
			<point x="240" y="523.5" type="line"/>
			<point x="357" y="700" type="line"/>
			<point x="348" y="700" type="line"/>
		</contour>
		<component base="_part.longserif" xScale="-1" yScale="-1" xOffset="449" yOffset="700"/>
		<component base="_part.longserif" xOffset="-60"/>
		<component base="_part.shortserif" xOffset="250"/>
		<component base="_part.shortserif" xOffset="-32" yOffset="-692"/>
	</outline>
</glyph>
<glyph name="Y.ss04" format="2">
	<advance width="390"/>
	<guideline x="244.5" y="540" angle="0"/>
	<anchor x="225" y="700" name="top"/>
	<anchor x="195" y="0" name="bottom"/>
	<anchor x="-10" y="700" name="topleft"/>
	<outline>
		<contour>
			<point x="146.5" y="0" type="line"/>
			<point x="246.5" y="0" type="line"/>
			<point x="246.5" y="540" type="line"/>
			<point x="146.5" y="540" type="line"/>
		</contour>
		<contour>
			<point x="146.5" y="531.5" type="line"/>
			<point x="246.5" y="531.5" type="line"/>
			<point x="133" y="700" type="line"/>
			<point x="33" y="700" type="line"/>
		</contour>
		<contour>
			<point x="235" y="531.5" type="line"/>
			<point x="244.5" y="531.5" type="line"/>
			<point x="359.5" y="700" type="line"/>
			<point x="350" y="700" type="line"/>
		</contour>
		<component base="_part.longserif" xScale="-1" yScale="-1" xOffset="341.500" yOffset="700"/>
		<component base="_part.longserif" xOffset="-60"/>
		<component base="_part.shortserif" xOffset="252"/>
	</outline>
</glyph>
<glyph name="Z.ss01" format="2">
	<advance width="396"/>
	<guideline x="371" y="700" angle="90"/>
	<anchor x="202" y="350" name="center"/>
	<anchor x="202" y="0" name="bottom"/>
	<anchor x="202" y="700" name="top"/>
	<outline>
		<contour>
			<point x="15" y="0" type="line"/>
			<point x="116" y="0" type="line"/>
			<point x="371" y="700" type="line"/>
			<point x="270" y="700" type="line"/>
		</contour>
		<contour>
			<point x="81" y="0" type="line"/>
			<point x="317" y="0" type="line"/>
			<point x="317" y="8" type="line"/>
			<point x="81" y="8" type="line"/>
		</contour>
		<contour>
			<point x="64" y="692" type="line"/>
			<point x="291" y="692" type="line"/>
			<point x="291" y="700" type="line"/>
			<point x="64" y="700" type="line"/>
		</contour>
		<contour>
			<point x="15" y="317" type="line"/>
			<point x="25" y="317" type="line"/>
			<point x="89" y="700" type="line"/>
			<point x="37" y="700" type="line"/>
		</contour>
		<contour>
			<point x="381" y="383" type="line"/>
			<point x="371" y="383" type="line"/>
			<point x="307" y="0" type="line"/>
			<point x="359" y="0" type="line"/>
		</contour>
	</outline>
</glyph>
<glyph name="_part.longserif" format="2">
	<advance width="290"/>
	<outline>
		<contour>
			<point x="35" y="692" type="line"/>
			<point x="255" y="692" type="line"/>
			<point x="255" y="700" type="line"/>
			<point x="35" y="700" type="line"/>
		</contour>
	</outline>
</glyph>
<glyph name="_part.longserifbdc" format="2">
	<advance width="290"/>
	<outline>
		<contour>
			<point x="40" y="692" type="line"/>
			<point x="250" y="692" type="line"/>
			<point x="250" y="700" type="line"/>
			<point x="40" y="700" type="line"/>
		</contour>
	</outline>
</glyph>
<glyph name="_part.shortserif" format="2">
	<advance width="198"/>
	<outline>
		<contour>
			<point x="35" y="692" type="line"/>
			<point x="163" y="692" type="line"/>
			<point x="163" y="700" type="line"/>
			<point x="35" y="700" type="line"/>
		</contour>
	</outline>
</glyph>
<glyph name="_part.stem" format="2">
	<advance width="290"/>
	<outline>
		<contour>
			<point x="95" y="0" type="line"/>
			<point x="195" y="0" type="line"/>
			<point x="195" y="700" type="line"/>
			<point x="95" y="700" type="line"/>
		</contour>
	</outline>
</glyph>
<glyph name="_part.stembdc" format="2">
	<advance width="265"/>
	<outline>
		<contour>
			<point x="90" y="0" type="line"/>
			<point x="180" y="0" type="line"/>
			<point x="180" y="780" type="line"/>
			<point x="90" y="780" type="line"/>
		</contour>
		<component base="_part.longserifbdc" xOffset="-10" yOffset="-692"/>
		<component base="_part.shortserif" xOffset="-10" yOffset="80"/>
	</outline>
</glyph>
<glyph name="_part.wavestrokehorizontal" format="2">
	<advance width="334.5"/>
	<outline>
		<contour>
			<point x="164" y="285" type="curve" smooth="yes"/>
			<point x="197.5" y="285"/>
			<point x="245.5" y="323"/>
			<point x="284.5" y="380" type="curve"/>
			<point x="279" y="386" type="line"/>
			<point x="265.5" y="367.5"/>
			<point x="251" y="359.5"/>
			<point x="236.5" y="359.5" type="curve" smooth="yes"/>
			<point x="200" y="359.5"/>
			<point x="183" y="404"/>
			<point x="146" y="404" type="curve" smooth="yes"/>
			<point x="112" y="404"/>
			<point x="73" y="372"/>
			<point x="50" y="324" type="curve"/>
			<point x="60" y="314" type="line"/>
			<point x="60" y="324"/>
			<point x="68" y="330"/>
			<point x="79" y="330" type="curve" smooth="yes"/>
			<point x="108" y="330"/>
			<point x="126" y="285"/>
		</contour>
	</outline>
</glyph>
<glyph name="ampersand.ss09" format="2">
	<advance width="761.5"/>
	<guideline x="229.5" y="615.5" angle="0"/>
	<guideline x="969.5" y="-8" angle="0"/>
	<guideline x="325.5" y="708" angle="0"/>
	<outline>
		<contour>
			<point x="590" y="-8" type="curve" smooth="yes"/>
			<point x="715.5" y="-7.5"/>
			<point x="800" y="55"/>
			<point x="800" y="148" type="curve" smooth="yes"/>
			<point x="800" y="213.5"/>
			<point x="741.5" y="257"/>
			<point x="654" y="257" type="curve"/>
			<point x="653" y="250" type="line"/>
			<point x="693" y="247.5"/>
			<point x="720" y="209.5"/>
			<point x="720" y="155.5" type="curve" smooth="yes"/>
			<point x="720" y="62.5"/>
			<point x="674" y="0.5"/>
			<point x="605" y="0.5" type="curve" smooth="yes"/>
			<point x="565" y="0.5"/>
			<point x="520.5" y="34"/>
			<point x="474" y="97.5" type="curve" smooth="yes"/>
			<point x="419" y="173"/>
			<point x="355.5" y="287"/>
			<point x="289" y="421" type="curve" smooth="yes"/>
			<point x="255.5" y="489"/>
			<point x="229.5" y="561.5"/>
			<point x="229.5" y="615.5" type="curve" smooth="yes"/>
			<point x="229.5" y="670.5"/>
			<point x="273.5" y="700"/>
			<point x="319" y="700" type="curve"/>
			<point x="325.5" y="708" type="line"/>
			<point x="234.5" y="708"/>
			<point x="143" y="661"/>
			<point x="143" y="567.5" type="curve" smooth="yes"/>
			<point x="143" y="517"/>
			<point x="156.5" y="452"/>
			<point x="192" y="386.5" type="curve" smooth="yes"/>
			<point x="242" y="294.5"/>
			<point x="296.5" y="197"/>
			<point x="360" y="122.5" type="curve" smooth="yes"/>
			<point x="425" y="46"/>
			<point x="500" y="-8.5"/>
		</contour>
		<contour>
			<point x="239.5" y="397.5" type="curve"/>
			<point x="270" y="398.5" type="line"/>
			<point x="406" y="408.5"/>
			<point x="494.5" y="485"/>
			<point x="494.5" y="570.5" type="curve" smooth="yes"/>
			<point x="494.5" y="642.5"/>
			<point x="432" y="708"/>
			<point x="325.5" y="708" type="curve"/>
			<point x="319" y="700" type="line"/>
			<point x="370" y="700"/>
			<point x="404.5" y="649"/>
			<point x="404.5" y="588.5" type="curve" smooth="yes"/>
			<point x="404.5" y="508.5"/>
			<point x="344.5" y="410"/>
		</contour>
		<contour>
			<point x="15" y="173.5" type="curve" smooth="yes"/>
			<point x="15" y="64.5"/>
			<point x="120.5" y="-8"/>
			<point x="278.5" y="-8" type="curve" smooth="yes"/>
			<point x="358.5" y="-8"/>
			<point x="424" y="19.5"/>
			<point x="480" y="69.5" type="curve" smooth="yes"/>
			<point x="551" y="132"/>
			<point x="607.5" y="229"/>
			<point x="660" y="350" type="curve" smooth="yes"/>
			<point x="740.5" y="535"/>
			<point x="778.5" y="654"/>
			<point x="923.5" y="654" type="curve" smooth="yes"/>
			<point x="1037" y="654"/>
			<point x="1113" y="578.5"/>
			<point x="1113" y="469" type="curve" smooth="yes"/>
			<point x="1113" y="311"/>
			<point x="825.5" y="323"/>
			<point x="825.5" y="156.5" type="curve" smooth="yes"/>
			<point x="825.5" y="70"/>
			<point x="921.5" y="-8"/>
			<point x="1086" y="-8" type="curve" smooth="yes"/>
			<point x="1181.5" y="-8"/>
			<point x="1245" y="26.5"/>
			<point x="1245" y="78.5" type="curve" smooth="yes"/>
			<point x="1245" y="100.5"/>
			<point x="1233.5" y="127"/>
			<point x="1215.5" y="159.5" type="curve" smooth="yes"/>
			<point x="1199.5" y="187.5"/>
			<point x="1183" y="216"/>
			<point x="1183" y="255.5" type="curve" smooth="yes"/>
			<point x="1183" y="324.5"/>
			<point x="1237.5" y="376.5"/>
			<point x="1297" y="376.5" type="curve" smooth="yes"/>
			<point x="1347.5" y="376.5"/>
			<point x="1398" y="325.5"/>
			<point x="1398" y="230" type="curve" smooth="yes"/>
			<point x="1398" y="170"/>
			<point x="1352" y="157"/>
			<point x="1318.5" y="136.5" type="curve" smooth="yes"/>
			<point x="1293.5" y="121"/>
			<point x="1282.5" y="99"/>
			<point x="1282.5" y="77" type="curve" smooth="yes"/>
			<point x="1282.5" y="18.5"/>
			<point x="1337.5" y="-8.5"/>
			<point x="1398.5" y="-8.5" type="curve" smooth="yes"/>
			<point x="1475" y="-8.5"/>
			<point x="1561.5" y="34"/>
			<point x="1561.5" y="110" type="curve" smooth="yes"/>
			<point x="1561.5" y="147.5"/>
			<point x="1546" y="203.5"/>
			<point x="1528.5" y="250.5" type="curve"/>
			<point x="1521.5" y="246" type="line"/>
			<point x="1529.5" y="228"/>
			<point x="1533" y="211.5"/>
			<point x="1533" y="196.5" type="curve" smooth="yes"/>
			<point x="1533" y="129.5"/>
			<point x="1438" y="85.5"/>
			<point x="1379.5" y="85.5" type="curve" smooth="yes"/>
			<point x="1353" y="85.5"/>
			<point x="1334" y="94.5"/>
			<point x="1334" y="114" type="curve" smooth="yes"/>
			<point x="1334" y="126.5"/>
			<point x="1344" y="141"/>
			<point x="1363.5" y="153.5" type="curve" smooth="yes"/>
			<point x="1406.5" y="180.5"/>
			<point x="1482" y="198"/>
			<point x="1482" y="266.5" type="curve" smooth="yes"/>
			<point x="1482" y="321.5"/>
			<point x="1439.5" y="384.5"/>
			<point x="1297" y="384.5" type="curve" smooth="yes"/>
			<point x="1178" y="384.5"/>
			<point x="1096" y="327.5"/>
			<point x="1096" y="234.5" type="curve" smooth="yes"/>
			<point x="1096" y="203.5"/>
			<point x="1103.5" y="174"/>
			<point x="1119" y="136" type="curve" smooth="yes"/>
			<point x="1133.5" y="99"/>
			<point x="1147" y="66"/>
			<point x="1147" y="41.5" type="curve" smooth="yes"/>
			<point x="1147" y="16.5"/>
			<point x="1124" y="0"/>
			<point x="1089.5" y="0" type="curve" smooth="yes"/>
			<point x="1026" y="0"/>
			<point x="933.5" y="54.5"/>
			<point x="933.5" y="146" type="curve" smooth="yes"/>
			<point x="933.5" y="279.5"/>
			<point x="1121" y="326.5"/>
			<point x="1121" y="469" type="curve" smooth="yes"/>
			<point x="1121" y="611"/>
			<point x="1017.5" y="708"/>
			<point x="862" y="708" type="curve" smooth="yes"/>
			<point x="693.5" y="708"/>
			<point x="646" y="594"/>
			<point x="591.5" y="414" type="curve" smooth="yes"/>
			<point x="537" y="233.5"/>
			<point x="466.5" y="0"/>
			<point x="278.5" y="0" type="curve" smooth="yes"/>
			<point x="180.5" y="0"/>
			<point x="115" y="83.5"/>
			<point x="115" y="208.5" type="curve" smooth="yes"/>
			<point x="115" y="295"/>
			<point x="155.5" y="383"/>
			<point x="239.5" y="414.5" type="curve"/>
			<point x="213" y="407.5" type="line"/>
			<point x="92.5" y="369.5"/>
			<point x="15" y="276.5"/>
		</contour>
	</outline>
</glyph>
<glyph name="bullet.ss06" format="2">
	<advance width="220"/>
	<outline>
		<contour>
			<point x="25" y="292.5" type="line"/>
			<point x="107.5" y="210" type="line"/>
			<point x="112.5" y="210" type="line"/>
			<point x="195" y="292.5" type="line"/>
			<point x="195" y="297.5" type="line"/>
			<point x="112.5" y="380" type="line"/>
			<point x="107.5" y="380" type="line"/>
			<point x="25" y="297.5" type="line"/>
		</contour>
	</outline>
</glyph>
<glyph name="dagger.ss06" format="2">
	<advance width="266"/>
	<guideline x="194.5" y="463.5" angle="90"/>
	<guideline x="251" y="494.5" angle="90"/>
	<outline>
		<contour>
			<point x="15" y="544" type="line"/>
			<point x="76.5" y="514" type="line"/>
			<point x="130" y="543.5" type="line"/>
			<point x="100.5" y="465" type="line"/>
			<point x="130.5" y="283.5" type="line"/>
			<point x="135.5" y="283.5" type="line"/>
			<point x="165.5" y="465" type="line"/>
			<point x="136" y="543.5" type="line"/>
			<point x="189.5" y="514" type="line"/>
			<point x="251" y="544" type="line"/>
			<point x="251" y="549" type="line"/>
			<point x="189.5" y="579" type="line"/>
			<point x="136" y="549.5" type="line"/>
			<point x="165.5" y="628" type="line"/>
			<point x="135.5" y="709.5" type="line"/>
			<point x="130.5" y="709.5" type="line"/>
			<point x="100.5" y="628" type="line"/>
			<point x="130" y="549.5" type="line"/>
			<point x="76.5" y="579" type="line"/>
			<point x="15" y="549" type="line"/>
		</contour>
	</outline>
</glyph>
<glyph name="quotedblleft.ss08" format="2">
	<advance width="253"/>
	<outline>
		<contour>
			<point x="130" y="500" type="line"/>
			<point x="200" y="500" type="line"/>
			<point x="228.5" y="750" type="line"/>
			<point x="220.5" y="750" type="line"/>
		</contour>
		<contour>
			<point x="25" y="500" type="line"/>
			<point x="95" y="500" type="line"/>
			<point x="123.5" y="750" type="line"/>
			<point x="115.5" y="750" type="line"/>
		</contour>
	</outline>
</glyph>
<glyph name="quotedblright.ss08" format="2">
	<advance width="253"/>
	<outline>
		<contour>
			<point x="130" y="450" type="line"/>
			<point x="138" y="450" type="line"/>
			<point x="228.5" y="700" type="line"/>
			<point x="158.5" y="700" type="line"/>
		</contour>
		<contour>
			<point x="25" y="450" type="line"/>
			<point x="33" y="450" type="line"/>
			<point x="123.5" y="700" type="line"/>
			<point x="53.5" y="700" type="line"/>
		</contour>
	</outline>
</glyph>
<glyph name="uni0304.narrow" format="2">
	<advance width="0"/>
	<anchor x="-110" y="800" name="top"/>
	<anchor x="-110" y="700" name="_top"/>
	<outline>
		<contour>
			<point x="-195" y="782" type="line"/>
			<point x="-25" y="782" type="line"/>
			<point x="-25" y="800" type="line"/>
			<point x="-195" y="800" type="line"/>
		</contour>
	</outline>
</glyph>
<glyph name="uni0307.case" format="2">
	<advance width="0"/>
	<anchor x="-64.5" y="700" name="_top"/>
	<outline>
		<contour>
			<point x="-65" y="747.5" type="curve" smooth="yes"/>
			<point x="-43" y="747.5"/>
			<point x="-25" y="765.5"/>
			<point x="-25" y="787.5" type="curve" smooth="yes"/>
			<point x="-25" y="809.5"/>
			<point x="-43" y="827.5"/>
			<point x="-65" y="827.5" type="curve" smooth="yes"/>
			<point x="-86.5" y="827.5"/>
			<point x="-105" y="809.5"/>
			<point x="-105" y="787.5" type="curve" smooth="yes"/>
			<point x="-105" y="765.5"/>
			<point x="-86.5" y="747.5"/>
		</contour>
	</outline>
</glyph>
<glyph name="uni1E9E.ss01" format="2">
	<advance width="555"/>
	<outline>
		<contour>
			<point x="-30" y="296.5" type="curve" smooth="yes"/>
			<point x="-30" y="106"/>
			<point x="168.5" y="-9.5"/>
			<point x="331.5" y="-9.5" type="curve" smooth="yes"/>
			<point x="456.5" y="-9.5"/>
			<point x="540" y="62.5"/>
			<point x="540" y="170.5" type="curve" smooth="yes"/>
			<point x="540" y="271"/>
			<point x="470.5" y="356.5"/>
			<point x="363" y="392" type="curve"/>
			<point x="336" y="399.5" type="line"/>
			<point x="407.5" y="372.5"/>
			<point x="455.5" y="296"/>
			<point x="455.5" y="208.5" type="curve" smooth="yes"/>
			<point x="455.5" y="67.5"/>
			<point x="380.5" y="8"/>
			<point x="294.5" y="8" type="curve" smooth="yes"/>
			<point x="177.5" y="8"/>
			<point x="39.5" y="120.5"/>
			<point x="39.5" y="319" type="curve" smooth="yes"/>
			<point x="39.5" y="368.5"/>
			<point x="60" y="403"/>
			<point x="108" y="403" type="curve"/>
			<point x="108" y="411" type="line"/>
			<point x="11.5" y="411"/>
			<point x="-30" y="362"/>
		</contour>
		<contour>
			<point x="40" y="0" type="line"/>
			<point x="295" y="0" type="line"/>
			<point x="295" y="8" type="line"/>
			<point x="40" y="8" type="line"/>
		</contour>
		<contour>
			<point x="100" y="0" type="line"/>
			<point x="200" y="0" type="line"/>
			<point x="200" y="571.5" type="line"/>
			<point x="100" y="568.5" type="line"/>
		</contour>
		<contour>
			<point x="454" y="161" type="curve"/>
			<point x="459" y="167.5" type="line"/>
			<point x="400" y="215.5"/>
			<point x="355.5" y="285.5"/>
			<point x="355.5" y="335" type="curve" smooth="yes"/>
			<point x="355.5" y="373"/>
			<point x="385" y="405"/>
			<point x="413.5" y="443.5" type="curve" smooth="yes"/>
			<point x="448" y="489.5"/>
			<point x="469" y="534.5"/>
			<point x="469" y="574" type="curve" smooth="yes"/>
			<point x="469" y="652"/>
			<point x="400.5" y="708"/>
			<point x="289" y="708" type="curve" smooth="yes"/>
			<point x="138" y="708"/>
			<point x="100" y="680"/>
			<point x="100" y="568.5" type="curve"/>
			<point x="200" y="571.5" type="line"/>
			<point x="202" y="674.5"/>
			<point x="219.5" y="700"/>
			<point x="289" y="700" type="curve" smooth="yes"/>
			<point x="342" y="700"/>
			<point x="415.5" y="677.5"/>
			<point x="415.5" y="631" type="curve" smooth="yes"/>
			<point x="415.5" y="543.5"/>
			<point x="269.5" y="489.5"/>
			<point x="269.5" y="396" type="curve" smooth="yes"/>
			<point x="269.5" y="308.5"/>
			<point x="360" y="224.5"/>
		</contour>
	</outline>
</glyph>
<glyph name="uni2E4B.ss06" format="2">
	<advance width="266"/>
	<guideline x="167.5" y="480" angle="0"/>
	<outline>
		<contour>
			<point x="15" y="248" type="line"/>
			<point x="76.5" y="218" type="line"/>
			<point x="130" y="247.5" type="line"/>
			<point x="100.5" y="169" type="line"/>
			<point x="130.5" y="87.5" type="line"/>
			<point x="135.5" y="87.5" type="line"/>
			<point x="165.5" y="169" type="line"/>
			<point x="136" y="247.5" type="line"/>
			<point x="189.5" y="218" type="line"/>
			<point x="251" y="248" type="line"/>
			<point x="251" y="253" type="line"/>
			<point x="189.5" y="283" type="line"/>
			<point x="136" y="253.5" type="line"/>
			<point x="165.5" y="317" type="line"/>
			<point x="136" y="395.5" type="line"/>
			<point x="189.5" y="366" type="line"/>
			<point x="251" y="396" type="line"/>
			<point x="251" y="401" type="line"/>
			<point x="189.5" y="431" type="line"/>
			<point x="136" y="401.5" type="line"/>
			<point x="165.5" y="480" type="line"/>
			<point x="136" y="543.5" type="line"/>
			<point x="189.5" y="514" type="line"/>
			<point x="251" y="544" type="line"/>
			<point x="251" y="549" type="line"/>
			<point x="189.5" y="579" type="line"/>
			<point x="136" y="549.5" type="line"/>
			<point x="165.5" y="628" type="line"/>
			<point x="135.5" y="709.5" type="line"/>
			<point x="130.5" y="709.5" type="line"/>
			<point x="100.5" y="628" type="line"/>
			<point x="130" y="549.5" type="line"/>
			<point x="76.5" y="579" type="line"/>
			<point x="15" y="549" type="line"/>
			<point x="15" y="544" type="line"/>
			<point x="76.5" y="514" type="line"/>
			<point x="130" y="543.5" type="line"/>
			<point x="100.5" y="480" type="line"/>
			<point x="130" y="401.5" type="line"/>
			<point x="76.5" y="431" type="line"/>
			<point x="15" y="401" type="line"/>
			<point x="15" y="396" type="line"/>
			<point x="76.5" y="366" type="line"/>
			<point x="130" y="395.5" type="line"/>
			<point x="100.5" y="317" type="line"/>
			<point x="130" y="253.5" type="line"/>
			<point x="76.5" y="283" type="line"/>
			<point x="15" y="253" type="line"/>
		</contour>
	</outline>
</glyph>
